{
.appVersion = "118";
DisplayStrings = (

glyphs = (
{
color = 4;
glyphname = A;
lastChange = "2024-02-09 10:29:49 +0000";
layers = (
{
anchors = (
{
name = bottom;
position = "{397, 0}";
},
{
name = ogonek;
position = "{605, 0}";
},
{
name = top;
position = "{397, 840}";
},
{
name = topleft;
position = "{70, 840}";
}
);
layerId = "BADE114B-EA49-45B4-AE36-72A7CEB6E1BE";
paths = (
{
closed = 1;
nodes = (
"600 125 LINE",
"600 325 LINE",
"194 325 LINE",
"194 125 LINE"
);
},
{
closed = 1;
nodes = (
"331 840 OFFCURVE",
"282 834 OFFCURVE",
"215 817 CURVE",
"156 631 OFFCURVE",
"80 314 OFFCURVE",
"25 26 CURVE",
"54 13 OFFCURVE",
"96 0 OFFCURVE",
"145 0 CURVE SMOOTH",
"209 0 OFFCURVE",
"241 4 OFFCURVE",
"263 11 CURVE",
"293 172 LINE",
"307 282 LINE",
"383 594 LINE",
"397 672 LINE",
"397 840 LINE"
);
},
{
closed = 1;
nodes = (
"397 672 LINE",
"411 594 LINE",
"487 282 LINE",
"501 172 LINE",
"531 11 LINE",
"553 4 OFFCURVE",
"585 0 OFFCURVE",
"649 0 CURVE SMOOTH",
"698 0 OFFCURVE",
"740 13 OFFCURVE",
"769 26 CURVE",
"714 314 OFFCURVE",
"638 631 OFFCURVE",
"579 817 CURVE",
"512 834 OFFCURVE",
"463 840 OFFCURVE",
"397 840 CURVE"
);
}
);
width = 794;
}
);
leftKerningGroup = A;
note = A;
rightKerningGroup = A;
unicode = 0041;
},
{
color = 4;
glyphname = "Alpha-latin";
lastChange = "2024-02-03 23:52:25 +0000";
layers = (
{
anchors = (
{
name = bottom;
position = "{622, 0}";
},
{
name = ogonek;
position = "{602, 0}";
},
{
name = top;
position = "{622, 840}";
},
{
name = topleft;
position = "{459, 840}";
}
);
layerId = "BADE114B-EA49-45B4-AE36-72A7CEB6E1BE";
paths = (
{
closed = 1;
nodes = (
"285 420 LINE",
"285 597 OFFCURVE",
"344 663 OFFCURVE",
"420 664 CURVE SMOOTH",
"453 665 OFFCURVE",
"494 648 OFFCURVE",
"509 625 CURVE",
"525 796 LINE",
"481 830 OFFCURVE",
"424 850 OFFCURVE",
"353 850 CURVE SMOOTH",
"162 850 OFFCURVE",
"50 711 OFFCURVE",
"50 420 CURVE"
);
},
{
closed = 1;
nodes = (
"628 420 LINE",
"747 420 LINE",
"747 701 OFFCURVE",
"746 719 OFFCURVE",
"742 823 CURVE SMOOTH",
"742 823 OFFCURVE",
"702 840 OFFCURVE",
"634 840 CURVE SMOOTH",
"589 840 OFFCURVE",
"558 836 OFFCURVE",
"529 827 CURVE",
"525 796 LINE",
"509 625 LINE",
"509 420 LINE"
);
},
{
closed = 1;
nodes = (
"50 129 OFFCURVE",
"162 -10 OFFCURVE",
"353 -10 CURVE SMOOTH",
"424 -10 OFFCURVE",
"481 10 OFFCURVE",
"525 44 CURVE",
"509 215 LINE",
"494 192 OFFCURVE",
"453 175 OFFCURVE",
"420 176 CURVE SMOOTH",
"344 177 OFFCURVE",
"285 243 OFFCURVE",
"285 420 CURVE",
"50 420 LINE"
);
},
{
closed = 1;
nodes = (
"509 215 LINE",
"525 44 LINE",
"529 13 LINE",
"558 4 OFFCURVE",
"589 0 OFFCURVE",
"634 0 CURVE SMOOTH",
"702 0 OFFCURVE",
"742 17 OFFCURVE",
"742 17 CURVE SMOOTH",
"746 121 OFFCURVE",
"747 139 OFFCURVE",
"747 420 CURVE",
"628 420 LINE",
"509 420 LINE"
);
}
);
width = 797;
}
);
leftKerningGroup = O;
rightKerningGroup = I;
unicode = 2C6D;
},
{
color = 4;
glyphname = AE;
lastChange = "2024-02-03 23:52:44 +0000";
layers = (
{
anchors = (
{
name = _e;
position = "{1440, 420}";
},
{
name = bottom;
position = "{550, 0}";
},
{
name = ogonek;
position = "{912, 0}";
},
{
name = top;
position = "{550, 840}";
},
{
name = topleft;
position = "{470, 840}";
}
);
layerId = "BADE114B-EA49-45B4-AE36-72A7CEB6E1BE";
paths = (
{
closed = 1;
nodes = (
"531 135 LINE",
"531 335 LINE",
"216 335 LINE",
"216 135 LINE"
);
},
{
closed = 1;
nodes = (
"521 840 OFFCURVE",
"353 832 OFFCURVE",
"240 817 CURVE",
"181 631 OFFCURVE",
"105 314 OFFCURVE",
"50 26 CURVE",
"79 13 OFFCURVE",
"121 0 OFFCURVE",
"170 0 CURVE SMOOTH",
"234 0 OFFCURVE",
"266 4 OFFCURVE",
"288 11 CURVE",
"318 172 LINE",
"332 282 LINE",
"412 638 LINE",
"746 638 LINE",
"632 840 LINE",
"533 840 LINE SMOOTH"
);
},
{
closed = 1;
nodes = (
"942 328 LINE",
"946 355 OFFCURVE",
"948 386 OFFCURVE",
"948 421 CURVE SMOOTH",
"948 446 OFFCURVE",
"946 477 OFFCURVE",
"942 512 CURVE",
"746 507 LINE",
"746 331 LINE"
);
},
{
closed = 1;
nodes = (
"746 638 LINE",
"870 639 OFFCURVE",
"964 638 OFFCURVE",
"1057 630 CURVE",
"1057 729 OFFCURVE",
"1055 778 OFFCURVE",
"1051 827 CURVE",
"983 836 OFFCURVE",
"827 840 OFFCURVE",
"632 840 CURVE"
);
},
{
closed = 1;
nodes = (
"882 -1 OFFCURVE",
"941 0 OFFCURVE",
"1051 13 CURVE",
"1055 62 OFFCURVE",
"1057 89 OFFCURVE",
"1057 188 CURVE",
"964 180 OFFCURVE",
"870 179 OFFCURVE",
"746 180 CURVE",
"755 0 LINE"
);
},
{
closed = 1;
nodes = (
"517 393 OFFCURVE",
"517 18 OFFCURVE",
"517 18 CURVE",
"517 18 OFFCURVE",
"595 0 OFFCURVE",
"755 0 CURVE",
"746 180 LINE",
"746 331 LINE",
"746 638 LINE",
"517 638 LINE"
);
}
);
width = 1107;
}
);
leftKerningGroup = AE;
rightKerningGroup = E;
unicode = 00C6;
},
{
color = 4;
glyphname = B;
lastChange = "2024-02-03 14:38:47 +0000";
layers = (
{
anchors = (
{
name = bottom;
position = "{350, 0}";
},
{
name = top;
position = "{350, 840}";
}
);
background = {
paths = (
{
closed = 1;
nodes = (
"591 -10 OFFCURVE",
"682 96 OFFCURVE",
"682 239 CURVE SMOOTH",
"682 317 OFFCURVE",
"655 384 OFFCURVE",
"567 420 CURVE",
"288 420 LINE",
"288 342 LINE",
"340 342 LINE",
"382 342 OFFCURVE",
"424 323 OFFCURVE",
"424 264 CURVE",
"424 207 OFFCURVE",
"390 178 OFFCURVE",
"331 178 CURVE",
"288 178 LINE",
"308 -10 LINE"
);
},
{
closed = 1;
nodes = (
"567 420 LINE",
"640 456 OFFCURVE",
"672 523 OFFCURVE",
"672 601 CURVE SMOOTH",
"672 744 OFFCURVE",
"581 850 OFFCURVE",
"308 850 CURVE",
"288 662 LINE",
"341 662 LINE",
"382 662 OFFCURVE",
"416 633 OFFCURVE",
"416 576 CURVE",
"416 517 OFFCURVE",
"375 498 OFFCURVE",
"350 498 CURVE",
"288 498 LINE",
"288 420 LINE"
);
},
{
closed = 1;
nodes = (
"288 178 LINE",
"288 420 LINE",
"54 420 LINE",
"54 175 OFFCURVE",
"70 8 OFFCURVE",
"70 8 CURVE",
"70 8 OFFCURVE",
"132 -10 OFFCURVE",
"308 -10 CURVE"
);
},
{
closed = 1;
nodes = (
"288 420 LINE",
"288 662 LINE",
"308 850 LINE",
"132 850 OFFCURVE",
"70 832 OFFCURVE",
"70 832 CURVE",
"70 832 OFFCURVE",
"54 665 OFFCURVE",
"54 420 CURVE"
);
}
);
};
layerId = "BADE114B-EA49-45B4-AE36-72A7CEB6E1BE";
paths = (
{
closed = 1;
nodes = (
"621 444 OFFCURVE",
"659 511 OFFCURVE",
"659 614 CURVE SMOOTH",
"659 770 OFFCURVE",
"546 851 OFFCURVE",
"329 850 CURVE",
"279 673 LINE",
"341 673 LINE SMOOTH",
"405 673 OFFCURVE",
"435 648 OFFCURVE",
"435 592 CURVE SMOOTH",
"437 535 OFFCURVE",
"406 509 OFFCURVE",
"341 509 CURVE SMOOTH",
"279 509 LINE",
"289 420 LINE",
"549 420 LINE"
);
},
{
closed = 1;
nodes = (
"289 420 LINE",
"279 509 LINE",
"279 673 LINE",
"329 850 LINE",
"128 850 OFFCURVE",
"58 832 OFFCURVE",
"58 832 CURVE",
"58 832 OFFCURVE",
"50 665 OFFCURVE",
"50 420 CURVE"
);
},
{
closed = 1;
nodes = (
"289 420 LINE",
"279 331 LINE",
"357 331 LINE SMOOTH",
"422 331 OFFCURVE",
"452 305 OFFCURVE",
"451 248 CURVE SMOOTH",
"451 192 OFFCURVE",
"421 167 OFFCURVE",
"357 167 CURVE SMOOTH",
"279 167 LINE",
"329 -10 LINE",
"562 -11 OFFCURVE",
"683 70 OFFCURVE",
"683 226 CURVE SMOOTH",
"683 330 OFFCURVE",
"637 397 OFFCURVE",
"549 420 CURVE"
);
},
{
closed = 1;
nodes = (
"50 175 OFFCURVE",
"58 8 OFFCURVE",
"58 8 CURVE",
"58 8 OFFCURVE",
"128 -10 OFFCURVE",
"329 -10 CURVE",
"279 167 LINE",
"279 331 LINE",
"289 420 LINE",
"50 420 LINE"
);
}
);
width = 718;
}
);
leftKerningGroup = I;
leftMetricsKey = I;
note = B;
rightKerningGroup = B;
unicode = 0042;
},
{
color = 4;
glyphname = C;
lastChange = "2024-02-09 10:33:00 +0000";
layers = (
{
anchors = (
{
name = bottom;
position = "{396, 0}";
},
{
name = top;
position = "{400, 840}";
}
);
layerId = "BADE114B-EA49-45B4-AE36-72A7CEB6E1BE";
paths = (
{
closed = 1;
nodes = (
"601 -10 OFFCURVE",
"712 76 OFFCURVE",
"741 288 CURVE",
"662 308 OFFCURVE",
"574 318 OFFCURVE",
"509 316 CURVE",
"495 224 OFFCURVE",
"458 176 OFFCURVE",
"401 176 CURVE SMOOTH",
"325 176 OFFCURVE",
"285 260 OFFCURVE",
"285 420 CURVE SMOOTH",
"285 580 OFFCURVE",
"325 664 OFFCURVE",
"401 664 CURVE SMOOTH",
"458 664 OFFCURVE",
"495 616 OFFCURVE",
"509 524 CURVE",
"574 522 OFFCURVE",
"662 532 OFFCURVE",
"741 552 CURVE",
"712 764 OFFCURVE",
"601 850 OFFCURVE",
"400 850 CURVE SMOOTH",
"172 850 OFFCURVE",
"50 741 OFFCURVE",
"50 420 CURVE SMOOTH",
"50 166 OFFCURVE",
"121 -10 OFFCURVE",
"400 -10 CURVE SMOOTH"
);
}
);
width = 791;
}
);
leftKerningGroup = O;
leftMetricsKey = O;
note = C;
rightKerningGroup = C;
unicode = 0043;
},
{
color = 4;
glyphname = D;
lastChange = "2024-02-03 23:57:24 +0000";
layers = (
{
anchors = (
{
name = bottom;
position = "{364, 0}";
},
{
name = center;
position = "{355, 420}";
},
{
name = macronbelow;
position = "{364, 0}";
},
{
name = top;
position = "{364, 838}";
}
);
background = {
paths = (
{
closed = 1;
nodes = (
"695 786 OFFCURVE",
"520 850 OFFCURVE",
"318 850 CURVE",
"283 635 LINE",
"369 652 OFFCURVE",
"441 608 OFFCURVE",
"441 420 CURVE",
"696 420 LINE"
);
},
{
closed = 1;
nodes = (
"283 205 LINE",
"283 420 LINE",
"18 410 LINE",
"18 201 OFFCURVE",
"35 13 OFFCURVE",
"35 12 CURVE",
"35 12 OFFCURVE",
"141 -10 OFFCURVE",
"318 -10 CURVE"
);
},
{
closed = 1;
nodes = (
"441 420 LINE",
"441 232 OFFCURVE",
"369 188 OFFCURVE",
"283 205 CURVE",
"318 -10 LINE",
"520 -10 OFFCURVE",
"695 54 OFFCURVE",
"696 420 CURVE"
);
},
{
closed = 1;
nodes = (
"283 420 LINE",
"283 635 LINE",
"318 850 LINE",
"141 850 OFFCURVE",
"35 828 OFFCURVE",
"35 828 CURVE",
"35 828 OFFCURVE",
"18 620 OFFCURVE",
"18 410 CURVE"
);
}
);
};
layerId = "BADE114B-EA49-45B4-AE36-72A7CEB6E1BE";
paths = (
{
closed = 1;
nodes = (
"716 420 LINE",
"716 716 OFFCURVE",
"593 851 OFFCURVE",
"304 849 CURVE",
"284 651 LINE",
"340 651 LINE SMOOTH",
"434 651 OFFCURVE",
"482 578 OFFCURVE",
"482 420 CURVE"
);
},
{
closed = 1;
nodes = (
"284 420 LINE",
"284 651 LINE",
"304 850 LINE",
"128 850 OFFCURVE",
"58 832 OFFCURVE",
"58 832 CURVE",
"58 832 OFFCURVE",
"50 665 OFFCURVE",
"50 420 CURVE"
);
},
{
closed = 1;
nodes = (
"482 262 OFFCURVE",
"434 189 OFFCURVE",
"340 189 CURVE SMOOTH",
"284 189 LINE",
"304 -9 LINE",
"593 -11 OFFCURVE",
"716 124 OFFCURVE",
"716 420 CURVE",
"482 420 LINE"
);
},
{
closed = 1;
nodes = (
"50 175 OFFCURVE",
"58 8 OFFCURVE",
"58 8 CURVE",
"58 8 OFFCURVE",
"128 -10 OFFCURVE",
"304 -10 CURVE",
"284 189 LINE",
"284 420 LINE",
"50 420 LINE"
);
}
);
width = 766;
}
);
leftKerningGroup = I;
leftMetricsKey = I;
note = D;
rightKerningGroup = O;
unicode = 0044;
},
{
color = 4;
glyphname = Eth;
lastChange = "2024-02-03 23:57:24 +0000";
layers = (
{
components = (
{
name = D;
transform = "{1, 0, 0, 1, 50, 0}";
}
);
layerId = "BADE114B-EA49-45B4-AE36-72A7CEB6E1BE";
paths = (
{
closed = 1;
nodes = (
"450 319 LINE",
"450 503 LINE",
"50 503 LINE",
"50 319 LINE"
);
}
);
width = 816;
}
);
leftKerningGroup = I;
rightKerningGroup = O;
unicode = 00D0;
},
{
color = 4;
glyphname = E;
lastChange = "2024-02-07 00:37:51 +0000";
layers = (
{
anchors = (
{
name = _e;
position = "{165, 420}";
},
{
name = bottom;
position = "{317, 0}";
},
{
name = ogonek;
position = "{473, 0}";
},
{
name = top;
position = "{317, 840}";
},
{
name = topleft;
position = "{-7, 840}";
}
);
layerId = "BADE114B-EA49-45B4-AE36-72A7CEB6E1BE";
paths = (
{
closed = 1;
nodes = (
"475 328 LINE",
"479 355 OFFCURVE",
"481 386 OFFCURVE",
"481 421 CURVE SMOOTH",
"481 446 OFFCURVE",
"479 477 OFFCURVE",
"475 512 CURVE",
"279 507 LINE",
"279 331 LINE"
);
},
{
closed = 1;
nodes = (
"279 638 LINE",
"423 639 OFFCURVE",
"517 638 OFFCURVE",
"610 630 CURVE",
"610 729 OFFCURVE",
"608 778 OFFCURVE",
"604 827 CURVE",
"494 840 OFFCURVE",
"435 841 OFFCURVE",
"288 840 CURVE"
);
},
{
closed = 1;
nodes = (
"435 -1 OFFCURVE",
"494 0 OFFCURVE",
"604 13 CURVE",
"608 62 OFFCURVE",
"610 89 OFFCURVE",
"610 188 CURVE",
"517 180 OFFCURVE",
"423 179 OFFCURVE",
"279 180 CURVE",
"288 0 LINE"
);
},
{
closed = 1;
nodes = (
"279 420 LINE",
"279 509 LINE",
"279 638 LINE",
"288 840 LINE",
"128 840 OFFCURVE",
"58 822 OFFCURVE",
"58 822 CURVE",
"58 822 OFFCURVE",
"50 665 OFFCURVE",
"50 420 CURVE"
);
},
{
closed = 1;
nodes = (
"50 175 OFFCURVE",
"58 18 OFFCURVE",
"58 18 CURVE",
"58 18 OFFCURVE",
"128 0 OFFCURVE",
"288 0 CURVE",
"279 180 LINE",
"279 331 LINE",
"279 420 LINE",
"50 420 LINE"
);
}
);
width = 650;
}
);
leftKerningGroup = I;
leftMetricsKey = I;
note = E;
rightKerningGroup = E;
unicode = 0045;
},
{
color = 4;
glyphname = F;
lastChange = "2024-02-07 00:59:52 +0000";
layers = (
{
anchors = (
{
name = _top;
position = "{341, 840}";
},
{
name = bottom;
position = "{341, 0}";
},
{
name = bottomright;
position = "{663, 0}";
},
{
name = top;
position = "{341, 840}";
}
);
components = (
{
name = Gamma;
}
);
layerId = "BADE114B-EA49-45B4-AE36-72A7CEB6E1BE";
paths = (
{
closed = 1;
nodes = (
"536 308 LINE",
"540 335 OFFCURVE",
"542 366 OFFCURVE",
"542 401 CURVE SMOOTH",
"542 426 OFFCURVE",
"540 457 OFFCURVE",
"536 492 CURVE",
"288 487 LINE",
"288 311 LINE"
);
}
);
width = 650;
}
);
leftKerningGroup = I;
leftMetricsKey = I;
note = F;
rightKerningGroup = F;
unicode = 0046;
},
{
color = 4;
glyphname = G;
lastChange = "2024-02-07 00:38:09 +0000";
layers = (
{
anchors = (
{
name = bottom;
position = "{408, 0}";
},
{
name = top;
position = "{400, 840}";
}
);
background = {
paths = (
{
closed = 1;
nodes = (
"50 104 OFFCURVE",
"168 -10 OFFCURVE",
"400 -10 CURVE SMOOTH",
"632 -10 OFFCURVE",
"750 104 OFFCURVE",
"750 420 CURVE SMOOTH",
"750 736 OFFCURVE",
"632 850 OFFCURVE",
"400 850 CURVE SMOOTH",
"168 850 OFFCURVE",
"50 736 OFFCURVE",
"50 420 CURVE SMOOTH"
);
},
{
closed = 1;
nodes = (
"284 509 OFFCURVE",
"298 664 OFFCURVE",
"400 664 CURVE SMOOTH",
"502 664 OFFCURVE",
"516 509 OFFCURVE",
"516 420 CURVE SMOOTH",
"516 331 OFFCURVE",
"502 176 OFFCURVE",
"400 176 CURVE SMOOTH",
"298 176 OFFCURVE",
"284 331 OFFCURVE",
"284 420 CURVE SMOOTH"
);
}
);
};
layerId = "BADE114B-EA49-45B4-AE36-72A7CEB6E1BE";
paths = (
{
closed = 1;
nodes = (
"543 -10 OFFCURVE",
"636 23 OFFCURVE",
"712 85 CURVE",
"725 184 OFFCURVE",
"734 286 OFFCURVE",
"741 422 CURVE",
"445 446 LINE",
"435 312 LINE",
"493 308 OFFCURVE",
"520 288 OFFCURVE",
"520 249 CURVE SMOOTH",
"520 199 OFFCURVE",
"490 176 OFFCURVE",
"425 176 CURVE SMOOTH",
"332 176 OFFCURVE",
"284 260 OFFCURVE",
"284 420 CURVE SMOOTH",
"284 580 OFFCURVE",
"323 664 OFFCURVE",
"397 664 CURVE SMOOTH",
"450 664 OFFCURVE",
"489 612 OFFCURVE",
"502 524 CURVE",
"629 522 OFFCURVE",
"662 532 OFFCURVE",
"741 552 CURVE",
"712 764 OFFCURVE",
"601 850 OFFCURVE",
"400 850 CURVE SMOOTH",
"172 850 OFFCURVE",
"50 741 OFFCURVE",
"50 420 CURVE SMOOTH",
"50 113 OFFCURVE",
"162 -10 OFFCURVE",
"441 -10 CURVE SMOOTH"
);
}
);
width = 791;
}
);
leftKerningGroup = O;
leftMetricsKey = O;
rightKerningGroup = O;
unicode = 0047;
},
{
color = 4;
glyphname = H;
lastChange = "2024-02-07 10:00:03 +0000";
layers = (
{
anchors = (
{
name = bottom;
position = "{377, 0}";
},
{
name = center;
position = "{377, 420}";
},
{
name = top;
position = "{377, 840}";
},
{
name = topleft;
position = "{-1, 840}";
}
);
layerId = "BADE114B-EA49-45B4-AE36-72A7CEB6E1BE";
paths = (
{
closed = 1;
nodes = (
"469 309 LINE",
"469 513 LINE",
"284 513 LINE",
"284 309 LINE"
);
},
{
closed = 1;
nodes = (
"250 0 OFFCURVE",
"284 18 OFFCURVE",
"284 18 CURVE",
"284 822 LINE",
"284 822 OFFCURVE",
"250 840 OFFCURVE",
"170 840 CURVE SMOOTH",
"90 840 OFFCURVE",
"58 822 OFFCURVE",
"58 822 CURVE SMOOTH",
"58 822 OFFCURVE",
"50 660 OFFCURVE",
"50 420 CURVE SMOOTH",
"50 180 OFFCURVE",
"58 18 OFFCURVE",
"58 18 CURVE SMOOTH",
"58 18 OFFCURVE",
"90 0 OFFCURVE",
"170 0 CURVE SMOOTH"
);
},
{
closed = 1;
nodes = (
"663 0 OFFCURVE",
"695 18 OFFCURVE",
"695 18 CURVE SMOOTH",
"695 18 OFFCURVE",
"703 180 OFFCURVE",
"703 420 CURVE SMOOTH",
"703 660 OFFCURVE",
"695 822 OFFCURVE",
"695 822 CURVE SMOOTH",
"695 822 OFFCURVE",
"663 840 OFFCURVE",
"583 840 CURVE SMOOTH",
"503 840 OFFCURVE",
"469 822 OFFCURVE",
"469 822 CURVE",
"469 18 LINE",
"469 18 OFFCURVE",
"503 0 OFFCURVE",
"583 0 CURVE SMOOTH"
);
}
);
width = 753;
}
);
leftKerningGroup = I;
leftMetricsKey = I;
note = H;
rightKerningGroup = I;
rightMetricsKey = I;
unicode = 0048;
},
{
color = 4;
glyphname = Hbar;
lastChange = "2024-02-03 23:59:03 +0000";
layers = (
{
components = (
{
name = H;
transform = "{1, 0, 0, 1, 54, 0}";
}
);
layerId = "BADE114B-EA49-45B4-AE36-72A7CEB6E1BE";
paths = (
{
closed = 1;
nodes = (
"810 609 LINE",
"810 709 LINE",
"50 709 LINE",
"50 609 LINE"
);
}
);
width = 860;
}
);
leftKerningGroup = I;
rightKerningGroup = I;
unicode = 0126;
},
{
color = 4;
glyphname = I;
lastChange = "2024-02-07 00:55:41 +0000";
layers = (
{
anchors = (
{
name = bottom;
position = "{170, 0}";
},
{
name = ogonek;
position = "{170, 0}";
},
{
name = top;
position = "{170, 840}";
},
{
name = topleft;
position = "{23, 840}";
}
);
layerId = "BADE114B-EA49-45B4-AE36-72A7CEB6E1BE";
paths = (
{
closed = 1;
nodes = (
"170 420 LINE",
"170 840 LINE",
"82 840 OFFCURVE",
"56 823 OFFCURVE",
"56 823 CURVE",
"55 823 OFFCURVE",
"50 589 OFFCURVE",
"50 420 CURVE"
);
},
{
closed = 1;
nodes = (
"289 589 OFFCURVE",
"284 823 OFFCURVE",
"283 823 CURVE",
"283 823 OFFCURVE",
"257 840 OFFCURVE",
"170 840 CURVE",
"170 420 LINE",
"289 420 LINE"
);
},
{
closed = 1;
nodes = (
"50 251 OFFCURVE",
"55 17 OFFCURVE",
"56 17 CURVE",
"56 17 OFFCURVE",
"82 0 OFFCURVE",
"170 0 CURVE",
"170 420 LINE",
"50 420 LINE"
);
},
{
closed = 1;
nodes = (
"170 420 LINE",
"170 0 LINE",
"257 0 OFFCURVE",
"283 17 OFFCURVE",
"283 17 CURVE",
"284 17 OFFCURVE",
"289 251 OFFCURVE",
"289 420 CURVE"
);
}
);
width = 339;
}
);
leftKerningGroup = I;
note = I;
rightKerningGroup = I;
unicode = 0049;
},
{
color = 4;
glyphname = J;
lastChange = "2024-02-09 10:35:11 +0000";
layers = (
{
anchors = (
{
name = bottom;
position = "{374, 0}";
},
{
name = top;
position = "{575, 840}";
}
);
layerId = "BADE114B-EA49-45B4-AE36-72A7CEB6E1BE";
paths = (
{
closed = 1;
nodes = (
"379 193 LINE",
"324 193 OFFCURVE",
"287 229 OFFCURVE",
"287 289 CURVE SMOOTH",
"287 370 LINE",
"287 370 OFFCURVE",
"242 386 OFFCURVE",
"164 386 CURVE SMOOTH",
"93 386 OFFCURVE",
"50 370 OFFCURVE",
"50 370 CURVE",
"50 320 LINE SMOOTH",
"50 103 OFFCURVE",
"155 -10 OFFCURVE",
"374 -10 CURVE"
);
},
{
closed = 1;
nodes = (
"593 -10 OFFCURVE",
"708 114 OFFCURVE",
"708 351 CURVE SMOOTH",
"708 824 LINE",
"708 824 OFFCURVE",
"664 840 OFFCURVE",
"583 840 CURVE SMOOTH",
"505 840 OFFCURVE",
"469 824 OFFCURVE",
"469 824 CURVE",
"469 317 LINE SMOOTH",
"469 232 OFFCURVE",
"444 193 OFFCURVE",
"379 193 CURVE",
"374 -10 LINE"
);
}
);
width = 763;
}
);
leftKerningGroup = J;
note = J;
rightKerningGroup = J;
unicode = 004A;
},
{
color = 4;
glyphname = K;
lastChange = "2024-02-05 00:53:39 +0000";
layers = (
{
anchors = (
{
name = bottom;
position = "{359, 0}";
},
{
name = top;
position = "{359, 840}";
}
);
layerId = "BADE114B-EA49-45B4-AE36-72A7CEB6E1BE";
paths = (
{
closed = 1;
nodes = (
"663 1 OFFCURVE {stroke = {w = \"1\";};}",
"704 36 OFFCURVE {stroke = {w = \"1\";};}",
"704 36 CURVE {stroke = {w = \"1\";};}",
"523 420 LINE",
"274 420 LINE {stroke = {w = \"1\";};}",
"314 375 LINE {stroke = {w = \"1\";};}",
"472 19 LINE {stroke = {w = \"1\";};}",
"472 19 OFFCURVE {stroke = {w = \"1\";};}",
"496 0 OFFCURVE {stroke = {w = \"1\";};}",
"576 1 CURVE {stroke = {w = \"1\";};}"
);
},
{
closed = 1;
nodes = (
"523 420 LINE",
"704 805 LINE {stroke = {w = \"1\";};}",
"704 805 OFFCURVE {stroke = {w = \"1\";};}",
"663 840 OFFCURVE {stroke = {w = \"1\";};}",
"576 840 CURVE {stroke = {w = \"1\";};}",
"496 840 OFFCURVE {stroke = {w = \"1\";};}",
"472 822 OFFCURVE {stroke = {w = \"1\";};}",
"472 822 CURVE {stroke = {w = \"1\";};}",
"314 465 LINE {stroke = {w = \"1\";};}",
"274 420 LINE {stroke = {w = \"1\";};}"
);
},
{
closed = 1;
nodes = (
"170 420 LINE",
"50 420 LINE",
"50 180 OFFCURVE",
"58 18 OFFCURVE",
"58 18 CURVE",
"58 18 OFFCURVE",
"90 0 OFFCURVE",
"170 0 CURVE"
);
},
{
closed = 1;
nodes = (
"250 0 OFFCURVE",
"284 18 OFFCURVE",
"284 18 CURVE",
"284 420 LINE",
"170 420 LINE",
"170 0 LINE"
);
},
{
closed = 1;
nodes = (
"170 420 LINE",
"170 840 LINE",
"90 840 OFFCURVE",
"58 822 OFFCURVE",
"58 822 CURVE",
"58 822 OFFCURVE",
"50 660 OFFCURVE",
"50 420 CURVE"
);
},
{
closed = 1;
nodes = (
"284 420 LINE {stroke = {w = \"1\";};}",
"284 822 LINE",
"284 822 OFFCURVE",
"250 840 OFFCURVE",
"170 840 CURVE",
"170 420 LINE"
);
},
{
closed = 1;
nodes = (
"284 327 LINE {stroke = {w = \"1\";};}",
"367 327 LINE",
"367 513 LINE",
"284 513 LINE"
);
}
);
width = 729;
}
);
leftKerningGroup = I;
leftMetricsKey = I;
note = K;
rightKerningGroup = K;
unicode = 004B;
},
{
color = 4;
glyphname = L;
lastChange = "2024-02-08 03:31:59 +0000";
layers = (
{
anchors = (
{
name = bottom;
position = "{344, 1}";
},
{
name = center;
position = "{183, 420}";
},
{
name = top;
position = "{170, 840}";
},
{
name = topright;
position = "{512, 840}";
}
);
layerId = "BADE114B-EA49-45B4-AE36-72A7CEB6E1BE";
paths = (
{
closed = 1;
nodes = (
"279 420 LINE",
"279 566 OFFCURVE",
"283 728 OFFCURVE",
"289 825 CURVE",
"289 825 OFFCURVE",
"245 840 OFFCURVE",
"170 840 CURVE SMOOTH",
"99 840 OFFCURVE",
"57 825 OFFCURVE",
"57 825 CURVE SMOOTH",
"57 825 OFFCURVE",
"50 724 OFFCURVE",
"50 420 CURVE"
);
},
{
closed = 1;
nodes = (
"435 -1 OFFCURVE",
"494 0 OFFCURVE",
"604 13 CURVE",
"608 62 OFFCURVE",
"610 89 OFFCURVE",
"610 188 CURVE",
"517 180 OFFCURVE",
"423 179 OFFCURVE",
"279 180 CURVE",
"288 0 LINE"
);
},
{
closed = 1;
nodes = (
"50 176 OFFCURVE",
"58 19 OFFCURVE",
"58 18 CURVE",
"58 18 OFFCURVE",
"128 0 OFFCURVE",
"288 0 CURVE",
"279 180 LINE",
"279 331 LINE",
"279 420 LINE",
"50 420 LINE"
);
}
);
width = 640;
}
);
leftKerningGroup = I;
leftMetricsKey = I;
note = L;
rightKerningGroup = L;
unicode = 004C;
},
{
color = 4;
glyphname = Lslash;
lastChange = "2024-02-04 00:00:29 +0000";
layers = (
{
components = (
{
name = L;
transform = "{1, 0, 0, 1, 68, 0}";
}
);
layerId = "BADE114B-EA49-45B4-AE36-72A7CEB6E1BE";
paths = (
{
closed = 1;
nodes = (
"161 335 LINE",
"326 354 LINE",
"590 401 LINE",
"590 575 LINE",
"325 528 LINE",
"160 509 LINE",
"50 489 LINE",
"50 315 LINE"
);
}
);
width = 728;
}
);
leftKerningGroup = I;
rightKerningGroup = L;
unicode = 0141;
},
{
color = 4;
glyphname = M;
lastChange = "2024-02-07 04:49:44 +0000";
layers = (
{
anchors = (
{
name = _top;
position = "{448, 840}";
},
{
name = bottom;
position = "{448, 0}";
},
{
name = top;
position = "{448, 840}";
}
);
layerId = "BADE114B-EA49-45B4-AE36-72A7CEB6E1BE";
paths = (
{
closed = 1;
nodes = (
"254 510 LINE",
"264 513 LINE",
"340 307 LINE",
"378 214 LINE",
"378 214 OFFCURVE",
"399 204 OFFCURVE",
"448 204 CURVE",
"448 559 LINE",
"335 828 LINE"
);
},
{
closed = 1;
nodes = (
"170 420 LINE",
"50 420 LINE",
"50 180 OFFCURVE",
"58 18 OFFCURVE",
"58 18 CURVE",
"58 18 OFFCURVE",
"90 0 OFFCURVE",
"170 0 CURVE"
);
},
{
closed = 1;
nodes = (
"250 0 OFFCURVE",
"284 18 OFFCURVE",
"284 18 CURVE",
"284 348 LINE",
"254 510 LINE",
"170 420 LINE",
"170 0 LINE"
);
},
{
closed = 1;
nodes = (
"170 420 LINE",
"202 840 LINE",
"116 840 OFFCURVE",
"58 822 OFFCURVE",
"58 822 CURVE",
"58 822 OFFCURVE",
"50 660 OFFCURVE",
"50 420 CURVE"
);
},
{
closed = 1;
nodes = (
"254 510 LINE",
"335 828 LINE",
"335 828 OFFCURVE",
"288 840 OFFCURVE",
"202 840 CURVE",
"170 420 LINE"
);
},
{
closed = 1;
nodes = (
"806 0 OFFCURVE",
"838 18 OFFCURVE",
"838 18 CURVE",
"838 18 OFFCURVE",
"846 180 OFFCURVE",
"846 420 CURVE",
"726 420 LINE",
"726 0 LINE"
);
},
{
closed = 1;
nodes = (
"726 420 LINE",
"642 510 LINE",
"612 348 LINE",
"612 18 LINE",
"612 18 OFFCURVE",
"646 0 OFFCURVE",
"726 0 CURVE"
);
},
{
closed = 1;
nodes = (
"846 660 OFFCURVE",
"838 822 OFFCURVE",
"838 822 CURVE",
"838 822 OFFCURVE",
"780 840 OFFCURVE",
"694 840 CURVE",
"726 420 LINE",
"846 420 LINE"
);
},
{
closed = 1;
nodes = (
"694 840 LINE",
"608 840 OFFCURVE",
"561 828 OFFCURVE",
"561 828 CURVE",
"642 510 LINE",
"726 420 LINE"
);
},
{
closed = 1;
nodes = (
"448 559 LINE",
"448 204 LINE",
"497 204 OFFCURVE",
"518 214 OFFCURVE",
"518 214 CURVE",
"556 307 LINE",
"632 513 LINE",
"642 510 LINE",
"561 828 LINE"
);
}
);
width = 896;
}
);
leftKerningGroup = I;
leftMetricsKey = I;
note = M;
rightKerningGroup = I;
rightMetricsKey = I;
unicode = 004D;
},
{
color = 4;
glyphname = N;
lastChange = "2024-02-07 01:04:21 +0000";
layers = (
{
anchors = (
{
name = bottom;
position = "{392, 0}";
},
{
name = top;
position = "{392, 840}";
}
);
layerId = "BADE114B-EA49-45B4-AE36-72A7CEB6E1BE";
paths = (
{
closed = 1;
nodes = (
"172 420 LINE",
"50 420 LINE",
"50 180 OFFCURVE",
"59 22 OFFCURVE",
"59 22 CURVE",
"59 22 OFFCURVE",
"94 0 OFFCURVE",
"172 0 CURVE"
);
},
{
closed = 1;
nodes = (
"172 420 LINE",
"183 840 LINE",
"97 840 OFFCURVE",
"59 818 OFFCURVE",
"59 818 CURVE",
"59 818 OFFCURVE",
"50 660 OFFCURVE",
"50 420 CURVE"
);
},
{
closed = 1;
nodes = (
"734 420 LINE",
"734 660 OFFCURVE",
"725 818 OFFCURVE",
"725 818 CURVE",
"725 818 OFFCURVE",
"690 840 OFFCURVE",
"612 840 CURVE",
"612 420 LINE"
);
},
{
closed = 1;
nodes = (
"172 420 LINE",
"276 432 LINE",
"298 820 LINE",
"298 820 OFFCURVE",
"261 840 OFFCURVE",
"183 840 CURVE"
);
},
{
closed = 1;
nodes = (
"276 432 LINE",
"172 420 LINE",
"172 0 LINE",
"251 0 OFFCURVE",
"284 22 OFFCURVE",
"284 22 CURVE",
"284 298 LINE",
"267 427 LINE"
);
},
{
closed = 1;
nodes = (
"612 420 LINE",
"601 0 LINE",
"687 0 OFFCURVE",
"725 22 OFFCURVE",
"725 22 CURVE",
"725 22 OFFCURVE",
"734 180 OFFCURVE",
"734 420 CURVE"
);
},
{
closed = 1;
nodes = (
"612 420 LINE",
"508 408 LINE",
"486 20 LINE",
"486 20 OFFCURVE",
"523 0 OFFCURVE",
"601 0 CURVE"
);
},
{
closed = 1;
nodes = (
"508 408 LINE",
"612 420 LINE",
"612 840 LINE",
"533 840 OFFCURVE",
"500 818 OFFCURVE",
"500 818 CURVE",
"500 542 LINE",
"517 413 LINE"
);
},
{
closed = 1;
nodes = (
"508 408 LINE",
"298 820 LINE",
"276 432 LINE",
"486 20 LINE"
);
}
);
width = 784;
}
);
leftKerningGroup = I;
leftMetricsKey = I;
note = N;
rightKerningGroup = I;
rightMetricsKey = I;
unicode = 004E;
},
{
color = 4;
glyphname = Eng;
lastChange = "2024-02-07 01:44:28 +0000";
layers = (
{
layerId = "BADE114B-EA49-45B4-AE36-72A7CEB6E1BE";
paths = (
{
closed = 1;
nodes = (
"172 420 LINE",
"50 420 LINE",
"50 180 OFFCURVE",
"59 22 OFFCURVE",
"59 22 CURVE",
"59 22 OFFCURVE",
"94 0 OFFCURVE",
"172 0 CURVE"
);
},
{
closed = 1;
nodes = (
"172 420 LINE",
"183 840 LINE",
"97 840 OFFCURVE",
"59 818 OFFCURVE",
"59 818 CURVE",
"59 818 OFFCURVE",
"50 660 OFFCURVE",
"50 420 CURVE"
);
},
{
closed = 1;
nodes = (
"734 420 LINE",
"734 660 OFFCURVE",
"725 818 OFFCURVE",
"725 818 CURVE",
"725 818 OFFCURVE",
"690 840 OFFCURVE",
"612 840 CURVE",
"612 420 LINE"
);
},
{
closed = 1;
nodes = (
"612 420 LINE",
"609 190 LINE",
"734 190 LINE",
"734 420 LINE"
);
},
{
closed = 1;
nodes = (
"654 -270 OFFCURVE",
"734 -178 OFFCURVE",
"734 24 CURVE SMOOTH",
"734 190 LINE",
"500 190 LINE",
"500 46 LINE SMOOTH",
"500 -39 OFFCURVE",
"475 -69 OFFCURVE",
"402 -69 CURVE SMOOTH",
"372 -69 OFFCURVE",
"331 -60 OFFCURVE",
"292 -44 CURVE",
"309 -231 LINE",
"347 -256 OFFCURVE",
"411 -270 OFFCURVE",
"469 -270 CURVE SMOOTH"
);
},
{
closed = 1;
nodes = (
"172 420 LINE",
"276 432 LINE",
"298 820 LINE",
"298 820 OFFCURVE",
"261 840 OFFCURVE",
"183 840 CURVE"
);
},
{
closed = 1;
nodes = (
"276 432 LINE",
"172 420 LINE",
"172 0 LINE",
"251 0 OFFCURVE",
"284 22 OFFCURVE",
"284 22 CURVE",
"284 298 LINE",
"267 427 LINE"
);
},
{
closed = 1;
nodes = (
"612 420 LINE",
"508 478 LINE",
"500 190 LINE",
"609 190 LINE"
);
},
{
closed = 1;
nodes = (
"508 478 LINE",
"612 420 LINE",
"612 840 LINE",
"533 840 OFFCURVE",
"500 818 OFFCURVE",
"500 818 CURVE",
"500 612 LINE",
"517 483 LINE"
);
},
{
closed = 1;
nodes = (
"508 478 LINE",
"298 820 LINE",
"276 432 LINE",
"500 63 LINE"
);
}
);
width = 784;
}
);
leftKerningGroup = I;
rightKerningGroup = Mark_below;
unicode = 014A;
},
{
color = 4;
glyphname = O;
lastChange = "2024-02-09 10:31:25 +0000";
layers = (
{
anchors = (
{
name = bottom;
position = "{400, 0}";
},
{
name = center;
position = "{400, 420}";
},
{
name = e;
position = "{633, 420}";
},
{
name = horn;
position = "{542, 791}";
},
{
name = ogonek;
position = "{400, 0}";
},
{
name = top;
position = "{400, 840}";
},
{
name = topleft;
position = "{25, 840}";
},
{
name = topright;
position = "{775, 840}";
}
);
layerId = "BADE114B-EA49-45B4-AE36-72A7CEB6E1BE";
paths = (
{
closed = 1;
nodes = (
"50 78 OFFCURVE",
"198 -10 OFFCURVE",
"400 -10 CURVE SMOOTH",
"602 -10 OFFCURVE",
"750 78 OFFCURVE",
"750 420 CURVE SMOOTH",
"750 762 OFFCURVE",
"602 850 OFFCURVE",
"400 850 CURVE SMOOTH",
"198 850 OFFCURVE",
"50 762 OFFCURVE",
"50 420 CURVE SMOOTH"
);
},
{
closed = 1;
nodes = (
"284 608 OFFCURVE",
"332 664 OFFCURVE",
"400 664 CURVE SMOOTH",
"468 664 OFFCURVE",
"516 608 OFFCURVE",
"516 420 CURVE SMOOTH",
"516 232 OFFCURVE",
"468 176 OFFCURVE",
"400 176 CURVE SMOOTH",
"332 176 OFFCURVE",
"284 232 OFFCURVE",
"284 420 CURVE SMOOTH"
);
}
);
width = 800;
}
);
leftKerningGroup = O;
note = O;
rightKerningGroup = O;
unicode = 004F;
},
{
color = 4;
glyphname = Ohorn;
lastChange = "2024-02-04 00:12:34 +0000";
layers = (
{
anchors = (
{
name = _horn;
position = "{537, 791}";
}
);
components = (
{
name = O;
}
);
layerId = "BADE114B-EA49-45B4-AE36-72A7CEB6E1BE";
paths = (
{
closed = 1;
nodes = (
"537 668 LINE",
"663 668 LINE SMOOTH",
"779 668 OFFCURVE",
"826 754 OFFCURVE",
"824 861 CURVE",
"824 915 LINE SMOOTH",
"824 924 OFFCURVE",
"818 930 OFFCURVE",
"809 930 CURVE SMOOTH",
"628 930 LINE SMOOTH",
"619 930 OFFCURVE",
"613 924 OFFCURVE",
"613 915 CURVE SMOOTH",
"613 883 LINE SMOOTH",
"613 821 OFFCURVE",
"588 791 OFFCURVE",
"537 791 CURVE"
);
}
);
width = 874;
}
);
leftKerningGroup = O;
rightKerningGroup = Horn;
unicode = 01A0;
},
{
color = 4;
glyphname = Oslash;
lastChange = "2024-02-04 00:02:24 +0000";
layers = (
{
anchors = (
{
name = bottom;
position = "{421, 0}";
},
{
name = top;
position = "{421, 840}";
}
);
components = (
{
name = O;
transform = "{1, 0, 0, 1, 26, 0}";
}
);
layerId = "BADE114B-EA49-45B4-AE36-72A7CEB6E1BE";
paths = (
{
closed = 1;
nodes = (
"792 756 LINE",
"757 791 LINE",
"50 84 LINE",
"85 49 LINE"
);
}
);
width = 842;
}
);
leftKerningGroup = O;
rightKerningGroup = O;
unicode = 00D8;
},
{
color = 4;
glyphname = OE;
lastChange = "2024-02-10 02:00:51 +0000";
layers = (
{
layerId = "BADE114B-EA49-45B4-AE36-72A7CEB6E1BE";
paths = (
{
closed = 1;
nodes = (
"871 328 LINE",
"875 355 OFFCURVE",
"877 386 OFFCURVE",
"877 421 CURVE SMOOTH",
"877 446 OFFCURVE",
"875 477 OFFCURVE",
"871 512 CURVE",
"675 507 LINE",
"675 331 LINE"
);
},
{
closed = 1;
nodes = (
"675 638 LINE",
"819 639 OFFCURVE",
"913 638 OFFCURVE",
"1006 630 CURVE",
"1006 729 OFFCURVE",
"1004 778 OFFCURVE",
"1000 827 CURVE",
"890 840 OFFCURVE",
"831 841 OFFCURVE",
"684 840 CURVE"
);
},
{
closed = 1;
nodes = (
"831 -1 OFFCURVE",
"890 0 OFFCURVE",
"1000 13 CURVE",
"1004 62 OFFCURVE",
"1006 89 OFFCURVE",
"1006 188 CURVE",
"913 180 OFFCURVE",
"819 179 OFFCURVE",
"675 180 CURVE",
"684 0 LINE"
);
},
{
closed = 1;
nodes = (
"675 420 LINE",
"675 509 LINE",
"675 638 LINE",
"684 840 LINE",
"467 840 LINE",
"467 420 LINE"
);
},
{
closed = 1;
nodes = (
"467 0 LINE",
"467 0 OFFCURVE",
"524 0 OFFCURVE",
"684 0 CURVE",
"675 180 LINE",
"675 331 LINE",
"675 420 LINE",
"467 420 LINE"
);
},
{
closed = 1;
nodes = (
"50 88 OFFCURVE",
"198 0 OFFCURVE",
"410 0 CURVE SMOOTH",
"467 0 LINE",
"467 180 LINE",
"435 180 LINE SMOOTH",
"346 180 OFFCURVE",
"284 236 OFFCURVE",
"284 420 CURVE SMOOTH",
"284 582 OFFCURVE",
"346 638 OFFCURVE",
"435 638 CURVE SMOOTH",
"467 638 LINE",
"467 840 LINE",
"410 840 LINE SMOOTH",
"198 840 OFFCURVE",
"50 752 OFFCURVE",
"50 420 CURVE SMOOTH"
);
}
);
width = 1046;
}
);
leftKerningGroup = O;
leftMetricsKey = O;
rightKerningGroup = E;
rightMetricsKey = E;
unicode = 0152;
},
{
color = 4;
glyphname = P;
lastChange = "2024-02-03 14:01:19 +0000";
layers = (
{
anchors = (
{
name = bottom;
position = "{354, 0}";
},
{
name = top;
position = "{354, 840}";
}
);
background = {
paths = (
{
closed = 1;
nodes = (
"541 282 OFFCURVE",
"659 373 OFFCURVE",
"659 571 CURVE",
"425 571 LINE",
"426 508 OFFCURVE",
"395 482 OFFCURVE",
"327 482 CURVE SMOOTH",
"275 482 LINE",
"275 282 LINE"
);
},
{
closed = 1;
nodes = (
"275 660 LINE",
"327 660 LINE SMOOTH",
"395 660 OFFCURVE",
"426 634 OFFCURVE",
"425 571 CURVE",
"659 571 LINE",
"659 769 OFFCURVE",
"541 860 OFFCURVE",
"275 860 CURVE"
);
}
);
};
layerId = "BADE114B-EA49-45B4-AE36-72A7CEB6E1BE";
paths = (
{
closed = 1;
nodes = (
"540 287 OFFCURVE",
"658 378 OFFCURVE",
"658 576 CURVE SMOOTH",
"658 765 OFFCURVE",
"547 851 OFFCURVE",
"304 850 CURVE",
"274 651 LINE",
"326 651 LINE SMOOTH",
"393 651 OFFCURVE",
"424 626 OFFCURVE",
"424 570 CURVE SMOOTH",
"425 513 OFFCURVE",
"394 487 OFFCURVE",
"326 487 CURVE SMOOTH",
"274 487 LINE",
"284 287 LINE"
);
},
{
closed = 1;
nodes = (
"284 420 LINE",
"274 487 LINE",
"274 651 LINE",
"304 850 LINE",
"128 850 OFFCURVE",
"58 832 OFFCURVE",
"58 832 CURVE",
"58 832 OFFCURVE",
"50 665 OFFCURVE",
"50 420 CURVE"
);
},
{
closed = 1;
nodes = (
"245 0 OFFCURVE",
"284 18 OFFCURVE",
"284 18 CURVE",
"284 420 LINE",
"50 420 LINE",
"50 185 OFFCURVE",
"54 18 OFFCURVE",
"54 18 CURVE SMOOTH",
"54 18 OFFCURVE",
"89 0 OFFCURVE",
"167 0 CURVE SMOOTH"
);
}
);
width = 708;
}
);
leftKerningGroup = I;
leftMetricsKey = I;
note = P;
rightKerningGroup = P;
unicode = 0050;
},
{
color = 4;
glyphname = Thorn;
lastChange = "2024-02-04 00:03:22 +0000";
layers = (
{
anchors = (
{
name = bottom;
position = "{342, 0}";
},
{
name = top;
position = "{342, 840}";
}
);
background = {
paths = (
{
closed = 1;
nodes = (
"671 420 LINE",
"671 659 OFFCURVE",
"553 745 OFFCURVE",
"321 745 CURVE SMOOTH",
"284 745 LINE",
"284 574 LINE",
"387 574 OFFCURVE",
"406 515 OFFCURVE",
"406 420 CURVE"
);
},
{
closed = 1;
nodes = (
"321 95 LINE SMOOTH",
"553 95 OFFCURVE",
"671 181 OFFCURVE",
"671 420 CURVE",
"406 420 LINE",
"406 325 OFFCURVE",
"387 266 OFFCURVE",
"284 266 CURVE",
"284 95 LINE"
);
}
);
};
layerId = "BADE114B-EA49-45B4-AE36-72A7CEB6E1BE";
paths = (
{
closed = 0;
nodes = (
"284 22 LINE"
);
},
{
closed = 1;
nodes = (
"89 840 OFFCURVE",
"54 822 OFFCURVE",
"54 822 CURVE SMOOTH",
"54 822 OFFCURVE",
"50 655 OFFCURVE",
"50 420 CURVE",
"278 420 LINE",
"278 522 LINE",
"284 725 LINE",
"284 822 LINE",
"284 822 OFFCURVE",
"245 840 OFFCURVE",
"167 840 CURVE SMOOTH"
);
},
{
closed = 1;
nodes = (
"278 522 LINE",
"330 522 LINE SMOOTH",
"406 522 OFFCURVE",
"445 487 OFFCURVE",
"444 420 CURVE",
"668 420 LINE",
"668 629 OFFCURVE",
"547 725 OFFCURVE",
"284 725 CURVE"
);
},
{
closed = 1;
nodes = (
"245 0 OFFCURVE",
"284 18 OFFCURVE",
"284 18 CURVE",
"284 115 LINE",
"278 318 LINE",
"278 420 LINE",
"50 420 LINE",
"50 185 OFFCURVE",
"54 18 OFFCURVE",
"54 18 CURVE SMOOTH",
"54 18 OFFCURVE",
"89 0 OFFCURVE",
"167 0 CURVE SMOOTH"
);
},
{
closed = 1;
nodes = (
"547 115 OFFCURVE",
"668 211 OFFCURVE",
"668 420 CURVE",
"444 420 LINE",
"445 353 OFFCURVE",
"406 318 OFFCURVE",
"330 318 CURVE SMOOTH",
"278 318 LINE",
"284 115 LINE"
);
}
);
width = 718;
}
);
leftKerningGroup = I;
rightKerningGroup = O;
unicode = 00DE;
},
{
color = 4;
glyphname = Q;
lastChange = "2024-02-04 00:03:35 +0000";
layers = (
{
anchors = (
{
name = _top;
position = "{395, 840}";
},
{
name = bottom;
position = "{402, 0}";
},
{
name = top;
position = "{402, 840}";
}
);
components = (
{
name = O;
}
);
layerId = "BADE114B-EA49-45B4-AE36-72A7CEB6E1BE";
paths = (
{
closed = 1;
nodes = (
"626 -81 OFFCURVE",
"656 -73 OFFCURVE",
"704 -26 CURVE SMOOTH",
"751 21 OFFCURVE",
"758 51 OFFCURVE",
"758 51 CURVE SMOOTH",
"758 51 OFFCURVE",
"729 76 OFFCURVE",
"684 124 CURVE",
"524 5 LINE",
"583 -42 OFFCURVE",
"626 -81 OFFCURVE",
"626 -81 CURVE SMOOTH"
);
}
);
width = 800;
}
);
leftKerningGroup = O;
leftMetricsKey = O;
note = Q;
rightKerningGroup = O;
rightMetricsKey = O;
unicode = 0051;
},
{
color = 4;
glyphname = R;
lastChange = "2024-02-04 04:57:08 +0000";
layers = (
{
anchors = (
{
name = bottom;
position = "{359, 0}";
},
{
name = top;
position = "{372, 840}";
}
);
components = (
{
name = P;
transform = "{1, 0, 0, 1, 5, 0}";
}
);
layerId = "BADE114B-EA49-45B4-AE36-72A7CEB6E1BE";
paths = (
{
closed = 1;
nodes = (
"666 0 OFFCURVE {stroke = {w = \"1\";};}",
"713 35 OFFCURVE {stroke = {w = \"1\";};}",
"713 35 CURVE {stroke = {w = \"1\";};}",
"574 382 LINE",
"382 298 LINE {stroke = {w = \"1\";};}",
"478 18 LINE {stroke = {w = \"1\";};}",
"478 18 OFFCURVE {stroke = {w = \"1\";};}",
"516 0 OFFCURVE {stroke = {w = \"1\";};}",
"579 0 CURVE {stroke = {w = \"1\";};}"
);
}
);
width = 738;
}
);
leftKerningGroup = I;
leftMetricsKey = I;
note = R;
rightKerningGroup = R;
unicode = 0052;
},
{
color = 4;
glyphname = S;
lastChange = "2024-02-09 10:37:35 +0000";
layers = (
{
anchors = (
{
name = bottom;
position = "{380, 0}";
},
{
name = top;
position = "{385, 840}";
}
);
layerId = "BADE114B-EA49-45B4-AE36-72A7CEB6E1BE";
paths = (
{
closed = 1;
nodes = (
"581 -10 OFFCURVE",
"701 84 OFFCURVE",
"701 242 CURVE SMOOTH",
"701 527 OFFCURVE",
"310 458 OFFCURVE",
"310 586 CURVE SMOOTH",
"310 623 OFFCURVE",
"337 643 OFFCURVE",
"388 644 CURVE SMOOTH",
"455 645 OFFCURVE",
"534 624 OFFCURVE",
"599 588 CURVE",
"661 773 LINE",
"575 826 OFFCURVE",
"489 851 OFFCURVE",
"388 851 CURVE SMOOTH",
"180 851 OFFCURVE",
"71 765 OFFCURVE",
"71 600 CURVE SMOOTH",
"71 290 OFFCURVE",
"462 351 OFFCURVE",
"462 249 CURVE SMOOTH",
"462 218 OFFCURVE",
"435 200 OFFCURVE",
"388 200 CURVE SMOOTH",
"315 200 OFFCURVE",
"222 228 OFFCURVE",
"156 271 CURVE",
"50 89 LINE",
"137 24 OFFCURVE",
"250 -10 OFFCURVE",
"378 -10 CURVE SMOOTH"
);
}
);
width = 751;
}
);
leftKerningGroup = S;
note = S;
rightKerningGroup = S;
unicode = 0053;
},
{
color = 4;
glyphname = Germandbls;
lastChange = "2024-02-04 00:09:00 +0000";
layers = (
{
anchors = (
{
name = bottom;
position = "{385, 0}";
},
{
name = top;
position = "{385, 840}";
}
);
layerId = "BADE114B-EA49-45B4-AE36-72A7CEB6E1BE";
paths = (
{
closed = 1;
nodes = (
"50 345 OFFCURVE",
"59 18 OFFCURVE",
"59 18 CURVE SMOOTH",
"59 18 OFFCURVE",
"95 0 OFFCURVE",
"180 0 CURVE SMOOTH",
"257 0 OFFCURVE",
"288 18 OFFCURVE",
"288 18 CURVE",
"288 583 LINE SMOOTH",
"288 640 OFFCURVE",
"317 674 OFFCURVE",
"367 674 CURVE SMOOTH",
"417 674 OFFCURVE",
"443 636 OFFCURVE",
"443 562 CURVE",
"374 466 LINE",
"374 329 LINE",
"434 329 OFFCURVE",
"470 291 OFFCURVE",
"470 238 CURVE SMOOTH",
"470 171 OFFCURVE",
"427 138 OFFCURVE",
"354 137 CURVE",
"354 7 LINE",
"354 7 OFFCURVE",
"385 -10 OFFCURVE",
"449 -10 CURVE SMOOTH",
"628 -10 OFFCURVE",
"710 93 OFFCURVE",
"710 233 CURVE SMOOTH",
"710 330 OFFCURVE",
"663 402 OFFCURVE",
"579 442 CURVE",
"676 555 LINE",
"674 754 OFFCURVE",
"577 850 OFFCURVE",
"357 850 CURVE SMOOTH",
"137 850 OFFCURVE",
"50 772 OFFCURVE",
"50 547 CURVE SMOOTH"
);
}
);
width = 745;
}
);
leftKerningGroup = I;
note = uni1E9E;
rightKerningGroup = B;
unicode = 1E9E;
},
{
color = 4;
glyphname = T;
lastChange = "2024-02-07 01:51:59 +0000";
layers = (
{
anchors = (
{
name = bottom;
position = "{340, 0}";
},
{
name = center;
position = "{341, 420}";
},
{
name = macronbelow;
position = "{340, 0}";
},
{
name = top;
position = "{341, 840}";
}
);
layerId = "BADE114B-EA49-45B4-AE36-72A7CEB6E1BE";
paths = (
{
closed = 1;
nodes = (
"427 0 OFFCURVE",
"451 16 OFFCURVE",
"451 16 CURVE",
"451 16 OFFCURVE",
"458 270 OFFCURVE",
"457 643 CURVE",
"224 643 LINE",
"223 271 OFFCURVE",
"229 16 OFFCURVE",
"229 16 CURVE",
"229 16 OFFCURVE",
"253 0 OFFCURVE",
"340 0 CURVE SMOOTH"
);
},
{
closed = 1;
nodes = (
"467 637 OFFCURVE",
"565 636 OFFCURVE",
"652 632 CURVE",
"652 733 OFFCURVE",
"649 795 OFFCURVE",
"643 827 CURVE",
"562 837 OFFCURVE",
"467 841 OFFCURVE",
"341 841 CURVE SMOOTH",
"215 841 OFFCURVE",
"120 837 OFFCURVE",
"39 827 CURVE",
"33 795 OFFCURVE",
"30 733 OFFCURVE",
"30 632 CURVE",
"117 636 OFFCURVE",
"215 637 OFFCURVE",
"341 636 CURVE SMOOTH"
);
}
);
width = 682;
}
);
leftKerningGroup = T;
note = T;
rightKerningGroup = T;
unicode = 0054;
},
{
color = 4;
glyphname = Tbar;
lastChange = "2024-02-04 00:11:48 +0000";
layers = (
{
components = (
{
name = T;
},
{
name = strokeshortcomb;
}
);
layerId = "BADE114B-EA49-45B4-AE36-72A7CEB6E1BE";
paths = (
{
closed = 1;
nodes = (
"616 327 LINE",
"616 427 LINE",
"66 427 LINE",
"66 327 LINE"
);
}
);
width = 682;
}
);
leftKerningGroup = T;
rightKerningGroup = T;
unicode = 0166;
},
{
color = 4;
glyphname = U;
lastChange = "2024-02-05 01:29:45 +0000";
layers = (
{
anchors = (
{
name = bottom;
position = "{384, 0}";
},
{
name = ogonek;
position = "{384, 0}";
},
{
name = top;
position = "{384, 840}";
},
{
name = topright;
position = "{748, 840}";
}
);
layerId = "BADE114B-EA49-45B4-AE36-72A7CEB6E1BE";
paths = (
{
closed = 1;
nodes = (
"611 -10 OFFCURVE",
"718 99 OFFCURVE",
"718 336 CURVE SMOOTH",
"718 824 LINE",
"718 824 OFFCURVE",
"675 840 OFFCURVE",
"598 840 CURVE SMOOTH",
"523 840 OFFCURVE",
"481 824 OFFCURVE",
"481 824 CURVE",
"481 309 LINE SMOOTH",
"481 227 OFFCURVE",
"447 189 OFFCURVE",
"384 189 CURVE",
"384 -10 LINE"
);
},
{
closed = 1;
nodes = (
"384 189 LINE",
"321 189 OFFCURVE",
"287 227 OFFCURVE",
"287 309 CURVE SMOOTH",
"287 824 LINE",
"287 824 OFFCURVE",
"245 840 OFFCURVE",
"170 840 CURVE SMOOTH",
"93 840 OFFCURVE",
"50 824 OFFCURVE",
"50 824 CURVE",
"50 336 LINE SMOOTH",
"50 99 OFFCURVE",
"157 -10 OFFCURVE",
"384 -10 CURVE"
);
}
);
width = 768;
}
);
leftKerningGroup = U;
note = U;
rightKerningGroup = U;
unicode = 0055;
},
{
color = 4;
glyphname = Uhorn;
lastChange = "2024-02-04 00:12:34 +0000";
layers = (
{
anchors = (
{
name = bottom;
position = "{383, 0}";
},
{
name = ogonek;
position = "{383, 0}";
},
{
name = tilde;
position = "{384, 840}";
},
{
name = top;
position = "{384, 840}";
},
{
name = topright;
position = "{754, 840}";
}
);
layerId = "BADE114B-EA49-45B4-AE36-72A7CEB6E1BE";
paths = (
{
closed = 1;
nodes = (
"481 410 LINE",
"718 394 LINE",
"718 430 LINE SMOOTH",
"718 541 OFFCURVE",
"698 629 OFFCURVE",
"665 668 CURVE",
"765 668 OFFCURVE",
"828 720 OFFCURVE",
"828 861 CURVE SMOOTH",
"828 915 LINE SMOOTH",
"828 924 OFFCURVE",
"821 930 OFFCURVE",
"812 930 CURVE SMOOTH",
"632 930 LINE SMOOTH",
"623 930 OFFCURVE",
"617 925 OFFCURVE",
"617 915 CURVE SMOOTH",
"617 868 LINE SMOOTH",
"617 817 OFFCURVE",
"591 791 OFFCURVE",
"540 791 CURVE SMOOTH",
"481 791 LINE"
);
},
{
closed = 1;
nodes = (
"611 -10 OFFCURVE",
"718 99 OFFCURVE",
"718 336 CURVE SMOOTH",
"718 394 LINE",
"481 410 LINE",
"481 309 LINE SMOOTH",
"481 227 OFFCURVE",
"447 189 OFFCURVE",
"384 189 CURVE",
"384 -10 LINE"
);
},
{
closed = 1;
nodes = (
"384 189 LINE",
"321 189 OFFCURVE",
"287 227 OFFCURVE",
"287 309 CURVE SMOOTH",
"287 824 LINE",
"287 824 OFFCURVE",
"245 840 OFFCURVE",
"170 840 CURVE SMOOTH",
"93 840 OFFCURVE",
"50 824 OFFCURVE",
"50 824 CURVE",
"50 336 LINE SMOOTH",
"50 99 OFFCURVE",
"157 -10 OFFCURVE",
"384 -10 CURVE"
);
}
);
width = 878;
}
);
leftKerningGroup = U;
rightKerningGroup = Horn;
unicode = 01AF;
},
{
color = 4;
glyphname = V;
lastChange = "2024-02-09 10:33:34 +0000";
layers = (
{
anchors = (
{
name = _top;
position = "{396, 840}";
},
{
name = bottom;
position = "{396, 0}";
},
{
name = top;
position = "{396, 840}";
}
);
layerId = "BADE114B-EA49-45B4-AE36-72A7CEB6E1BE";
paths = (
{
closed = 1;
nodes = (
"407 164 LINE",
"401 164 LINE",
"390 263 LINE",
"283 829 LINE",
"257 837 OFFCURVE",
"209 841 OFFCURVE",
"175 841 CURVE SMOOTH",
"124 841 OFFCURVE",
"66 834 OFFCURVE",
"30 822 CURVE",
"231 24 LINE",
"288 6 OFFCURVE",
"350 0 OFFCURVE",
"407 0 CURVE"
);
},
{
closed = 1;
nodes = (
"464 0 OFFCURVE",
"526 6 OFFCURVE",
"583 24 CURVE",
"784 822 LINE",
"748 834 OFFCURVE",
"690 841 OFFCURVE",
"639 841 CURVE SMOOTH",
"605 841 OFFCURVE",
"557 837 OFFCURVE",
"531 829 CURVE",
"424 263 LINE",
"413 164 LINE",
"407 164 LINE",
"407 0 LINE"
);
}
);
width = 814;
}
);
leftKerningGroup = V;
note = V;
rightKerningGroup = V;
unicode = 0056;
},
{
color = 4;
glyphname = W;
lastChange = "2024-02-07 05:01:55 +0000";
layers = (
{
anchors = (
{
name = _top;
position = "{466, 840}";
},
{
name = bottom;
position = "{466, 0}";
},
{
name = top;
position = "{466, 840}";
}
);
layerId = "BADE114B-EA49-45B4-AE36-72A7CEB6E1BE";
paths = (
{
closed = 1;
nodes = (
"306 0 OFFCURVE",
"361 7 OFFCURVE",
"385 16 CURVE",
"466 269 LINE",
"466 650 LINE",
"433 650 OFFCURVE",
"409 646 OFFCURVE",
"387 640 CURVE",
"351 474 LINE",
"316 280 LINE",
"304 280 LINE",
"285 829 LINE",
"263 836 OFFCURVE",
"224 840 OFFCURVE",
"170 840 CURVE SMOOTH",
"131 840 OFFCURVE",
"59 829 OFFCURVE",
"30 819 CURVE",
"119 16 LINE",
"153 6 OFFCURVE",
"213 0 OFFCURVE",
"256 0 CURVE SMOOTH"
);
},
{
closed = 1;
nodes = (
"719 0 OFFCURVE",
"779 6 OFFCURVE",
"813 16 CURVE",
"902 819 LINE",
"873 829 OFFCURVE",
"801 840 OFFCURVE",
"762 840 CURVE SMOOTH",
"708 840 OFFCURVE",
"669 836 OFFCURVE",
"647 829 CURVE",
"628 280 LINE",
"616 280 LINE",
"581 474 LINE",
"545 640 LINE",
"523 646 OFFCURVE",
"499 650 OFFCURVE",
"466 650 CURVE",
"466 269 LINE",
"547 16 LINE",
"571 7 OFFCURVE",
"626 0 OFFCURVE",
"676 0 CURVE SMOOTH"
);
}
);
width = 932;
}
);
leftKerningGroup = W;
note = W;
rightKerningGroup = W;
unicode = 0057;
},
{
color = 4;
glyphname = X;
lastChange = "2024-02-07 04:49:58 +0000";
layers = (
{
anchors = (
{
name = _top;
position = "{396, 840}";
},
{
name = bottom;
position = "{397, 0}";
},
{
name = top;
position = "{397, 840}";
}
);
layerId = "BADE114B-EA49-45B4-AE36-72A7CEB6E1BE";
paths = (
{
closed = 1;
nodes = (
"564 420 LINE",
"603 485 LINE",
"721 822 LINE",
"676 834 OFFCURVE",
"661 840 OFFCURVE",
"598 840 CURVE SMOOTH",
"557 840 OFFCURVE",
"511 835 OFFCURVE",
"478 824 CURVE",
"402 592 LINE",
"386 530 LINE",
"371 530 LINE",
"355 592 LINE",
"279 824 LINE",
"246 835 OFFCURVE",
"200 840 OFFCURVE",
"159 840 CURVE SMOOTH",
"96 840 OFFCURVE",
"81 834 OFFCURVE",
"36 822 CURVE",
"154 485 LINE",
"193 420 LINE"
);
},
{
closed = 1;
nodes = (
"154 355 LINE",
"36 18 LINE",
"81 6 OFFCURVE",
"96 0 OFFCURVE",
"159 0 CURVE SMOOTH",
"200 0 OFFCURVE",
"246 5 OFFCURVE",
"279 16 CURVE",
"355 248 LINE",
"371 310 LINE",
"386 310 LINE",
"402 248 LINE",
"478 16 LINE",
"511 5 OFFCURVE",
"557 0 OFFCURVE",
"598 0 CURVE SMOOTH",
"661 0 OFFCURVE",
"676 6 OFFCURVE",
"721 18 CURVE",
"603 355 LINE",
"564 420 LINE",
"193 420 LINE"
);
}
);
width = 757;
}
);
leftKerningGroup = X;
note = X;
rightKerningGroup = X;
unicode = 0058;
},
{
color = 4;
glyphname = Y;
lastChange = "2024-02-07 01:42:46 +0000";
layers = (
{
anchors = (
{
name = bottom;
position = "{375, 0}";
},
{
name = top;
position = "{374, 840}";
},
{
name = topleft;
position = "{-21, 840}";
}
);
background = {
paths = (
{
closed = 1;
nodes = (
"506 322 LINE",
"744 820 LINE",
"707 833 OFFCURVE",
"654 840 OFFCURVE",
"603 840 CURVE SMOOTH",
"565 840 OFFCURVE",
"529 837 OFFCURVE",
"502 830 CURVE",
"374 546 LINE",
"246 830 LINE",
"219 837 OFFCURVE",
"183 840 OFFCURVE",
"145 840 CURVE SMOOTH",
"94 840 OFFCURVE",
"41 833 OFFCURVE",
"4 820 CURVE",
"242 322 LINE"
);
}
);
};
layerId = "BADE114B-EA49-45B4-AE36-72A7CEB6E1BE";
paths = (
{
closed = 1;
nodes = (
"374 195 LINE",
"374 526 LINE",
"367 570 LINE",
"293 824 LINE",
"260 835 OFFCURVE",
"215 840 OFFCURVE",
"174 840 CURVE SMOOTH",
"111 840 OFFCURVE",
"77 834 OFFCURVE",
"32 822 CURVE",
"237 319 LINE SMOOTH",
"250 287 OFFCURVE",
"257 244 OFFCURVE",
"257 195 CURVE"
);
},
{
closed = 1;
nodes = (
"461 0 OFFCURVE",
"485 17 OFFCURVE",
"485 17 CURVE",
"485 17 OFFCURVE",
"491 129 OFFCURVE",
"491 195 CURVE",
"257 195 LINE",
"257 129 OFFCURVE",
"263 16 OFFCURVE",
"263 17 CURVE",
"263 17 OFFCURVE",
"287 0 OFFCURVE",
"374 0 CURVE SMOOTH"
);
},
{
closed = 1;
nodes = (
"491 244 OFFCURVE",
"498 287 OFFCURVE",
"511 319 CURVE SMOOTH",
"716 822 LINE",
"671 834 OFFCURVE",
"637 840 OFFCURVE",
"574 840 CURVE SMOOTH",
"533 840 OFFCURVE",
"488 835 OFFCURVE",
"455 824 CURVE",
"381 570 LINE",
"374 526 LINE",
"374 195 LINE",
"491 195 LINE"
);
}
);
width = 748;
}
);
leftKerningGroup = Y;
note = Y;
rightKerningGroup = Y;
unicode = 0059;
},
{
color = 4;
glyphname = Z;
lastChange = "2024-02-07 01:30:06 +0000";
layers = (
{
anchors = (
{
name = bottom;
position = "{354, 0}";
},
{
name = center;
position = "{354, 420}";
},
{
name = top;
position = "{354, 840}";
}
);
layerId = "BADE114B-EA49-45B4-AE36-72A7CEB6E1BE";
paths = (
{
closed = 1;
nodes = (
"609 531 LINE",
"411 638 LINE",
"305 179 LINE"
);
},
{
closed = 1;
nodes = (
"305 179 LINE",
"92 269 LINE",
"57 227 OFFCURVE",
"51 202 OFFCURVE",
"51 149 CURVE SMOOTH",
"51 109 OFFCURVE",
"56 51 OFFCURVE",
"62 15 CURVE",
"176 2 OFFCURVE",
"349 0 OFFCURVE",
"349 0 CURVE"
);
},
{
closed = 1;
nodes = (
"411 638 LINE",
"92 269 LINE",
"305 179 LINE"
);
},
{
closed = 1;
nodes = (
"645 573 OFFCURVE",
"650 598 OFFCURVE",
"650 651 CURVE SMOOTH",
"650 691 OFFCURVE",
"645 790 OFFCURVE",
"639 826 CURVE",
"525 839 OFFCURVE",
"352 840 OFFCURVE",
"352 840 CURVE",
"411 638 LINE",
"609 531 LINE"
);
},
{
closed = 1;
nodes = (
"483 -1 OFFCURVE",
"542 0 OFFCURVE",
"652 13 CURVE",
"656 62 OFFCURVE",
"658 89 OFFCURVE",
"658 188 CURVE",
"565 180 OFFCURVE",
"463 179 OFFCURVE",
"305 179 CURVE",
"349 0 LINE"
);
},
{
closed = 1;
nodes = (
"225 841 OFFCURVE",
"166 840 OFFCURVE",
"56 827 CURVE",
"52 778 OFFCURVE",
"50 729 OFFCURVE",
"50 630 CURVE",
"143 638 OFFCURVE",
"257 639 OFFCURVE",
"411 638 CURVE",
"352 840 LINE"
);
}
);
width = 708;
}
);
leftKerningGroup = Z;
note = Z;
rightKerningGroup = Z;
unicode = 005A;
},
{
color = 1;
export = 0;
glyphname = Bhook;
lastChange = "2024-02-04 00:18:27 +0000";
layers = (
{
anchors = (
{
name = bottom;
position = "{586, 0}";
},
{
name = top;
position = "{586, 840}";
}
);
layerId = "BADE114B-EA49-45B4-AE36-72A7CEB6E1BE";
paths = (
{
closed = 1;
nodes = (
"827 -10 OFFCURVE",
"918 96 OFFCURVE",
"918 239 CURVE SMOOTH",
"918 317 OFFCURVE",
"891 384 OFFCURVE",
"803 420 CURVE",
"524 420 LINE",
"524 342 LINE",
"576 342 LINE",
"618 342 OFFCURVE",
"660 323 OFFCURVE",
"660 264 CURVE",
"660 207 OFFCURVE",
"626 178 OFFCURVE",
"567 178 CURVE",
"524 178 LINE",
"544 -10 LINE"
);
},
{
closed = 1;
nodes = (
"803 420 LINE",
"876 456 OFFCURVE",
"908 523 OFFCURVE",
"908 601 CURVE SMOOTH",
"908 744 OFFCURVE",
"817 850 OFFCURVE",
"544 850 CURVE",
"524 662 LINE",
"577 662 LINE",
"618 662 OFFCURVE",
"652 633 OFFCURVE",
"652 576 CURVE",
"652 517 OFFCURVE",
"611 498 OFFCURVE",
"586 498 CURVE",
"524 498 LINE",
"524 420 LINE"
);
},
{
closed = 1;
nodes = (
"50 590 LINE SMOOTH",
"50 580 OFFCURVE",
"57 574 OFFCURVE",
"66 574 CURVE SMOOTH",
"214 574 LINE SMOOTH",
"223 574 OFFCURVE",
"229 581 OFFCURVE",
"229 590 CURVE SMOOTH",
"229 608 LINE SMOOTH",
"229 656 OFFCURVE",
"247 684 OFFCURVE",
"289 684 CURVE SMOOTH",
"315 684 LINE",
"315 850 LINE",
"290 850 LINE SMOOTH",
"114 850 OFFCURVE",
"50 759 OFFCURVE",
"50 640 CURVE SMOOTH"
);
},
{
closed = 1;
nodes = (
"524 178 LINE",
"524 662 LINE",
"544 850 LINE",
"290 850 LINE",
"289 12 LINE",
"289 12 OFFCURVE",
"377 -10 OFFCURVE",
"544 -10 CURVE"
);
}
);
width = 968;
}
);
leftKerningGroup = "hook-top";
unicode = 0181;
},
{
color = 1;
export = 0;
glyphname = Dhook;
lastChange = "2024-02-04 00:18:27 +0000";
layers = (
{
anchors = (
{
name = bottom;
position = "{596, 0}";
},
{
name = center;
position = "{596, 420}";
},
{
name = top;
position = "{559, 838}";
}
);
layerId = "BADE114B-EA49-45B4-AE36-72A7CEB6E1BE";
paths = (
{
closed = 1;
nodes = (
"936 786 OFFCURVE",
"761 850 OFFCURVE",
"559 850 CURVE",
"524 635 LINE",
"610 652 OFFCURVE",
"682 608 OFFCURVE",
"682 420 CURVE",
"937 420 LINE"
);
},
{
closed = 1;
nodes = (
"682 420 LINE",
"682 232 OFFCURVE",
"610 188 OFFCURVE",
"524 205 CURVE",
"559 -10 LINE",
"761 -10 OFFCURVE",
"936 54 OFFCURVE",
"937 420 CURVE"
);
},
{
closed = 1;
nodes = (
"50 590 LINE SMOOTH",
"50 580 OFFCURVE",
"57 574 OFFCURVE",
"66 574 CURVE SMOOTH",
"214 574 LINE SMOOTH",
"223 574 OFFCURVE",
"229 581 OFFCURVE",
"229 590 CURVE SMOOTH",
"229 608 LINE SMOOTH",
"229 656 OFFCURVE",
"247 684 OFFCURVE",
"289 684 CURVE SMOOTH",
"315 684 LINE",
"315 850 LINE",
"290 850 LINE SMOOTH",
"114 850 OFFCURVE",
"50 759 OFFCURVE",
"50 640 CURVE SMOOTH"
);
},
{
closed = 1;
nodes = (
"524 205 LINE",
"524 635 LINE",
"559 850 LINE",
"290 850 LINE",
"289 12 LINE",
"289 12 OFFCURVE",
"382 -10 OFFCURVE",
"559 -10 CURVE"
);
}
);
width = 987;
}
);
leftKerningGroup = "hook-top";
unicode = 018A;
},
{
color = 1;
export = 0;
glyphname = Ezh;
lastChange = "2024-02-03 13:28:42 +0000";
layers = (
{
layerId = "BADE114B-EA49-45B4-AE36-72A7CEB6E1BE";
paths = (
{
closed = 1;
nodes = (
"562 -10 OFFCURVE",
"682 79 OFFCURVE",
"682 243 CURVE SMOOTH",
"682 344 OFFCURVE",
"634 406 OFFCURVE",
"534 456 CURVE",
"289 399 LINE",
"399 399 OFFCURVE",
"429 343 OFFCURVE",
"429 272 CURVE SMOOTH",
"429 226 OFFCURVE",
"404 190 OFFCURVE",
"367 191 CURVE",
"363 -11 LINE"
);
},
{
closed = 1;
nodes = (
"638 551 LINE SMOOTH",
"664 574 OFFCURVE",
"668 599 OFFCURVE",
"666 671 CURVE SMOOTH",
"666 711 OFFCURVE",
"661 790 OFFCURVE",
"655 826 CURVE",
"541 839 OFFCURVE",
"389 840 OFFCURVE",
"389 840 CURVE",
"399 625 LINE",
"289 511 LINE",
"289 399 LINE",
"534 456 LINE"
);
},
{
closed = 1;
nodes = (
"367 191 LINE",
"321 192 OFFCURVE",
"299 249 OFFCURVE",
"299 322 CURVE",
"203 315 OFFCURVE",
"91 301 OFFCURVE",
"50 287 CURVE",
"55 173 OFFCURVE",
"89 93 OFFCURVE",
"149 49 CURVE SMOOTH",
"208 5 OFFCURVE",
"275 -11 OFFCURVE",
"363 -11 CURVE"
);
},
{
closed = 1;
nodes = (
"242 841 OFFCURVE",
"183 840 OFFCURVE",
"73 827 CURVE",
"69 778 OFFCURVE",
"67 716 OFFCURVE",
"67 617 CURVE",
"160 625 OFFCURVE",
"254 626 OFFCURVE",
"399 625 CURVE",
"389 840 LINE"
);
}
);
width = 732;
}
);
unicode = 01B7;
},
{
color = 1;
export = 0;
glyphname = Fhook;
lastChange = "2024-02-03 13:28:42 +0000";
layers = (
{
anchors = (
{
name = _top;
position = "{405, 840}";
},
{
name = bottom;
position = "{405, 0}";
},
{
name = bottomright;
position = "{727, 0}";
},
{
name = center;
position = "{247, 420}";
},
{
name = top;
position = "{405, 840}";
}
);
layerId = "BADE114B-EA49-45B4-AE36-72A7CEB6E1BE";
paths = (
{
closed = 1;
nodes = (
"370 420 LINE",
"370 840 LINE",
"208 840 OFFCURVE",
"129 833 OFFCURVE",
"129 833 CURVE",
"129 420 LINE"
);
},
{
closed = 1;
nodes = (
"577 313 LINE",
"581 341 OFFCURVE",
"583 380 OFFCURVE",
"583 411 CURVE SMOOTH",
"583 440 OFFCURVE",
"580 479 OFFCURVE",
"577 507 CURVE",
"320 502 LINE",
"320 316 LINE"
);
},
{
closed = 1;
nodes = (
"363 612 LINE",
"443 612 LINE SMOOTH",
"543 612 OFFCURVE",
"618 610 OFFCURVE",
"692 604 CURVE",
"692 703 OFFCURVE",
"690 778 OFFCURVE",
"686 827 CURVE",
"595 838 OFFCURVE",
"539 840 OFFCURVE",
"440 840 CURVE SMOOTH",
"370 840 LINE"
);
},
{
closed = 1;
nodes = (
"299 -60 OFFCURVE",
"370 3 OFFCURVE",
"370 189 CURVE SMOOTH",
"370 420 LINE",
"129 420 LINE",
"129 210 LINE SMOOTH",
"129 168 OFFCURVE",
"107 150 OFFCURVE",
"69 150 CURVE SMOOTH",
"65 150 LINE SMOOTH",
"56 150 OFFCURVE",
"50 144 OFFCURVE",
"50 135 CURVE SMOOTH",
"50 -45 LINE SMOOTH",
"50 -54 OFFCURVE",
"56 -60 OFFCURVE",
"65 -60 CURVE SMOOTH",
"129 -60 LINE SMOOTH"
);
}
);
width = 742;
}
);
unicode = 0191;
},
{
color = 1;
export = 0;
glyphname = Hhook;
lastChange = "2024-02-04 00:18:27 +0000";
layers = (
{
anchors = (
{
name = bottom;
position = "{618, 0}";
},
{
name = center;
position = "{618, 420}";
},
{
name = top;
position = "{618, 840}";
},
{
name = topleft;
position = "{240, 840}";
}
);
layerId = "BADE114B-EA49-45B4-AE36-72A7CEB6E1BE";
paths = (
{
closed = 1;
nodes = (
"965 420 LINE",
"965 660 OFFCURVE",
"956 818 OFFCURVE",
"956 818 CURVE",
"956 818 OFFCURVE",
"921 840 OFFCURVE",
"832 840 CURVE",
"832 420 LINE"
);
},
{
closed = 1;
nodes = (
"486 0 OFFCURVE",
"535 22 OFFCURVE",
"535 22 CURVE",
"535 309 LINE",
"535 420 LINE",
"413 420 LINE",
"413 0 LINE"
);
},
{
closed = 1;
nodes = (
"832 420 LINE",
"700 420 LINE",
"700 309 LINE",
"700 22 LINE",
"700 22 OFFCURVE",
"743 0 OFFCURVE",
"832 0 CURVE"
);
},
{
closed = 1;
nodes = (
"700 309 LINE",
"700 533 LINE",
"535 533 LINE",
"535 309 LINE"
);
},
{
closed = 1;
nodes = (
"535 420 LINE",
"535 533 LINE",
"535 840 LINE",
"535 840 OFFCURVE",
"469 840 OFFCURVE",
"290 840 CURVE",
"290 420 LINE"
);
},
{
closed = 1;
nodes = (
"921 0 OFFCURVE",
"956 22 OFFCURVE",
"956 22 CURVE",
"956 22 OFFCURVE",
"965 180 OFFCURVE",
"965 420 CURVE",
"832 420 LINE",
"832 0 LINE"
);
},
{
closed = 1;
nodes = (
"832 420 LINE",
"832 840 LINE",
"743 840 OFFCURVE",
"700 818 OFFCURVE",
"700 818 CURVE",
"700 533 LINE",
"700 420 LINE"
);
},
{
closed = 1;
nodes = (
"50 580 LINE SMOOTH",
"50 570 OFFCURVE",
"57 564 OFFCURVE",
"66 564 CURVE SMOOTH",
"214 564 LINE SMOOTH",
"223 564 OFFCURVE",
"229 571 OFFCURVE",
"229 580 CURVE SMOOTH",
"229 598 LINE SMOOTH",
"229 646 OFFCURVE",
"247 674 OFFCURVE",
"289 674 CURVE SMOOTH",
"315 674 LINE",
"315 840 LINE",
"290 840 LINE SMOOTH",
"114 840 OFFCURVE",
"50 749 OFFCURVE",
"50 630 CURVE SMOOTH"
);
},
{
closed = 1;
nodes = (
"413 420 LINE",
"290 420 LINE",
"290 309 LINE",
"290 22 LINE",
"290 22 OFFCURVE",
"339 0 OFFCURVE",
"413 0 CURVE"
);
}
);
width = 1015;
}
);
leftKerningGroup = "hook-top";
unicode = A7AA;
},
{
color = 1;
export = 0;
glyphname = Istroke;
lastChange = "2024-02-03 13:28:42 +0000";
layers = (
{
components = (
{
name = I;
transform = "{1, 0, 0, 1, 50, 0}";
}
);
layerId = "BADE114B-EA49-45B4-AE36-72A7CEB6E1BE";
paths = (
{
closed = 1;
nodes = (
"416 321 LINE",
"416 520 LINE",
"50 520 LINE",
"50 321 LINE"
);
}
);
width = 466;
}
);
unicode = 0197;
},
{
color = 1;
export = 0;
glyphname = Khook;
lastChange = "2024-02-03 13:28:42 +0000";
layers = (
{
anchors = (
{
name = bottom;
position = "{391, 0}";
},
{
name = top;
position = "{391, 840}";
}
);
layerId = "BADE114B-EA49-45B4-AE36-72A7CEB6E1BE";
paths = (
{
closed = 1;
nodes = (
"421 839 OFFCURVE",
"353 719 OFFCURVE",
"306 530 CURVE",
"306 430 LINE",
"520 456 LINE",
"539 508 LINE SMOOTH",
"573 601 OFFCURVE",
"623 626 OFFCURVE",
"681 589 CURVE",
"706 660 OFFCURVE",
"722 704 OFFCURVE",
"735 793 CURVE",
"735 793 OFFCURVE",
"667 839 OFFCURVE",
"560 840 CURVE"
);
},
{
closed = 1;
nodes = (
"689 1 OFFCURVE {stroke = {w = \"1\";};}",
"736 36 OFFCURVE {stroke = {w = \"1\";};}",
"736 36 CURVE {stroke = {w = \"1\";};}",
"520 466 LINE",
"294 451 LINE {stroke = {w = \"1\";};}",
"294 396 LINE {stroke = {w = \"1\";};}",
"473 19 LINE {stroke = {w = \"1\";};}",
"473 19 OFFCURVE {stroke = {w = \"1\";};}",
"500 0 OFFCURVE {stroke = {w = \"1\";};}",
"590 1 CURVE {stroke = {w = \"1\";};}"
);
},
{
closed = 1;
nodes = (
"183 420 LINE",
"50 420 LINE",
"50 180 OFFCURVE",
"59 22 OFFCURVE",
"59 22 CURVE",
"59 22 OFFCURVE",
"94 0 OFFCURVE",
"183 0 CURVE"
);
},
{
closed = 1;
nodes = (
"272 0 OFFCURVE",
"316 22 OFFCURVE",
"316 22 CURVE",
"316 375 LINE {stroke = {w = \"1\";};}",
"316 420 LINE",
"183 420 LINE",
"183 0 LINE"
);
},
{
closed = 1;
nodes = (
"183 420 LINE",
"183 840 LINE",
"94 840 OFFCURVE",
"59 818 OFFCURVE",
"59 818 CURVE",
"59 818 OFFCURVE",
"50 660 OFFCURVE",
"50 420 CURVE"
);
},
{
closed = 1;
nodes = (
"316 420 LINE {stroke = {w = \"1\";};}",
"316 466 LINE {stroke = {w = \"1\";};}",
"316 818 LINE",
"316 818 OFFCURVE",
"272 840 OFFCURVE",
"183 840 CURVE",
"183 420 LINE"
);
}
);
width = 786;
}
);
unicode = 0198;
},
{
color = 1;
export = 0;
glyphname = Nhookleft;
lastChange = "2024-02-03 13:28:42 +0000";
layers = (
{
layerId = "BADE114B-EA49-45B4-AE36-72A7CEB6E1BE";
paths = (
{
closed = 1;
nodes = (
"570 420 LINE",
"570 462 LINE",
"364 828 LINE",
"374 378 LINE",
"590 12 LINE"
);
},
{
closed = 1;
nodes = (
"262 392 LINE",
"262 840 LINE",
"173 840 OFFCURVE",
"129 818 OFFCURVE",
"129 818 CURVE",
"129 420 LINE"
);
},
{
closed = 1;
nodes = (
"682 420 LINE",
"570 420 LINE",
"590 12 LINE",
"590 12 OFFCURVE",
"623 0 OFFCURVE",
"682 0 CURVE"
);
},
{
closed = 1;
nodes = (
"374 203 LINE",
"374 378 LINE",
"364 828 LINE",
"364 828 OFFCURVE",
"321 840 OFFCURVE",
"262 840 CURVE",
"262 392 LINE"
);
},
{
closed = 1;
nodes = (
"771 0 OFFCURVE",
"806 22 OFFCURVE",
"806 22 CURVE",
"806 22 OFFCURVE",
"815 180 OFFCURVE",
"815 420 CURVE",
"682 420 LINE",
"682 0 LINE"
);
},
{
closed = 1;
nodes = (
"682 420 LINE",
"682 840 LINE",
"603 840 OFFCURVE",
"570 818 OFFCURVE",
"570 818 CURVE",
"570 420 LINE"
);
},
{
closed = 1;
nodes = (
"815 420 LINE",
"815 660 OFFCURVE",
"806 818 OFFCURVE",
"806 818 CURVE",
"806 818 OFFCURVE",
"771 840 OFFCURVE",
"682 840 CURVE",
"682 420 LINE"
);
},
{
closed = 1;
nodes = (
"303 -60 OFFCURVE",
"374 3 OFFCURVE",
"374 189 CURVE SMOOTH",
"374 378 LINE",
"129 420 LINE",
"129 210 LINE SMOOTH",
"129 168 OFFCURVE",
"107 150 OFFCURVE",
"69 150 CURVE SMOOTH",
"65 150 LINE SMOOTH",
"56 150 OFFCURVE",
"54 144 OFFCURVE",
"54 135 CURVE SMOOTH",
"50 -45 LINE SMOOTH",
"50 -54 OFFCURVE",
"56 -60 OFFCURVE",
"65 -60 CURVE SMOOTH",
"133 -60 LINE SMOOTH"
);
}
);
width = 865;
}
);
unicode = 019D;
},
{
color = 1;
export = 0;
glyphname = Rstroke;
lastChange = "2024-02-03 13:28:42 +0000";
layers = (
{
components = (
{
name = R;
transform = "{1, 0, 0, 1, 50, 0}";
}
);
layerId = "BADE114B-EA49-45B4-AE36-72A7CEB6E1BE";
paths = (
{
closed = 1;
nodes = (
"233 287 LINE",
"233 486 LINE",
"50 486 LINE",
"50 287 LINE"
);
}
);
width = 808;
}
);
unicode = 024C;
},
{
color = 1;
export = 0;
glyphname = Rtail;
lastChange = "2024-02-03 13:28:42 +0000";
layers = (
{
anchors = (
{
name = _top;
position = "{367, 840}";
},
{
name = bottom;
position = "{381, 0}";
},
{
name = top;
position = "{368, 840}";
}
);
layerId = "BADE114B-EA49-45B4-AE36-72A7CEB6E1BE";
paths = (
{
closed = 1;
nodes = (
"661 0 OFFCURVE {stroke = {w = \"1\";};}",
"716 35 OFFCURVE {stroke = {w = \"1\";};}",
"716 35 CURVE {stroke = {w = \"1\";};}",
"577 382 LINE",
"377 298 LINE {stroke = {w = \"1\";};}",
"473 18 LINE {stroke = {w = \"1\";};}",
"473 18 OFFCURVE {stroke = {w = \"1\";};}",
"511 0 OFFCURVE {stroke = {w = \"1\";};}",
"574 0 CURVE {stroke = {w = \"1\";};}"
);
},
{
closed = 1;
nodes = (
"534 287 OFFCURVE",
"690 366 OFFCURVE",
"690 566 CURVE SMOOTH",
"690 768 OFFCURVE",
"556 851 OFFCURVE",
"316 850 CURVE",
"295 651 LINE",
"367 651 LINE SMOOTH",
"424 651 OFFCURVE",
"452 617 OFFCURVE",
"452 570 CURVE SMOOTH",
"453 521 OFFCURVE",
"424 487 OFFCURVE",
"367 487 CURVE SMOOTH",
"295 487 LINE",
"295 287 LINE",
"410 287 LINE"
);
},
{
closed = 1;
nodes = (
"295 420 LINE",
"295 487 LINE",
"295 651 LINE",
"316 850 LINE",
"234 850 OFFCURVE",
"119 838 OFFCURVE",
"59 818 CURVE",
"59 818 OFFCURVE",
"50 684 OFFCURVE",
"50 420 CURVE"
);
},
{
closed = 1;
nodes = (
"341 -241 OFFCURVE",
"391 -230 OFFCURVE",
"433 -211 CURVE",
"437 -159 OFFCURVE",
"425 -73 OFFCURVE",
"401 -37 CURVE",
"323 -62 OFFCURVE",
"295 -52 OFFCURVE",
"295 58 CURVE",
"295 420 LINE",
"50 420 LINE",
"50 52 LINE",
"50 -182 OFFCURVE",
"154 -241 OFFCURVE",
"276 -241 CURVE"
);
}
);
width = 766;
}
);
unicode = 2C64;
},
{
color = 1;
export = 0;
glyphname = Ubar;
lastChange = "2024-02-03 13:28:42 +0000";
layers = (
{
components = (
{
name = U;
transform = "{1, 0, 0, 1, 51, 0}";
}
);
layerId = "BADE114B-EA49-45B4-AE36-72A7CEB6E1BE";
paths = (
{
closed = 1;
nodes = (
"819 467 LINE",
"819 567 LINE",
"50 567 LINE",
"50 467 LINE"
);
}
);
width = 869;
}
);
unicode = 0244;
},
{
color = 0;
export = 0;
glyphname = G.ss01;
lastChange = "2024-02-04 00:16:56 +0000";
layers = (
{
layerId = "BADE114B-EA49-45B4-AE36-72A7CEB6E1BE";
paths = (
{
closed = 1;
nodes = (
"517 -10 OFFCURVE",
"615 10 OFFCURVE",
"683 47 CURVE",
"712 117 OFFCURVE",
"733 222 OFFCURVE",
"741 328 CURVE",
"659 349 OFFCURVE",
"574 358 OFFCURVE",
"474 356 CURVE",
"480 292 OFFCURVE",
"486 252 OFFCURVE",
"500 200 CURVE",
"484 190 OFFCURVE",
"453 176 OFFCURVE",
"423 176 CURVE SMOOTH",
"325 176 OFFCURVE",
"315 325 OFFCURVE",
"315 420 CURVE SMOOTH",
"315 515 OFFCURVE",
"325 664 OFFCURVE",
"400 664 CURVE SMOOTH",
"442 664 OFFCURVE",
"468 618 OFFCURVE",
"479 524 CURVE",
"574 522 OFFCURVE",
"662 532 OFFCURVE",
"741 552 CURVE",
"712 764 OFFCURVE",
"601 850 OFFCURVE",
"400 850 CURVE SMOOTH",
"172 850 OFFCURVE",
"50 741 OFFCURVE",
"50 420 CURVE SMOOTH",
"50 166 OFFCURVE",
"121 -10 OFFCURVE",
"400 -10 CURVE SMOOTH"
);
}
);
width = 791;
}
);
},
{
color = 4;
glyphname = Q_U.dlig;
lastChange = "2024-02-07 22:44:49 +0000";
layers = (
{
components = (
{
name = O;
},
{
name = U;
transform = "{1, 0, 0, 1, 800, 0}";
}
);
layerId = "BADE114B-EA49-45B4-AE36-72A7CEB6E1BE";
paths = (
{
closed = 1;
nodes = (
"973 -270 OFFCURVE",
"1072 -266 OFFCURVE",
"1133 -260 CURVE",
"1160 -46 LINE",
"1059 -58 OFFCURVE",
"958 -66 OFFCURVE",
"846 -66 CURVE SMOOTH",
"725 -66 OFFCURVE",
"659 -21 OFFCURVE",
"635 78 CURVE",
"445 23 LINE",
"449 10 LINE SMOOTH",
"513 -198 OFFCURVE",
"621 -270 OFFCURVE",
"865 -270 CURVE SMOOTH"
);
}
);
width = 1568;
}
);
leftKerningGroup = O;
rightKerningGroup = U;
},
{
color = 4;
glyphname = Q_u.dlig;
lastChange = "2024-02-07 22:45:05 +0000";
layers = (
{
components = (
{
name = O;
},
{
name = u;
transform = "{1, 0, 0, 1, 800, 0}";
}
);
layerId = "BADE114B-EA49-45B4-AE36-72A7CEB6E1BE";
paths = (
{
closed = 1;
nodes = (
"973 -270 OFFCURVE",
"1072 -266 OFFCURVE",
"1133 -260 CURVE",
"1160 -46 LINE",
"1059 -58 OFFCURVE",
"958 -66 OFFCURVE",
"846 -66 CURVE SMOOTH",
"725 -66 OFFCURVE",
"659 -21 OFFCURVE",
"635 78 CURVE",
"445 23 LINE",
"449 10 LINE SMOOTH",
"513 -198 OFFCURVE",
"621 -270 OFFCURVE",
"865 -270 CURVE SMOOTH"
);
}
);
width = 1519;
}
);
leftKerningGroup = O;
rightKerningGroup = idotless;
},
{
color = 4;
glyphname = L_L.liga;
lastChange = "2024-02-08 03:29:45 +0000";
layers = (
{
anchors = (
{
name = bottom;
position = "{341, 0}";
},
{
name = center;
position = "{183, 420}";
},
{
name = top;
position = "{183, 840}";
},
{
name = topright;
position = "{512, 840}";
}
);
layerId = "BADE114B-EA49-45B4-AE36-72A7CEB6E1BE";
paths = (
{
closed = 1;
nodes = (
"279 420 LINE",
"279 566 OFFCURVE",
"283 728 OFFCURVE",
"289 825 CURVE",
"289 825 OFFCURVE",
"245 840 OFFCURVE",
"170 840 CURVE SMOOTH",
"99 840 OFFCURVE",
"57 825 OFFCURVE",
"57 825 CURVE SMOOTH",
"57 825 OFFCURVE",
"50 724 OFFCURVE",
"50 420 CURVE"
);
},
{
closed = 1;
nodes = (
"50 175 OFFCURVE",
"58 18 OFFCURVE",
"58 18 CURVE",
"58 18 OFFCURVE",
"128 0 OFFCURVE",
"288 0 CURVE",
"279 180 LINE",
"279 331 LINE",
"279 420 LINE",
"50 420 LINE"
);
},
{
closed = 1;
nodes = (
"808 420 LINE",
"808 566 OFFCURVE",
"812 728 OFFCURVE",
"818 825 CURVE",
"818 825 OFFCURVE",
"774 840 OFFCURVE",
"699 840 CURVE SMOOTH",
"628 840 OFFCURVE",
"586 825 OFFCURVE",
"586 825 CURVE SMOOTH",
"586 825 OFFCURVE",
"579 724 OFFCURVE",
"579 420 CURVE"
);
},
{
closed = 1;
nodes = (
"579 175 OFFCURVE",
"587 18 OFFCURVE",
"587 18 CURVE",
"587 18 OFFCURVE",
"657 0 OFFCURVE",
"817 0 CURVE",
"808 180 LINE",
"808 331 LINE",
"808 420 LINE",
"579 420 LINE"
);
},
{
closed = 1;
nodes = (
"393 0 OFFCURVE",
"436 3 OFFCURVE",
"513 13 CURVE",
"517 73 OFFCURVE",
"519 123 OFFCURVE",
"519 188 CURVE",
"450 181 OFFCURVE",
"373 179 OFFCURVE",
"279 180 CURVE",
"288 0 LINE"
);
},
{
closed = 1;
nodes = (
"922 0 OFFCURVE",
"965 3 OFFCURVE",
"1042 13 CURVE",
"1046 73 OFFCURVE",
"1048 123 OFFCURVE",
"1048 188 CURVE",
"979 181 OFFCURVE",
"902 179 OFFCURVE",
"808 180 CURVE",
"817 0 LINE"
);
}
);
width = 1098;
}
);
leftKerningGroup = I;
rightKerningGroup = L;
},
{
color = 3;
glyphname = Gsmall;
lastChange = "2024-02-10 03:07:25 +0000";
layers = (
{
anchors = (
{
name = bottom;
position = "{346, -6}";
},
{
name = top;
position = "{339, 652}";
}
);
background = {
paths = (
{
closed = 1;
nodes = (
"39 121 OFFCURVE",
"132 -10 OFFCURVE",
"348 -10 CURVE SMOOTH",
"564 -10 OFFCURVE",
"657 121 OFFCURVE",
"657 325 CURVE SMOOTH",
"657 529 OFFCURVE",
"564 660 OFFCURVE",
"348 660 CURVE SMOOTH",
"132 660 OFFCURVE",
"39 529 OFFCURVE",
"39 325 CURVE SMOOTH"
);
},
{
closed = 1;
nodes = (
"273 407 OFFCURVE",
"282 502 OFFCURVE",
"348 502 CURVE SMOOTH",
"414 502 OFFCURVE",
"423 407 OFFCURVE",
"423 325 CURVE SMOOTH",
"423 243 OFFCURVE",
"414 148 OFFCURVE",
"348 148 CURVE SMOOTH",
"282 148 OFFCURVE",
"273 243 OFFCURVE",
"273 325 CURVE SMOOTH"
);
}
);
};
layerId = "BADE114B-EA49-45B4-AE36-72A7CEB6E1BE";
paths = (
{
closed = 1;
nodes = (
"466 -14 OFFCURVE",
"548 12 OFFCURVE",
"616 61 CURVE",
"627 138 OFFCURVE",
"635 218 OFFCURVE",
"641 324 CURVE",
"382 341 LINE",
"375 245 LINE",
"414 242 OFFCURVE",
"432 229 OFFCURVE",
"432 200 CURVE SMOOTH",
"432 164 OFFCURVE",
"412 148 OFFCURVE",
"367 148 CURVE SMOOTH",
"305 148 OFFCURVE",
"273 208 OFFCURVE",
"273 323 CURVE SMOOTH",
"273 438 OFFCURVE",
"299 498 OFFCURVE",
"349 498 CURVE SMOOTH",
"385 498 OFFCURVE",
"411 460 OFFCURVE",
"419 397 CURVE",
"534 403 OFFCURVE",
"562 411 OFFCURVE",
"641 426 CURVE",
"616 592 OFFCURVE",
"517 660 OFFCURVE",
"339 660 CURVE SMOOTH",
"145 660 OFFCURVE",
"42 574 OFFCURVE",
"42 323 CURVE SMOOTH",
"42 82 OFFCURVE",
"137 -14 OFFCURVE",
"375 -14 CURVE SMOOTH"
);
}
);
width = 683;
}
);
leftMetricsKey = o;
rightMetricsKey = o;
unicode = 0262;
},
{
color = 0;
glyphname = Gsmallhook;
lastChange = "2024-02-04 00:21:12 +0000";
layers = (
{
components = (
{
name = Gsmall;
}
);
layerId = "BADE114B-EA49-45B4-AE36-72A7CEB6E1BE";
paths = (
{
closed = 1;
nodes = (
"493 760 OFFCURVE",
"456 727 OFFCURVE",
"456 638 CURVE SMOOTH",
"456 600 LINE",
"625 426 LINE",
"625 580 LINE SMOOTH",
"625 607 OFFCURVE",
"640 621 OFFCURVE",
"661 621 CURVE SMOOTH",
"669 621 LINE SMOOTH",
"686 621 OFFCURVE",
"695 628 OFFCURVE",
"695 650 CURVE SMOOTH",
"695 727 LINE SMOOTH",
"695 750 OFFCURVE",
"686 760 OFFCURVE",
"662 760 CURVE SMOOTH",
"586 760 LINE SMOOTH"
);
}
);
width = 740;
}
);
unicode = 029B;
},
{
color = 3;
glyphname = Ismall;
lastChange = "2024-02-10 01:35:19 +0000";
layers = (
{
layerId = "BADE114B-EA49-45B4-AE36-72A7CEB6E1BE";
paths = (
{
closed = 1;
nodes = (
"331 474 LINE",
"119 474 LINE",
"119 176 LINE",
"331 176 LINE"
);
},
{
closed = 1;
nodes = (
"225 0 LINE",
"225 176 LINE",
"119 176 LINE",
"119 172 LINE",
"75 176 LINE",
"52 176 LINE",
"52 176 OFFCURVE",
"45 158 OFFCURVE",
"45 88 CURVE SMOOTH",
"45 18 OFFCURVE",
"52 0 OFFCURVE",
"52 0 CURVE"
);
},
{
closed = 1;
nodes = (
"52 650 OFFCURVE",
"45 632 OFFCURVE",
"45 562 CURVE SMOOTH",
"45 492 OFFCURVE",
"52 474 OFFCURVE",
"52 474 CURVE",
"75 474 LINE",
"119 478 LINE",
"119 474 LINE",
"225 474 LINE",
"225 650 LINE",
"52 650 LINE"
);
},
{
closed = 1;
nodes = (
"398 0 OFFCURVE",
"405 18 OFFCURVE",
"405 88 CURVE SMOOTH",
"405 158 OFFCURVE",
"398 176 OFFCURVE",
"398 176 CURVE",
"375 176 LINE",
"331 172 LINE",
"331 176 LINE",
"225 176 LINE",
"225 0 LINE",
"398 0 LINE"
);
},
{
closed = 1;
nodes = (
"225 650 LINE",
"225 474 LINE",
"331 474 LINE",
"331 478 LINE",
"375 474 LINE",
"398 474 LINE",
"398 474 OFFCURVE",
"405 492 OFFCURVE",
"405 562 CURVE SMOOTH",
"405 632 OFFCURVE",
"398 650 OFFCURVE",
"398 650 CURVE"
);
}
);
width = 450;
}
);
unicode = 026A;
},
{
color = 3;
glyphname = Lsmall;
lastChange = "2024-02-10 01:42:36 +0000";
layers = (
{
layerId = "BADE114B-EA49-45B4-AE36-72A7CEB6E1BE";
paths = (
{
closed = 1;
nodes = (
"284 325 LINE",
"284 438 OFFCURVE",
"288 563 OFFCURVE",
"294 638 CURVE",
"294 638 OFFCURVE",
"250 650 OFFCURVE",
"175 650 CURVE SMOOTH",
"104 650 OFFCURVE",
"62 638 OFFCURVE",
"62 638 CURVE SMOOTH",
"62 638 OFFCURVE",
"55 560 OFFCURVE",
"55 325 CURVE"
);
},
{
closed = 1;
nodes = (
"390 -1 OFFCURVE",
"439 0 OFFCURVE",
"549 13 CURVE",
"553 62 OFFCURVE",
"555 89 OFFCURVE",
"555 188 CURVE",
"462 180 OFFCURVE",
"378 179 OFFCURVE",
"284 180 CURVE",
"293 0 LINE"
);
},
{
closed = 1;
nodes = (
"55 136 OFFCURVE",
"63 15 OFFCURVE",
"63 14 CURVE",
"63 14 OFFCURVE",
"133 0 OFFCURVE",
"293 0 CURVE",
"284 180 LINE",
"284 256 LINE",
"284 325 LINE",
"55 325 LINE"
);
}
);
width = 585;
}
);
leftKerningGroup = idotless;
leftMetricsKey = idotless;
rightKerningGroup = L;
rightMetricsKey = L;
unicode = 029F;
},
{
color = 3;
glyphname = OEsmall;
lastChange = "2024-02-10 03:05:57 +0000";
layers = (
{
anchors = (
{
name = _e;
position = "{531, 325}";
},
{
name = bottom;
position = "{444, 0}";
},
{
name = center;
position = "{279, 325}";
},
{
name = ogonek;
position = "{562, 10}";
},
{
name = top;
position = "{444, 647}";
},
{
name = topleft;
position = "{398, 650}";
},
{
name = topright;
position = "{613, 650}";
}
);
layerId = "BADE114B-EA49-45B4-AE36-72A7CEB6E1BE";
paths = (
{
closed = 1;
nodes = (
"42 85 OFFCURVE",
"157 -10 OFFCURVE",
"359 -10 CURVE SMOOTH",
"419 -10 LINE",
"419 148 LINE",
"391 148 LINE SMOOTH",
"319 148 OFFCURVE",
"276 214 OFFCURVE",
"276 325 CURVE",
"42 325 LINE"
);
},
{
closed = 1;
nodes = (
"276 325 LINE",
"276 436 OFFCURVE",
"319 502 OFFCURVE",
"391 502 CURVE SMOOTH",
"419 502 LINE",
"419 660 LINE",
"359 660 LINE SMOOTH",
"157 660 OFFCURVE",
"42 565 OFFCURVE",
"42 325 CURVE"
);
},
{
closed = 1;
nodes = (
"419 -10 LINE",
"626 -10 LINE",
"617 139 LINE",
"617 490 LINE",
"626 660 LINE",
"419 660 LINE"
);
},
{
closed = 1;
nodes = (
"760 222 LINE",
"764 249 OFFCURVE",
"766 279 OFFCURVE",
"766 314 CURVE SMOOTH",
"766 339 OFFCURVE",
"764 370 OFFCURVE",
"760 406 CURVE",
"617 402 LINE",
"617 226 LINE"
);
},
{
closed = 1;
nodes = (
"617 490 LINE",
"688 490 OFFCURVE",
"782 490 OFFCURVE",
"875 479 CURVE",
"875 547 OFFCURVE",
"873 595 OFFCURVE",
"869 644 CURVE",
"759 657 OFFCURVE",
"700 658 OFFCURVE",
"626 660 CURVE"
);
},
{
closed = 1;
nodes = (
"700 -10 OFFCURVE",
"759 -10 OFFCURVE",
"869 -1 CURVE",
"873 49 OFFCURVE",
"875 78 OFFCURVE",
"875 148 CURVE",
"782 139 OFFCURVE",
"688 139 OFFCURVE",
"617 139 CURVE",
"626 -10 LINE"
);
}
);
width = 930;
}
);
leftKerningGroup = o;
leftMetricsKey = o;
rightKerningGroup = idotless;
rightMetricsKey = idotless;
unicode = 0276;
},
{
color = 3;
glyphname = Rsmall;
lastChange = "2024-02-10 03:01:04 +0000";
layers = (
{
anchors = (
{
name = top;
position = "{359, 652.229}";
}
);
layerId = "BADE114B-EA49-45B4-AE36-72A7CEB6E1BE";
paths = (
{
closed = 1;
nodes = (
"580 0 OFFCURVE {stroke = {w = \"1\";};}",
"627 27 OFFCURVE {stroke = {w = \"1\";};}",
"627 27 CURVE {stroke = {w = \"1\";};}",
"532 296 LINE",
"340 232 LINE {stroke = {w = \"1\";};}",
"392 14 LINE {stroke = {w = \"1\";};}",
"392 14 OFFCURVE {stroke = {w = \"1\";};}",
"430 0 OFFCURVE {stroke = {w = \"1\";};}",
"493 0 CURVE {stroke = {w = \"1\";};}"
);
},
{
closed = 1;
nodes = (
"503 223 OFFCURVE",
"621 294 OFFCURVE",
"621 447 CURVE SMOOTH",
"621 594 OFFCURVE",
"510 661 OFFCURVE",
"309 659.993 CURVE",
"279 505.477 LINE",
"321 505 LINE SMOOTH",
"356 505 OFFCURVE",
"387 486 OFFCURVE",
"387 443 CURVE SMOOTH",
"388 398 OFFCURVE",
"357 378 OFFCURVE",
"321 378 CURVE SMOOTH",
"279 378.137 LINE",
"289 222.845 LINE"
);
},
{
closed = 1;
nodes = (
"289 326.114 LINE",
"279 378.137 LINE",
"279 505.477 LINE",
"309 659.993 LINE",
"133 659.993 OFFCURVE",
"63 646.017 OFFCURVE",
"63 646.017 CURVE",
"63 646.017 OFFCURVE",
"55 516.348 OFFCURVE",
"55 326.114 CURVE"
);
},
{
closed = 1;
nodes = (
"250 0 OFFCURVE",
"289 13.976 OFFCURVE",
"289 13.976 CURVE",
"289 326.114 LINE",
"55 326.114 LINE",
"55 143.646 OFFCURVE",
"59 13.976 OFFCURVE",
"59 13.976 CURVE SMOOTH",
"59 13.976 OFFCURVE",
"94 0 OFFCURVE",
"172 0 CURVE SMOOTH"
);
}
);
width = 669;
}
);
leftMetricsKey = idotless;
rightMetricsKey = o;
unicode = 0280;
},
{
color = 4;
glyphname = a;
lastChange = "2024-02-07 04:50:12 +0000";
layers = (
{
anchors = (
{
name = bottom;
position = "{341, 0}";
},
{
name = e;
position = "{543, 324}";
},
{
name = ogonek;
position = "{495, 10}";
},
{
name = top;
position = "{344, 650}";
}
);
layerId = "BADE114B-EA49-45B4-AE36-72A7CEB6E1BE";
paths = (
{
closed = 1;
nodes = (
"135 472 OFFCURVE",
"180 453 OFFCURVE",
"263 430 CURVE",
"285 459 OFFCURVE",
"314 476 OFFCURVE",
"340 476 CURVE SMOOTH",
"377 476 OFFCURVE",
"394 459 OFFCURVE",
"394 435 CURVE SMOOTH",
"394 420 OFFCURVE",
"386 408 OFFCURVE",
"359 404 CURVE SMOOTH",
"313 397 OFFCURVE",
"282 392 OFFCURVE",
"215 382 CURVE SMOOTH",
"80 361 OFFCURVE",
"38 277 OFFCURVE",
"38 188 CURVE SMOOTH",
"38 45 OFFCURVE",
"132 -5 OFFCURVE",
"252 -5 CURVE SMOOTH",
"320 -5 OFFCURVE",
"367 12 OFFCURVE",
"410 53 CURVE",
"414 13 LINE",
"435 6 OFFCURVE",
"452 0 OFFCURVE",
"514 0 CURVE SMOOTH",
"573 0 OFFCURVE",
"596 5 OFFCURVE",
"620 15 CURVE",
"624 63 OFFCURVE",
"626 236 OFFCURVE",
"625 396 CURVE SMOOTH",
"624 565 OFFCURVE",
"543 660 OFFCURVE",
"344 660 CURVE SMOOTH",
"215 660 OFFCURVE",
"132 610 OFFCURVE",
"72 515 CURVE"
);
},
{
closed = 1;
nodes = (
"256 237 OFFCURVE",
"283 249 OFFCURVE",
"330 259 CURVE SMOOTH",
"356 265 OFFCURVE",
"376 270 OFFCURVE",
"406 282 CURVE",
"406 213 LINE SMOOTH",
"406 175 OFFCURVE",
"379 147 OFFCURVE",
"328 147 CURVE SMOOTH",
"282 147 OFFCURVE",
"256 163 OFFCURVE",
"256 199 CURVE SMOOTH"
);
}
);
width = 670;
}
);
leftKerningGroup = a;
rightKerningGroup = n;
rightMetricsKey = n;
unicode = 0061;
},
{
color = 4;
glyphname = "alpha-latin";
lastChange = "2024-02-04 00:22:54 +0000";
layers = (
{
anchors = (
{
name = bottom;
position = "{361, 0}";
},
{
name = ogonek;
position = "{552, 0}";
},
{
name = top;
position = "{381, 650}";
}
);
layerId = "BADE114B-EA49-45B4-AE36-72A7CEB6E1BE";
paths = (
{
closed = 1;
nodes = (
"351 -10 OFFCURVE",
"422 5 OFFCURVE",
"437 41 CURVE",
"437 249 LINE",
"437 219 OFFCURVE",
"414 166 OFFCURVE",
"361 166 CURVE SMOOTH",
"315 166 OFFCURVE",
"282 214 OFFCURVE",
"282 325 CURVE SMOOTH",
"282 436 OFFCURVE",
"315 484 OFFCURVE",
"361 484 CURVE SMOOTH",
"405 484 OFFCURVE",
"437 455 OFFCURVE",
"437 430 CURVE",
"437 631 LINE",
"411 642 OFFCURVE",
"365 650 OFFCURVE",
"299 650 CURVE SMOOTH",
"133 650 OFFCURVE",
"50 549 OFFCURVE",
"50 325 CURVE SMOOTH",
"50 102 OFFCURVE",
"133 -8 OFFCURVE",
"299 -10 CURVE SMOOTH"
);
},
{
closed = 1;
nodes = (
"641 0 OFFCURVE",
"666 17 OFFCURVE",
"666 17 CURVE",
"666 18 OFFCURVE",
"671 140 OFFCURVE",
"671 325 CURVE",
"552 325 LINE",
"552 0 LINE"
);
},
{
closed = 1;
nodes = (
"552 650 LINE",
"501 650 OFFCURVE",
"463 644 OFFCURVE",
"437 631 CURVE",
"437 41 LINE",
"437 18 LINE",
"468 6 OFFCURVE",
"497 0 OFFCURVE",
"552 0 CURVE"
);
},
{
closed = 1;
nodes = (
"671 325 LINE",
"671 511 OFFCURVE",
"667 633 OFFCURVE",
"666 633 CURVE",
"666 633 OFFCURVE",
"641 650 OFFCURVE",
"552 650 CURVE",
"552 325 LINE"
);
}
);
width = 721;
}
);
leftKerningGroup = o;
rightKerningGroup = idotless;
unicode = 0251;
},
{
color = 4;
glyphname = ae;
lastChange = "2024-02-04 03:57:59 +0000";
layers = (
{
anchors = (
{
name = bottom;
position = "{343, 0}";
},
{
name = ogonek;
position = "{493, 10}";
},
{
name = top;
position = "{346, 650}";
}
);
components = (
{
alignment = -1;
name = e;
transform = "{1, 0, 0, 1, 384, 0}";
}
);
layerId = "BADE114B-EA49-45B4-AE36-72A7CEB6E1BE";
paths = (
{
closed = 1;
nodes = (
"147 462 OFFCURVE",
"192 443 OFFCURVE",
"275 420 CURVE",
"298 449 OFFCURVE",
"329 466 OFFCURVE",
"356 466 CURVE SMOOTH",
"395 466 OFFCURVE",
"413 449 OFFCURVE",
"413 425 CURVE SMOOTH",
"413 410 OFFCURVE",
"404 398 OFFCURVE",
"376 394 CURVE SMOOTH",
"325 387 OFFCURVE",
"294 382 OFFCURVE",
"227 372 CURVE SMOOTH",
"92 351 OFFCURVE",
"50 277 OFFCURVE",
"50 188 CURVE SMOOTH",
"50 45 OFFCURVE",
"144 -10 OFFCURVE",
"340 -10 CURVE SMOOTH",
"495 -10 OFFCURVE",
"640 75 OFFCURVE",
"640 252 CURVE SMOOTH",
"640 294 OFFCURVE",
"640 338 OFFCURVE",
"640 386 CURVE SMOOTH",
"640 555 OFFCURVE",
"558 650 OFFCURVE",
"356 650 CURVE SMOOTH",
"227 650 OFFCURVE",
"144 600 OFFCURVE",
"84 505 CURVE"
);
},
{
closed = 1;
nodes = (
"268 235 OFFCURVE",
"295 244 OFFCURVE",
"342 254 CURVE SMOOTH",
"368 260 OFFCURVE",
"388 265 OFFCURVE",
"418 277 CURVE",
"418 211 LINE SMOOTH",
"418 173 OFFCURVE",
"391 145 OFFCURVE",
"340 145 CURVE SMOOTH",
"294 145 OFFCURVE",
"268 161 OFFCURVE",
"268 197 CURVE SMOOTH"
);
}
);
width = 1076;
}
);
leftKerningGroup = a;
rightKerningGroup = o;
unicode = 00E6;
},
{
color = 4;
glyphname = b;
lastChange = "2024-02-07 00:52:40 +0000";
layers = (
{
anchors = (
{
name = bottom;
position = "{366, 0}";
},
{
name = top;
position = "{366, 650}";
}
);
layerId = "BADE114B-EA49-45B4-AE36-72A7CEB6E1BE";
paths = (
{
closed = 1;
nodes = (
"554 -8 OFFCURVE",
"671 82 OFFCURVE",
"671 323 CURVE SMOOTH",
"671 593 OFFCURVE",
"537 660 OFFCURVE",
"411 660 CURVE SMOOTH",
"362 660 OFFCURVE",
"317 651 OFFCURVE",
"289 633 CURVE",
"289 871 LINE",
"263 884 OFFCURVE",
"225 890 OFFCURVE",
"174 890 CURVE SMOOTH",
"85 890 OFFCURVE",
"60 873 OFFCURVE",
"60 873 CURVE SMOOTH",
"59 873 OFFCURVE",
"55 751 OFFCURVE",
"55 325 CURVE SMOOTH",
"55 139 OFFCURVE",
"60 14 OFFCURVE",
"60 14 CURVE SMOOTH",
"60 14 OFFCURVE",
"105 0 OFFCURVE",
"159 0 CURVE SMOOTH",
"205 0 OFFCURVE",
"235 3 OFFCURVE",
"269 10 CURVE",
"273 41 LINE",
"313 5 OFFCURVE",
"366 -12 OFFCURVE",
"427 -10 CURVE SMOOTH"
);
},
{
closed = 1;
nodes = (
"289 446 LINE",
"304 465 OFFCURVE",
"330 476 OFFCURVE",
"362 476 CURVE SMOOTH",
"408 476 OFFCURVE",
"452 446 OFFCURVE",
"452 328 CURVE SMOOTH",
"452 210 OFFCURVE",
"408 180 OFFCURVE",
"362 180 CURVE SMOOTH",
"330 180 OFFCURVE",
"304 191 OFFCURVE",
"289 210 CURVE"
);
}
);
width = 713;
}
);
leftKerningGroup = I;
leftMetricsKey = I;
note = b;
rightKerningGroup = n;
rightMetricsKey = o;
unicode = 0062;
},
{
color = 4;
glyphname = bhook;
lastChange = "2024-02-04 01:11:53 +0000";
layers = (
{
layerId = "BADE114B-EA49-45B4-AE36-72A7CEB6E1BE";
paths = (
{
closed = 1;
nodes = (
"103 930 OFFCURVE",
"50 848 OFFCURVE",
"50 700 CURVE SMOOTH",
"50 325 LINE",
"284 325 LINE",
"284 704 LINE SMOOTH",
"284 741 OFFCURVE",
"294 751 OFFCURVE",
"329 751 CURVE SMOOTH",
"358 751 OFFCURVE",
"364 756 OFFCURVE",
"364 778 CURVE SMOOTH",
"364 914 LINE SMOOTH",
"364 923 OFFCURVE",
"358 930 OFFCURVE",
"348 930 CURVE SMOOTH",
"262 930 LINE SMOOTH"
);
},
{
closed = 1;
nodes = (
"549 -8 OFFCURVE",
"666 82 OFFCURVE",
"666 323 CURVE SMOOTH",
"666 593 OFFCURVE",
"532 660 OFFCURVE",
"406 660 CURVE SMOOTH",
"357 660 OFFCURVE",
"312 651 OFFCURVE",
"284 633 CURVE",
"50 325 LINE",
"50 139 OFFCURVE",
"55 14 OFFCURVE",
"55 14 CURVE SMOOTH",
"55 14 OFFCURVE",
"100 0 OFFCURVE",
"154 0 CURVE SMOOTH",
"200 0 OFFCURVE",
"230 3 OFFCURVE",
"264 10 CURVE",
"268 41 LINE",
"308 5 OFFCURVE",
"361 -12 OFFCURVE",
"422 -10 CURVE SMOOTH"
);
},
{
closed = 1;
nodes = (
"284 446 LINE",
"299 465 OFFCURVE",
"325 476 OFFCURVE",
"357 476 CURVE SMOOTH",
"403 476 OFFCURVE",
"447 446 OFFCURVE",
"447 328 CURVE SMOOTH",
"447 210 OFFCURVE",
"403 180 OFFCURVE",
"357 180 CURVE SMOOTH",
"325 180 OFFCURVE",
"299 191 OFFCURVE",
"284 210 CURVE"
);
}
);
width = 716;
}
);
leftKerningGroup = l;
rightKerningGroup = n;
unicode = 0253;
},
{
color = 4;
glyphname = bilabialclick;
lastChange = "2024-02-04 01:11:53 +0000";
layers = (
{
components = (
{
name = O;
}
);
hints = (
{
horizontal = 1;
place = "{421, 21}";
target = up;
type = BottomGhost;
}
);
layerId = "BADE114B-EA49-45B4-AE36-72A7CEB6E1BE";
paths = (
{
closed = 1;
nodes = (
"435 320 OFFCURVE",
"474 346 OFFCURVE",
"474 421 CURVE SMOOTH",
"474 494 OFFCURVE",
"435 520 OFFCURVE",
"400 520 CURVE SMOOTH",
"364 520 OFFCURVE",
"326 494 OFFCURVE",
"326 421 CURVE SMOOTH",
"326 346 OFFCURVE",
"364 320 OFFCURVE",
"400 320 CURVE SMOOTH"
);
}
);
width = 800;
}
);
leftKerningGroup = O;
rightKerningGroup = O;
unicode = 0298;
},
{
color = 4;
glyphname = c;
lastChange = "2024-02-09 10:38:25 +0000";
layers = (
{
anchors = (
{
name = bottom;
position = "{346, 0}";
},
{
name = top;
position = "{346, 650}";
}
);
layerId = "BADE114B-EA49-45B4-AE36-72A7CEB6E1BE";
paths = (
{
closed = 1;
nodes = (
"272 325 LINE",
"272 431 OFFCURVE",
"312 475 OFFCURVE",
"354 475 CURVE",
"348 660 LINE",
"165 660 OFFCURVE",
"42 581 OFFCURVE",
"42 325 CURVE"
);
},
{
closed = 1;
nodes = (
"354 175 LINE",
"312 175 OFFCURVE",
"272 219 OFFCURVE",
"272 325 CURVE",
"42 325 LINE",
"42 69 OFFCURVE",
"165 -10 OFFCURVE",
"348 -10 CURVE"
);
},
{
closed = 1;
nodes = (
"529 -9 OFFCURVE",
"626 58 OFFCURVE",
"650 222 CURVE",
"592 237 OFFCURVE",
"511 245 OFFCURVE",
"422 243 CURVE",
"411 190 OFFCURVE",
"386 175 OFFCURVE",
"354 175 CURVE",
"348 -10 LINE"
);
},
{
closed = 1;
nodes = (
"511 405 OFFCURVE",
"592 413 OFFCURVE",
"650 428 CURVE",
"626 592 OFFCURVE",
"529 659 OFFCURVE",
"348 660 CURVE",
"354 475 LINE",
"386 475 OFFCURVE",
"411 460 OFFCURVE",
"422 407 CURVE"
);
}
);
width = 692;
}
);
leftKerningGroup = o;
leftMetricsKey = o;
note = c;
rightKerningGroup = c;
unicode = 0063;
},
{
color = 4;
glyphname = ccurl;
lastChange = "2024-02-04 00:26:35 +0000";
layers = (
{
layerId = "BADE114B-EA49-45B4-AE36-72A7CEB6E1BE";
paths = (
{
closed = 1;
nodes = (
"280 291 LINE",
"280 431 OFFCURVE",
"320 475 OFFCURVE",
"362 475 CURVE",
"356 660 LINE",
"173 660 OFFCURVE",
"50 581 OFFCURVE",
"50 325 CURVE"
);
},
{
closed = 1;
nodes = (
"402 101 LINE",
"302 101 OFFCURVE",
"280 185 OFFCURVE",
"280 291 CURVE",
"50 325 LINE",
"50 69 OFFCURVE",
"213 -10 OFFCURVE",
"396 -10 CURVE"
);
},
{
closed = 1;
nodes = (
"519 405 OFFCURVE",
"600 413 OFFCURVE",
"658 428 CURVE",
"634 592 OFFCURVE",
"537 659 OFFCURVE",
"356 660 CURVE",
"362 475 LINE",
"394 475 OFFCURVE",
"419 460 OFFCURVE",
"430 407 CURVE"
);
},
{
closed = 1;
nodes = (
"444 343 OFFCURVE",
"393 307 OFFCURVE",
"353 204 CURVE SMOOTH",
"311 95 OFFCURVE",
"293 35 OFFCURVE",
"271 -74 CURVE",
"271 -74 OFFCURVE",
"282 -82 OFFCURVE",
"326 -83 CURVE SMOOTH",
"370 -83 OFFCURVE",
"383 -73 OFFCURVE",
"383 -73 CURVE",
"399 4 OFFCURVE",
"422 89 OFFCURVE",
"450 163 CURVE SMOOTH",
"468 209 OFFCURVE",
"490 224 OFFCURVE",
"518 224 CURVE SMOOTH",
"541 224 OFFCURVE",
"551 206 OFFCURVE",
"551 187 CURVE SMOOTH",
"551 135 OFFCURVE",
"505 101 OFFCURVE",
"402 101 CURVE",
"356 -10 LINE",
"550 -10 OFFCURVE",
"662 69 OFFCURVE",
"662 195 CURVE SMOOTH",
"662 274 OFFCURVE",
"607 343 OFFCURVE",
"519 343 CURVE SMOOTH"
);
}
);
width = 712;
}
);
leftKerningGroup = o;
rightKerningGroup = c;
unicode = 0255;
},
{
color = 4;
glyphname = eth;
lastChange = "2024-02-04 01:08:20 +0000";
layers = (
{
layerId = "BADE114B-EA49-45B4-AE36-72A7CEB6E1BE";
paths = (
{
closed = 1;
nodes = (
"627 766 LINE",
"608 808 LINE",
"243 634 LINE",
"262 592 LINE"
);
},
{
closed = 1;
nodes = (
"298 163 OFFCURVE",
"273 212 OFFCURVE",
"273 284 CURVE SMOOTH",
"273 355 OFFCURVE",
"298 404 OFFCURVE",
"345 404 CURVE SMOOTH",
"392 404 OFFCURVE",
"417 355 OFFCURVE",
"417 284 CURVE SMOOTH",
"417 212 OFFCURVE",
"392 163 OFFCURVE",
"345 163 CURVE SMOOTH"
);
},
{
closed = 1;
nodes = (
"552 -10 OFFCURVE",
"654 88 OFFCURVE",
"654 373 CURVE SMOOTH",
"654 693 OFFCURVE",
"517 840 OFFCURVE",
"217 840 CURVE",
"193 693 LINE",
"340 693 OFFCURVE",
"427 615 OFFCURVE",
"427 505 CURVE",
"401 549 OFFCURVE",
"335 579 OFFCURVE",
"262 579 CURVE SMOOTH",
"136 579 OFFCURVE",
"50 475 OFFCURVE",
"50 319 CURVE SMOOTH",
"50 84 OFFCURVE",
"163 -10 OFFCURVE",
"356 -10 CURVE SMOOTH"
);
}
);
width = 704;
}
);
leftKerningGroup = o;
rightKerningGroup = I;
unicode = 00F0;
},
{
color = 4;
glyphname = dcroat;
lastChange = "2024-02-04 04:05:09 +0000";
layers = (
{
components = (
{
name = d;
},
{
name = strokeshortcomb;
transform = "{1, 0, 0, 1, -5, 0}";
}
);
layerId = "BADE114B-EA49-45B4-AE36-72A7CEB6E1BE";
paths = (
{
closed = 1;
nodes = (
"716 690 LINE",
"716 790 LINE",
"326 790 LINE",
"326 690 LINE"
);
}
);
width = 708;
}
);
leftKerningGroup = o;
rightKerningGroup = I;
unicode = 0111;
},
{
color = 4;
glyphname = dhook;
lastChange = "2024-02-04 01:19:38 +0000";
layers = (
{
layerId = "BADE114B-EA49-45B4-AE36-72A7CEB6E1BE";
paths = (
{
closed = 1;
nodes = (
"485 930 OFFCURVE",
"432 850 OFFCURVE",
"432 700 CURVE SMOOTH",
"432 317 LINE",
"666 317 LINE",
"666 716 LINE SMOOTH",
"666 741 OFFCURVE",
"676 751 OFFCURVE",
"696 751 CURVE SMOOTH",
"710 751 OFFCURVE",
"716 756 OFFCURVE",
"716 772 CURVE SMOOTH",
"716 914 LINE SMOOTH",
"716 923 OFFCURVE",
"710 930 OFFCURVE",
"700 930 CURVE SMOOTH",
"644 930 LINE SMOOTH"
);
},
{
closed = 1;
nodes = (
"355 -12 OFFCURVE",
"408 5 OFFCURVE",
"448 41 CURVE",
"452 10 LINE",
"486 3 OFFCURVE",
"516 0 OFFCURVE",
"562 0 CURVE SMOOTH",
"616 0 OFFCURVE",
"661 14 OFFCURVE",
"661 14 CURVE SMOOTH",
"661 14 OFFCURVE",
"666 139 OFFCURVE",
"666 325 CURVE",
"432 633 LINE",
"404 651 OFFCURVE",
"359 660 OFFCURVE",
"310 660 CURVE SMOOTH",
"184 660 OFFCURVE",
"50 593 OFFCURVE",
"50 323 CURVE SMOOTH",
"50 82 OFFCURVE",
"167 -8 OFFCURVE",
"294 -10 CURVE SMOOTH"
);
},
{
closed = 1;
nodes = (
"417 191 OFFCURVE",
"391 180 OFFCURVE",
"359 180 CURVE SMOOTH",
"313 180 OFFCURVE",
"269 210 OFFCURVE",
"269 328 CURVE SMOOTH",
"269 446 OFFCURVE",
"313 476 OFFCURVE",
"359 476 CURVE SMOOTH",
"391 476 OFFCURVE",
"417 465 OFFCURVE",
"432 446 CURVE",
"432 210 LINE"
);
}
);
width = 766;
}
);
leftKerningGroup = o;
rightKerningGroup = I;
unicode = 0257;
},
{
color = 4;
glyphname = dtail;
lastChange = "2024-02-04 01:19:47 +0000";
layers = (
{
layerId = "BADE114B-EA49-45B4-AE36-72A7CEB6E1BE";
paths = (
{
closed = 1;
nodes = (
"351 -10 OFFCURVE",
"422 5 OFFCURVE",
"437 41 CURVE",
"437 249 LINE",
"437 219 OFFCURVE",
"414 166 OFFCURVE",
"361 166 CURVE SMOOTH",
"315 166 OFFCURVE",
"282 214 OFFCURVE",
"282 325 CURVE SMOOTH",
"282 436 OFFCURVE",
"315 484 OFFCURVE",
"361 484 CURVE SMOOTH",
"405 484 OFFCURVE",
"437 455 OFFCURVE",
"437 430 CURVE",
"437 641 LINE",
"411 652 OFFCURVE",
"365 660 OFFCURVE",
"299 660 CURVE SMOOTH",
"133 660 OFFCURVE",
"50 549 OFFCURVE",
"50 325 CURVE SMOOTH",
"50 102 OFFCURVE",
"133 -8 OFFCURVE",
"299 -10 CURVE SMOOTH"
);
},
{
closed = 1;
nodes = (
"552 840 LINE",
"501 840 OFFCURVE",
"463 834 OFFCURVE",
"437 821 CURVE",
"437 41 LINE",
"437 325 LINE",
"468 325 OFFCURVE",
"497 325 OFFCURVE",
"552 325 CURVE"
);
},
{
closed = 1;
nodes = (
"671 701 OFFCURVE",
"667 823 OFFCURVE",
"666 823 CURVE",
"666 823 OFFCURVE",
"641 840 OFFCURVE",
"552 840 CURVE",
"552 325 LINE",
"671 325 LINE"
);
},
{
closed = 1;
nodes = (
"689 -240 OFFCURVE",
"723 -234 OFFCURVE",
"753 -225 CURVE",
"758 -167 OFFCURVE",
"753 -98 OFFCURVE",
"747 -47 CURVE",
"683 -59 OFFCURVE",
"671 -45 OFFCURVE",
"671 12 CURVE",
"671 325 LINE",
"437 325 LINE",
"437 -47 LINE",
"438 -206 OFFCURVE",
"506 -240 OFFCURVE",
"623 -240 CURVE"
);
}
);
width = 805;
}
);
leftKerningGroup = o;
rightKerningGroup = mark_below;
unicode = 0256;
},
{
color = 4;
glyphname = e;
lastChange = "2024-02-10 00:34:52 +0000";
layers = (
{
anchors = (
{
name = _e;
position = "{178, 324}";
},
{
name = bottom;
position = "{351, 0}";
},
{
name = ogonek;
position = "{396, 0}";
},
{
name = top;
position = "{351, 650}";
}
);
background = {
paths = (
{
closed = 1;
nodes = (
"272 325 LINE",
"272 431 OFFCURVE",
"312 475 OFFCURVE",
"354 475 CURVE",
"348 660 LINE",
"165 660 OFFCURVE",
"42 581 OFFCURVE",
"42 325 CURVE"
);
},
{
closed = 1;
nodes = (
"354 175 LINE",
"312 175 OFFCURVE",
"272 219 OFFCURVE",
"272 325 CURVE",
"42 325 LINE",
"42 69 OFFCURVE",
"165 -10 OFFCURVE",
"348 -10 CURVE"
);
},
{
closed = 1;
nodes = (
"529 -9 OFFCURVE",
"626 58 OFFCURVE",
"650 222 CURVE",
"592 237 OFFCURVE",
"511 245 OFFCURVE",
"422 243 CURVE",
"411 190 OFFCURVE",
"386 175 OFFCURVE",
"354 175 CURVE",
"348 -10 LINE"
);
},
{
closed = 1;
nodes = (
"511 405 OFFCURVE",
"592 413 OFFCURVE",
"650 428 CURVE",
"626 592 OFFCURVE",
"529 659 OFFCURVE",
"348 660 CURVE",
"354 475 LINE",
"386 475 OFFCURVE",
"411 460 OFFCURVE",
"422 407 CURVE"
);
}
);
};
layerId = "BADE114B-EA49-45B4-AE36-72A7CEB6E1BE";
paths = (
{
closed = 1;
nodes = (
"52 64 OFFCURVE",
"177 -10 OFFCURVE",
"363 -10 CURVE SMOOTH",
"463 -10 OFFCURVE",
"554 18 OFFCURVE",
"644 80 CURVE",
"607 231 LINE",
"525 182 OFFCURVE",
"454 164 OFFCURVE",
"385 164 CURVE SMOOTH",
"308 164 OFFCURVE",
"275 203 OFFCURVE",
"270 247 CURVE",
"389 257 OFFCURVE",
"503 272 OFFCURVE",
"609 292 CURVE SMOOTH",
"636 297 OFFCURVE",
"653 313 OFFCURVE",
"652 341 CURVE SMOOTH",
"644 553 OFFCURVE",
"566 660 OFFCURVE",
"361 660 CURVE SMOOTH",
"177 660 OFFCURVE",
"52 567 OFFCURVE",
"52 326 CURVE SMOOTH"
);
},
{
closed = 1;
nodes = (
"268 455 OFFCURVE",
"307 499 OFFCURVE",
"350 499 CURVE SMOOTH",
"399 499 OFFCURVE",
"432 463 OFFCURVE",
"432 400 CURVE",
"376 393 OFFCURVE",
"324 387 OFFCURVE",
"268 383 CURVE"
);
}
);
width = 694;
}
);
leftKerningGroup = o;
leftMetricsKey = o;
rightKerningGroup = o;
unicode = 0065;
},
{
color = 4;
glyphname = eopenreversedclosed;
lastChange = "2024-02-04 01:21:54 +0000";
layers = (
{
layerId = "BADE114B-EA49-45B4-AE36-72A7CEB6E1BE";
paths = (
{
closed = 1;
nodes = (
"543 -10 OFFCURVE",
"617 62 OFFCURVE",
"617 196 CURVE SMOOTH",
"617 260 OFFCURVE",
"591 309 OFFCURVE",
"543 331 CURVE",
"586 354 OFFCURVE",
"610 400 OFFCURVE",
"610 468 CURVE SMOOTH",
"610 590 OFFCURVE",
"537 660 OFFCURVE",
"354 660 CURVE",
"357 488 LINE",
"384 488 OFFCURVE",
"403 472 OFFCURVE",
"403 437 CURVE SMOOTH",
"403 406 OFFCURVE",
"391 390 OFFCURVE",
"342 390 CURVE",
"342 271 LINE",
"392 271 OFFCURVE",
"404 255 OFFCURVE",
"404 222 CURVE SMOOTH",
"404 183 OFFCURVE",
"386 166 OFFCURVE",
"354 166 CURVE",
"354 -10 LINE"
);
},
{
closed = 1;
nodes = (
"264 325 LINE",
"264 439 OFFCURVE",
"291 488 OFFCURVE",
"357 488 CURVE",
"354 660 LINE",
"130 660 OFFCURVE",
"50 555 OFFCURVE",
"50 325 CURVE"
);
},
{
closed = 1;
nodes = (
"50 95 OFFCURVE",
"130 -10 OFFCURVE",
"354 -10 CURVE",
"354 166 LINE",
"288 166 OFFCURVE",
"264 211 OFFCURVE",
"264 325 CURVE",
"50 325 LINE"
);
}
);
width = 667;
}
);
leftKerningGroup = o;
rightKerningGroup = o;
unicode = 025E;
},
{
color = 0;
glyphname = eopenreversedhook;
lastChange = "2024-02-04 01:23:01 +0000";
layers = (
{
layerId = "BADE114B-EA49-45B4-AE36-72A7CEB6E1BE";
paths = (
{
closed = 1;
nodes = (
"484 -10 OFFCURVE",
"548 64 OFFCURVE",
"548 196 CURVE SMOOTH",
"548 268 OFFCURVE",
"522 309 OFFCURVE",
"474 331 CURVE",
"517 354 OFFCURVE",
"541 392 OFFCURVE",
"541 468 CURVE SMOOTH",
"541 588 OFFCURVE",
"478 660 OFFCURVE",
"297 660 CURVE SMOOTH",
"228 660 OFFCURVE",
"176 647 OFFCURVE",
"132 615 CURVE SMOOTH",
"88 582 OFFCURVE",
"61 521 OFFCURVE",
"57 435 CURVE",
"75 429 LINE",
"100 423 OFFCURVE",
"170 415 OFFCURVE",
"261 421 CURVE",
"261 459 OFFCURVE",
"275 488 OFFCURVE",
"300 488 CURVE SMOOTH",
"319 488 OFFCURVE",
"334 468 OFFCURVE",
"334 424 CURVE SMOOTH",
"334 385 OFFCURVE",
"326 365 OFFCURVE",
"293 365 CURVE",
"293 290 LINE",
"327 290 OFFCURVE",
"335 271 OFFCURVE",
"335 232 CURVE SMOOTH",
"335 186 OFFCURVE",
"321 166 OFFCURVE",
"297 166 CURVE SMOOTH",
"267 166 OFFCURVE",
"260 203 OFFCURVE",
"260 237 CURVE",
"169 244 OFFCURVE",
"82 233 OFFCURVE",
"50 222 CURVE",
"54 133 OFFCURVE",
"80 71 OFFCURVE",
"127 37 CURVE SMOOTH",
"173 2 OFFCURVE",
"225 -10 OFFCURVE",
"297 -10 CURVE SMOOTH"
);
},
{
closed = 1;
nodes = (
"554 184 OFFCURVE",
"652 140 OFFCURVE",
"742 205 CURVE",
"742 255 LINE",
"684 239 OFFCURVE",
"646 272 OFFCURVE",
"664 365 CURVE",
"443 365 LINE",
"443 290 LINE",
"572 290 LINE"
);
}
);
width = 792;
}
);
leftKerningGroup = o;
rightKerningGroup = schwa;
unicode = 025D;
},
{
color = 4;
glyphname = esh;
lastChange = "2024-02-07 01:38:22 +0000";
layers = (
{
layerId = "BADE114B-EA49-45B4-AE36-72A7CEB6E1BE";
paths = (
{
closed = 0;
nodes = (
"293 650 LINE"
);
},
{
closed = 0;
nodes = (
"293 650 LINE"
);
},
{
closed = 1;
nodes = (
"244 840 OFFCURVE",
"166 803 OFFCURVE",
"166 620 CURVE",
"398 -20 LINE",
"400 562 LINE",
"399 630 OFFCURVE",
"409 656 OFFCURVE",
"488 638 CURVE",
"515 703 OFFCURVE",
"531 773 OFFCURVE",
"534 816 CURVE",
"485 833 OFFCURVE",
"436 840 OFFCURVE",
"375 840 CURVE"
);
},
{
closed = 0;
nodes = (
"271 10 LINE"
);
},
{
closed = 1;
nodes = (
"320 -240 OFFCURVE",
"398 -203 OFFCURVE",
"398 -20 CURVE",
"166 620 LINE",
"164 38 LINE",
"165 -30 OFFCURVE",
"155 -56 OFFCURVE",
"76 -38 CURVE",
"49 -103 OFFCURVE",
"33 -173 OFFCURVE",
"30 -216 CURVE",
"79 -233 OFFCURVE",
"128 -240 OFFCURVE",
"189 -240 CURVE"
);
}
);
width = 552;
}
);
leftKerningGroup = esh;
rightKerningGroup = esh;
unicode = 0283;
},
{
color = 0;
glyphname = schwahook;
lastChange = "2024-02-04 01:23:05 +0000";
layers = (
{
anchors = (
{
name = bottom;
position = "{415, 650}";
},
{
name = ogonek;
position = "{415, 650}";
},
{
name = top;
position = "{415, 0}";
}
);
components = (
{
name = e;
transform = "{-1, 0, 0, -1, 692, 650}";
}
);
layerId = "BADE114B-EA49-45B4-AE36-72A7CEB6E1BE";
paths = (
{
closed = 1;
nodes = (
"669 184 OFFCURVE",
"767 140 OFFCURVE",
"857 205 CURVE",
"857 255 LINE",
"799 239 OFFCURVE",
"761 272 OFFCURVE",
"779 365 CURVE",
"628 365 LINE",
"628 290 LINE",
"687 290 LINE"
);
}
);
width = 907;
}
);
rightKerningGroup = schwa;
unicode = 025A;
},
{
color = 4;
glyphname = ezh;
lastChange = "2024-02-07 01:39:07 +0000";
layers = (
{
layerId = "BADE114B-EA49-45B4-AE36-72A7CEB6E1BE";
paths = (
{
closed = 1;
nodes = (
"579 396 LINE",
"374 464 LINE",
"268 312 LINE",
"268 169 LINE",
"468 249 LINE"
);
},
{
closed = 1;
nodes = (
"609 431 OFFCURVE",
"613 451 OFFCURVE",
"613 495 CURVE SMOOTH",
"613 527 OFFCURVE",
"609 607 OFFCURVE",
"604 637 CURVE",
"504 648 OFFCURVE",
"355 650 OFFCURVE",
"355 650 CURVE",
"374 464 LINE",
"579 396 LINE"
);
},
{
closed = 1;
nodes = (
"534 -239 OFFCURVE",
"647 -139 OFFCURVE",
"647 29 CURVE SMOOTH",
"647 195 OFFCURVE",
"549 290 OFFCURVE",
"391 290 CURVE",
"268 169 LINE",
"382 169 OFFCURVE",
"426 109 OFFCURVE",
"426 35 CURVE SMOOTH",
"426 -3 OFFCURVE",
"404 -48 OFFCURVE",
"350 -47 CURVE",
"346 -240 LINE"
);
},
{
closed = 1;
nodes = (
"350 -47 LINE",
"294 -46 OFFCURVE",
"267 13 OFFCURVE",
"267 90 CURVE",
"195 82 OFFCURVE",
"89 68 OFFCURVE",
"50 53 CURVE",
"55 -56 OFFCURVE",
"87 -136 OFFCURVE",
"144 -180 CURVE SMOOTH",
"199 -224 OFFCURVE",
"263 -240 OFFCURVE",
"346 -240 CURVE"
);
},
{
closed = 1;
nodes = (
"355 650 LINE",
"204 650 OFFCURVE",
"173 649 OFFCURVE",
"78 640 CURVE",
"74 622 OFFCURVE",
"70 593 OFFCURVE",
"71 553 CURVE SMOOTH",
"72 509 OFFCURVE",
"76 480 OFFCURVE",
"81 464 CURVE",
"374 464 LINE"
);
}
);
width = 697;
}
);
leftKerningGroup = idotless;
rightKerningGroup = g;
unicode = 0292;
},
{
color = 4;
glyphname = f;
lastChange = "2024-02-08 23:55:46 +0000";
layers = (
{
layerId = "BADE114B-EA49-45B4-AE36-72A7CEB6E1BE";
paths = (
{
closed = 1;
nodes = (
"388 464 LINE",
"388 464 OFFCURVE",
"392 479 OFFCURVE",
"392 542 CURVE SMOOTH",
"392 604 OFFCURVE",
"388 620 OFFCURVE",
"388 620 CURVE",
"207 620 LINE",
"161 640 LINE",
"36 640 LINE",
"36 640 OFFCURVE",
"32 622 OFFCURVE",
"32 552 CURVE SMOOTH",
"32 482 OFFCURVE",
"36 464 OFFCURVE",
"36 464 CURVE"
);
},
{
closed = 1;
nodes = (
"151 940 OFFCURVE",
"84 868 OFFCURVE",
"84 769 CURVE SMOOTH",
"84 725 OFFCURVE",
"95 674 OFFCURVE",
"111 640 CURVE",
"100 464 LINE",
"100 17 LINE",
"100 17 OFFCURVE",
"130 0 OFFCURVE",
"213 0 CURVE SMOOTH",
"269 0 OFFCURVE",
"296 6 OFFCURVE",
"325 19 CURVE",
"325 464 LINE",
"336 620 LINE",
"297 620 OFFCURVE",
"283 638 OFFCURVE",
"283 667 CURVE",
"283 691 OFFCURVE",
"297 713 OFFCURVE",
"329 713 CURVE SMOOTH",
"352 713 OFFCURVE",
"367 705 OFFCURVE",
"367 705 CURVE",
"409 906 LINE",
"409 906 OFFCURVE",
"339 940 OFFCURVE",
"263 940 CURVE SMOOTH"
);
}
);
width = 427;
}
);
leftKerningGroup = f;
rightKerningGroup = f;
unicode = 0066;
},
{
color = 4;
glyphname = g;
lastChange = "2024-02-09 10:40:19 +0000";
layers = (
{
anchors = (
{
name = bottom;
position = "{354, 0}";
},
{
name = top;
position = "{391, 650}";
}
);
background = {
paths = (
{
closed = 1;
nodes = (
"344 27 OFFCURVE",
"415 41 OFFCURVE",
"430 103 CURVE",
"430 322 LINE",
"430 256 OFFCURVE",
"398 216 OFFCURVE",
"354 216 CURVE SMOOTH",
"306 216 OFFCURVE",
"275 257 OFFCURVE",
"275 348 CURVE SMOOTH",
"275 438 OFFCURVE",
"308 480 OFFCURVE",
"354 480 CURVE SMOOTH",
"398 480 OFFCURVE",
"430 454 OFFCURVE",
"430 433 CURVE",
"430 631 LINE",
"404 641 OFFCURVE",
"358 649 OFFCURVE",
"292 649 CURVE SMOOTH",
"126 649 OFFCURVE",
"43 554 OFFCURVE",
"43 348 CURVE SMOOTH",
"43 142 OFFCURVE",
"127 29 OFFCURVE",
"292 27 CURVE SMOOTH"
);
}
);
};
layerId = "BADE114B-EA49-45B4-AE36-72A7CEB6E1BE";
paths = (
{
closed = 1;
nodes = (
"664 171 LINE",
"664 322 LINE SMOOTH",
"664 508 OFFCURVE",
"659 633 OFFCURVE",
"659 633 CURVE SMOOTH",
"659 633 OFFCURVE",
"614 647 OFFCURVE",
"560 647 CURVE SMOOTH",
"514 647 OFFCURVE",
"484 644 OFFCURVE",
"450 637 CURVE",
"446 606 LINE",
"407 640 OFFCURVE",
"346 660 OFFCURVE",
"283 658 CURVE SMOOTH",
"159 657 OFFCURVE",
"42 572 OFFCURVE",
"42 346 CURVE SMOOTH",
"42 92 OFFCURVE",
"176 29 OFFCURVE",
"292 29 CURVE SMOOTH",
"350 29 OFFCURVE",
"396 47 OFFCURVE",
"430 89 CURVE"
);
},
{
closed = 1;
nodes = (
"261 455 OFFCURVE",
"305 483 OFFCURVE",
"351 483 CURVE SMOOTH",
"386 483 OFFCURVE",
"414 467 OFFCURVE",
"430 442 CURVE",
"430 269 LINE",
"419 224 OFFCURVE",
"393 205 OFFCURVE",
"351 205 CURVE SMOOTH",
"305 205 OFFCURVE",
"261 233 OFFCURVE",
"261 344 CURVE SMOOTH"
);
},
{
closed = 1;
nodes = (
"548 -270 OFFCURVE",
"664 -144 OFFCURVE",
"664 69 CURVE SMOOTH",
"664 171 LINE",
"430 89 LINE",
"430 61 LINE SMOOTH",
"430 -37 OFFCURVE",
"381 -78 OFFCURVE",
"305 -78 CURVE SMOOTH",
"226 -78 OFFCURVE",
"173 -64 OFFCURVE",
"100 -24 CURVE",
"116 -231 LINE",
"159 -254 OFFCURVE",
"252 -270 OFFCURVE",
"351 -270 CURVE SMOOTH"
);
}
);
width = 714;
}
);
leftKerningGroup = o;
leftMetricsKey = o;
note = g;
rightKerningGroup = g;
unicode = 0067;
},
{
color = 4;
glyphname = "gamma-latin";
lastChange = "2024-02-04 01:32:13 +0000";
layers = (
{
layerId = "BADE114B-EA49-45B4-AE36-72A7CEB6E1BE";
paths = (
{
closed = 1;
nodes = (
"564 -270 OFFCURVE",
"670 -177 OFFCURVE",
"670 0 CURVE SMOOTH",
"670 78 OFFCURVE",
"637 161 OFFCURVE",
"553 281 CURVE",
"171 281 LINE",
"87 161 OFFCURVE",
"54 78 OFFCURVE",
"54 0 CURVE SMOOTH",
"54 -177 OFFCURVE",
"160 -270 OFFCURVE",
"362 -270 CURVE SMOOTH"
);
},
{
closed = 1;
nodes = (
"291 61 OFFCURVE",
"308 102 OFFCURVE",
"362 177 CURVE",
"416 102 OFFCURVE",
"433 61 OFFCURVE",
"433 1 CURVE SMOOTH",
"433 -50 OFFCURVE",
"407 -80 OFFCURVE",
"362 -80 CURVE SMOOTH",
"317 -80 OFFCURVE",
"291 -50 OFFCURVE",
"291 1 CURVE SMOOTH"
);
},
{
closed = 1;
nodes = (
"553 281 LINE",
"577 331 LINE",
"682 636 LINE",
"646 645 OFFCURVE",
"602 650 OFFCURVE",
"551 650 CURVE SMOOTH",
"517 650 OFFCURVE",
"468 646 OFFCURVE",
"441 638 CURVE",
"396 467 LINE",
"368 390 LINE",
"356 390 LINE",
"328 467 LINE",
"283 638 LINE",
"256 646 OFFCURVE",
"207 650 OFFCURVE",
"173 650 CURVE SMOOTH",
"122 650 OFFCURVE",
"78 645 OFFCURVE",
"42 636 CURVE",
"147 331 LINE",
"171 281 LINE"
);
}
);
width = 724;
}
);
leftKerningGroup = idotless;
rightKerningGroup = q;
unicode = 0263;
},
{
color = 4;
glyphname = ghook;
lastChange = "2024-02-04 01:34:51 +0000";
layers = (
{
anchors = (
{
name = bottom;
position = "{356, 0}";
},
{
name = top;
position = "{393, 650}";
}
);
components = (
{
name = g;
}
);
layerId = "BADE114B-EA49-45B4-AE36-72A7CEB6E1BE";
paths = (
{
closed = 1;
nodes = (
"492 890 OFFCURVE",
"442 810 OFFCURVE",
"439 660 CURVE SMOOTH",
"439 171 LINE",
"657 171 LINE",
"659 676 LINE SMOOTH",
"659 701 OFFCURVE",
"669 711 OFFCURVE",
"689 711 CURVE SMOOTH",
"703 711 OFFCURVE",
"709 716 OFFCURVE",
"709 732 CURVE SMOOTH",
"709 874 LINE SMOOTH",
"709 883 OFFCURVE",
"703 890 OFFCURVE",
"693 890 CURVE SMOOTH",
"640 890 LINE SMOOTH"
);
}
);
width = 719;
}
);
leftKerningGroup = o;
rightKerningGroup = g;
unicode = 0260;
},
{
color = 4;
glyphname = glottalstop;
lastChange = "2024-02-03 13:28:42 +0000";
layers = (
{
layerId = "BADE114B-EA49-45B4-AE36-72A7CEB6E1BE";
paths = (
{
closed = 1;
nodes = (
"97 542 OFFCURVE",
"177 529 OFFCURVE",
"278 529 CURVE",
"278 636 OFFCURVE",
"301 686 OFFCURVE",
"350 686 CURVE",
"342 850 LINE",
"158 850 OFFCURVE",
"58 751 OFFCURVE",
"50 561 CURVE"
);
},
{
closed = 1;
nodes = (
"457 352 OFFCURVE",
"637 408 OFFCURVE",
"636 615 CURVE SMOOTH",
"635 756 OFFCURVE",
"517 850 OFFCURVE",
"342 850 CURVE",
"350 686 LINE",
"388 686 OFFCURVE",
"405 651 OFFCURVE",
"405 611 CURVE SMOOTH",
"405 464 OFFCURVE",
"218 411 OFFCURVE",
"218 190 CURVE",
"457 190 LINE"
);
},
{
closed = 1;
nodes = (
"218 81 OFFCURVE",
"223 17 OFFCURVE",
"224 17 CURVE",
"224 17 OFFCURVE",
"250 0 OFFCURVE",
"338 0 CURVE SMOOTH",
"425 0 OFFCURVE",
"451 17 OFFCURVE",
"451 17 CURVE",
"452 17 OFFCURVE",
"457 111 OFFCURVE",
"457 190 CURVE",
"218 190 LINE"
);
}
);
width = 686;
}
);
unicode = 0294;
},
{
color = 4;
glyphname = glottalstopsmall;
lastChange = "2024-02-04 01:35:30 +0000";
layers = (
{
layerId = "BADE114B-EA49-45B4-AE36-72A7CEB6E1BE";
paths = (
{
closed = 1;
nodes = (
"97 342 OFFCURVE",
"177 329 OFFCURVE",
"278 329 CURVE",
"278 436 OFFCURVE",
"301 486 OFFCURVE",
"350 486 CURVE",
"342 650 LINE",
"158 650 OFFCURVE",
"58 551 OFFCURVE",
"50 361 CURVE"
);
},
{
closed = 1;
nodes = (
"457 190 OFFCURVE",
"636 197 OFFCURVE",
"636 415 CURVE SMOOTH",
"636 556 OFFCURVE",
"517 650 OFFCURVE",
"342 650 CURVE",
"350 486 LINE",
"388 486 OFFCURVE",
"405 451 OFFCURVE",
"405 411 CURVE SMOOTH",
"405 264 OFFCURVE",
"218 248 OFFCURVE",
"218 106 CURVE",
"457 77 LINE"
);
},
{
closed = 1;
nodes = (
"218 46 OFFCURVE",
"223 7 OFFCURVE",
"224 7 CURVE",
"224 7 OFFCURVE",
"250 -10 OFFCURVE",
"338 -10 CURVE SMOOTH",
"425 -10 OFFCURVE",
"455 7 OFFCURVE",
"455 7 CURVE",
"456 7 OFFCURVE",
"457 28 OFFCURVE",
"457 77 CURVE",
"218 106 LINE"
);
}
);
width = 686;
}
);
leftKerningGroup = o;
rightKerningGroup = o;
unicode = 0242;
},
{
color = 4;
glyphname = glottalstopstroke;
lastChange = "2024-02-03 13:28:42 +0000";
layers = (
{
components = (
{
name = glottalstop;
}
);
layerId = "BADE114B-EA49-45B4-AE36-72A7CEB6E1BE";
paths = (
{
closed = 1;
nodes = (
"538 160 LINE",
"538 260 LINE",
"104 260 LINE",
"104 160 LINE"
);
}
);
width = 686;
}
);
unicode = 02A1;
},
{
color = 4;
glyphname = h;
lastChange = "2024-02-07 00:55:52 +0000";
layers = (
{
anchors = (
{
name = bottom;
position = "{348, 0}";
},
{
name = center;
position = "{348, 325}";
},
{
name = top;
position = "{173, 890}";
}
);
layerId = "BADE114B-EA49-45B4-AE36-72A7CEB6E1BE";
paths = (
{
closed = 1;
nodes = (
"288 633 LINE",
"288 871 LINE",
"262 884 OFFCURVE",
"224 890 OFFCURVE",
"173 890 CURVE SMOOTH",
"84 890 OFFCURVE",
"59 873 OFFCURVE",
"59 873 CURVE SMOOTH",
"58 873 OFFCURVE",
"54 751 OFFCURVE",
"54 325 CURVE SMOOTH",
"54 139 OFFCURVE",
"59 14 OFFCURVE",
"59 14 CURVE SMOOTH",
"59 14 OFFCURVE",
"104 0 OFFCURVE",
"173 0 CURVE SMOOTH",
"221 0 OFFCURVE",
"252 3 OFFCURVE",
"288 10 CURVE",
"288 41 LINE"
);
},
{
closed = 1;
nodes = (
"600 0 OFFCURVE",
"641 6 OFFCURVE",
"665 17 CURVE",
"670 127 OFFCURVE",
"673 235 OFFCURVE",
"673 378 CURVE SMOOTH",
"673 569 OFFCURVE",
"603 660 OFFCURVE",
"454 660 CURVE SMOOTH",
"389 660 OFFCURVE",
"327 636 OFFCURVE",
"288 596 CURVE",
"288 360 LINE",
"288 410 OFFCURVE",
"310 460 OFFCURVE",
"364 460 CURVE",
"421 460 OFFCURVE",
"433 405 OFFCURVE",
"433 360 CURVE",
"433 17 LINE",
"441 7 OFFCURVE",
"489 0 OFFCURVE",
"541 0 CURVE"
);
}
);
width = 718;
}
);
leftKerningGroup = I;
leftMetricsKey = l;
note = h;
rightKerningGroup = n;
rightMetricsKey = n;
unicode = 0068;
},
{
color = 4;
glyphname = hbar;
lastChange = "2024-02-04 01:36:29 +0000";
layers = (
{
components = (
{
name = strokeshortcomb;
transform = "{1, 0, 0, 1, 116, 0}";
},
{
name = h;
}
);
layerId = "BADE114B-EA49-45B4-AE36-72A7CEB6E1BE";
paths = (
{
closed = 1;
nodes = (
"392 690 LINE",
"392 790 LINE",
"2 790 LINE",
"2 690 LINE"
);
}
);
width = 714;
}
);
leftKerningGroup = I;
rightKerningGroup = n;
unicode = 0127;
},
{
color = 4;
glyphname = henghook;
lastChange = "2024-02-04 01:36:42 +0000";
layers = (
{
layerId = "BADE114B-EA49-45B4-AE36-72A7CEB6E1BE";
paths = (
{
closed = 1;
nodes = (
"169 515 LINE",
"50 515 LINE",
"52 329 OFFCURVE",
"55 17 OFFCURVE",
"55 17 CURVE",
"55 17 OFFCURVE",
"80 0 OFFCURVE",
"169 0 CURVE"
);
},
{
closed = 1;
nodes = (
"224 0 OFFCURVE",
"253 6 OFFCURVE",
"284 18 CURVE",
"284 821 LINE",
"258 834 OFFCURVE",
"220 840 OFFCURVE",
"169 840 CURVE",
"169 0 LINE"
);
},
{
closed = 1;
nodes = (
"169 515 LINE",
"169 840 LINE",
"80 840 OFFCURVE",
"55 823 OFFCURVE",
"55 823 CURVE",
"55 823 OFFCURVE",
"51 700 OFFCURVE",
"50 515 CURVE"
);
},
{
closed = 1;
nodes = (
"638 541 OFFCURVE",
"589 650 OFFCURVE",
"432 650 CURVE",
"361 650 OFFCURVE",
"309 635 OFFCURVE",
"284 596 CURVE",
"284 333 LINE",
"284 398 OFFCURVE",
"299 443 OFFCURVE",
"344 443 CURVE",
"394 444 OFFCURVE",
"405 390 OFFCURVE",
"405 345 CURVE",
"637 325 LINE"
);
},
{
closed = 1;
nodes = (
"587 -180 OFFCURVE",
"637 -110 OFFCURVE",
"637 20 CURVE SMOOTH",
"637 325 LINE",
"405 345 LINE",
"405 54 LINE SMOOTH",
"405 29 OFFCURVE",
"395 19 OFFCURVE",
"375 19 CURVE SMOOTH",
"361 19 OFFCURVE",
"355 14 OFFCURVE",
"355 -2 CURVE SMOOTH",
"355 -164 LINE SMOOTH",
"355 -173 OFFCURVE",
"361 -180 OFFCURVE",
"371 -180 CURVE SMOOTH",
"438 -180 LINE SMOOTH"
);
}
);
width = 687;
}
);
leftKerningGroup = I;
rightKerningGroup = mark_below;
unicode = 0267;
},
{
color = 4;
glyphname = hhook;
lastChange = "2024-02-04 01:36:29 +0000";
layers = (
{
layerId = "BADE114B-EA49-45B4-AE36-72A7CEB6E1BE";
paths = (
{
closed = 1;
nodes = (
"567 0 OFFCURVE",
"605 6 OFFCURVE",
"627 17 CURVE",
"631 113 OFFCURVE",
"634 223 OFFCURVE",
"634 325 CURVE",
"634 541 OFFCURVE",
"578 650 OFFCURVE",
"429 650 CURVE SMOOTH",
"369 650 OFFCURVE",
"305 630 OFFCURVE",
"281 596 CURVE",
"281 333 LINE",
"281 398 OFFCURVE",
"296 443 OFFCURVE",
"341 443 CURVE SMOOTH",
"389 443 OFFCURVE",
"402 393 OFFCURVE",
"402 333 CURVE SMOOTH",
"402 17 LINE",
"421 7 OFFCURVE",
"465 0 OFFCURVE",
"513 0 CURVE SMOOTH"
);
},
{
closed = 1;
nodes = (
"167 515 LINE",
"50 515 LINE",
"50 329 OFFCURVE",
"50 17 OFFCURVE",
"50 17 CURVE",
"50 17 OFFCURVE",
"78 0 OFFCURVE",
"167 0 CURVE"
);
},
{
closed = 1;
nodes = (
"222 0 OFFCURVE",
"250 6 OFFCURVE",
"281 18 CURVE",
"281 515 LINE",
"167 515 LINE",
"167 0 LINE"
);
},
{
closed = 1;
nodes = (
"100 930 OFFCURVE",
"50 850 OFFCURVE",
"50 700 CURVE SMOOTH",
"50 515 LINE",
"281 515 LINE",
"281 704 LINE SMOOTH",
"281 741 OFFCURVE",
"291 751 OFFCURVE",
"326 751 CURVE SMOOTH",
"355 751 OFFCURVE",
"361 756 OFFCURVE",
"361 778 CURVE SMOOTH",
"361 914 LINE SMOOTH",
"361 923 OFFCURVE",
"355 930 OFFCURVE",
"345 930 CURVE SMOOTH",
"259 930 LINE SMOOTH"
);
}
);
width = 684;
}
);
leftKerningGroup = I;
rightKerningGroup = n;
unicode = 0266;
},
{
color = 4;
glyphname = idotless;
lastChange = "2024-02-07 10:03:00 +0000";
layers = (
{
anchors = (
{
name = bottom;
position = "{171, 0}";
},
{
name = ogonek;
position = "{171, 0}";
},
{
name = top;
position = "{171, 650}";
}
);
layerId = "BADE114B-EA49-45B4-AE36-72A7CEB6E1BE";
paths = (
{
closed = 1;
nodes = (
"171 325 LINE",
"55 325 LINE",
"55 139 OFFCURVE",
"60 18 OFFCURVE",
"60 17 CURVE",
"60 17 OFFCURVE",
"84 0 OFFCURVE",
"171 0 CURVE"
);
},
{
closed = 1;
nodes = (
"258 0 OFFCURVE",
"282 17 OFFCURVE",
"282 17 CURVE",
"283 17 OFFCURVE",
"289 139 OFFCURVE",
"288 325 CURVE",
"171 325 LINE",
"171 0 LINE"
);
},
{
closed = 1;
nodes = (
"171 325 LINE",
"171 650 LINE",
"84 650 OFFCURVE",
"60 633 OFFCURVE",
"60 633 CURVE",
"59 633 OFFCURVE",
"55 511 OFFCURVE",
"55 325 CURVE"
);
},
{
closed = 1;
nodes = (
"288 325 LINE",
"288 511 OFFCURVE",
"284 632 OFFCURVE",
"282 633 CURVE",
"282 633 OFFCURVE",
"258 650 OFFCURVE",
"171 650 CURVE",
"171 325 LINE"
);
}
);
width = 343;
}
);
leftKerningGroup = idotless;
rightKerningGroup = idotless;
unicode = 0131;
},
{
color = 4;
glyphname = "iota-latin";
lastChange = "2024-02-08 23:55:32 +0000";
layers = (
{
anchors = (
{
name = top;
position = "{171, 650}";
}
);
layerId = "BADE114B-EA49-45B4-AE36-72A7CEB6E1BE";
paths = (
{
closed = 1;
nodes = (
"171 325 LINE",
"171 650 LINE",
"84 650 OFFCURVE",
"60 633 OFFCURVE",
"60 633 CURVE",
"59 633 OFFCURVE",
"55 511 OFFCURVE",
"55 325 CURVE"
);
},
{
closed = 1;
nodes = (
"288 325 LINE",
"288 511 OFFCURVE",
"288 632 OFFCURVE",
"288 633 CURVE",
"288 633 OFFCURVE",
"258 650 OFFCURVE",
"171 650 CURVE",
"171 325 LINE"
);
},
{
closed = 1;
nodes = (
"266 0 OFFCURVE",
"315 16 OFFCURVE",
"349 42 CURVE",
"329 206 LINE",
"322 203 OFFCURVE",
"315 201 OFFCURVE",
"309 201 CURVE SMOOTH",
"291 201 OFFCURVE",
"288 214 OFFCURVE",
"288 238 CURVE SMOOTH",
"288 275 OFFCURVE",
"288 244 OFFCURVE",
"288 325 CURVE",
"55 325 LINE",
"55 229 LINE",
"55 55 OFFCURVE",
"91 0 OFFCURVE",
"203 0 CURVE SMOOTH"
);
}
);
width = 373;
}
);
leftKerningGroup = idotless;
rightKerningGroup = iota;
unicode = 0269;
},
{
color = 4;
glyphname = istroke;
lastChange = "2024-02-04 01:40:39 +0000";
layers = (
{
anchors = (
{
name = bottom;
position = "{211, 0}";
}
);
components = (
{
name = strokeshortcomb;
transform = "{1, 0, 0, 1, 225, 0}";
},
{
name = i;
transform = "{1, 0, 0, 1, 44, 0}";
}
);
layerId = "BADE114B-EA49-45B4-AE36-72A7CEB6E1BE";
paths = (
{
closed = 1;
nodes = (
"372 358 LINE",
"372 450 LINE",
"50 450 LINE",
"50 358 LINE"
);
}
);
width = 422;
}
);
leftKerningGroup = i;
rightKerningGroup = i;
unicode = 0268;
},
{
color = 4;
glyphname = jdotless;
lastChange = "2024-02-08 13:29:20 +0000";
layers = (
{
anchors = (
{
name = top;
position = "{170, 650}";
}
);
layerId = "BADE114B-EA49-45B4-AE36-72A7CEB6E1BE";
paths = (
{
closed = 1;
nodes = (
"170 199 LINE",
"170 650 LINE",
"119 650 OFFCURVE",
"81 644 OFFCURVE",
"55 631 CURVE",
"55 199 LINE"
);
},
{
closed = 1;
nodes = (
"289 521 OFFCURVE",
"285 633 OFFCURVE",
"284 633 CURVE",
"284 633 OFFCURVE",
"259 650 OFFCURVE",
"170 650 CURVE",
"170 199 LINE",
"289 199 LINE"
);
},
{
closed = 1;
nodes = (
"-8 -276 OFFCURVE",
"30 -280 OFFCURVE",
"76 -280 CURVE SMOOTH",
"194 -280 OFFCURVE",
"289 -207 OFFCURVE",
"289 -37 CURVE SMOOTH",
"289 199 LINE",
"55 199 LINE",
"55 35 LINE SMOOTH",
"55 -73 OFFCURVE",
"13 -91 OFFCURVE",
"-68 -70 CURVE",
"-36 -268 LINE"
);
}
);
width = 344;
}
);
leftKerningGroup = idotless;
rightKerningGroup = j;
unicode = 0237;
},
{
color = 4;
glyphname = jcrossedtail;
lastChange = "2024-02-04 01:43:40 +0000";
layers = (
{
components = (
{
name = dotaccentcomb;
transform = "{1, 0, 0, 1, 205, -190}";
}
);
layerId = "BADE114B-EA49-45B4-AE36-72A7CEB6E1BE";
paths = (
{
closed = 1;
nodes = (
"386 325 LINE",
"386 650 LINE",
"330 650 OFFCURVE",
"298 644 OFFCURVE",
"269 631 CURVE",
"269 325 LINE"
);
},
{
closed = 1;
nodes = (
"503 361 OFFCURVE",
"498 633 OFFCURVE",
"497 633 CURVE",
"497 633 OFFCURVE",
"470 650 OFFCURVE",
"386 650 CURVE",
"386 325 LINE",
"503 11 LINE"
);
},
{
closed = 1;
nodes = (
"191 -79 LINE",
"191 -45 OFFCURVE",
"223 -29 OFFCURVE",
"273 -29 CURVE",
"255 104 LINE",
"94 104 OFFCURVE",
"20 29 OFFCURVE",
"20 -79 CURVE"
);
},
{
closed = 1;
nodes = (
"273 -29 LINE",
"381 -38 OFFCURVE",
"456 -48 OFFCURVE",
"561 -77 CURVE SMOOTH",
"561 -77 OFFCURVE",
"570 -63 OFFCURVE",
"570 -11 CURVE SMOOTH",
"570 42 OFFCURVE",
"561 56 OFFCURVE",
"561 56 CURVE",
"455 83 OFFCURVE",
"377 94 OFFCURVE",
"255 104 CURVE"
);
},
{
closed = 1;
nodes = (
"432 -270 OFFCURVE",
"503 -182 OFFCURVE",
"503 11 CURVE",
"386 325 LINE",
"269 325 LINE",
"267 34 LINE",
"299 -9 LINE",
"299 -52 LINE SMOOTH",
"299 -103 OFFCURVE",
"281 -128 OFFCURVE",
"241 -130 CURVE",
"206 -129 OFFCURVE",
"191 -113 OFFCURVE",
"191 -79 CURVE",
"20 -79 LINE",
"20 -205 OFFCURVE",
"98 -270 OFFCURVE",
"268 -270 CURVE SMOOTH"
);
}
);
width = 620;
}
);
unicode = 029D;
},
{
color = 4;
glyphname = jdotlessstroke;
lastChange = "2024-02-04 01:42:54 +0000";
layers = (
{
components = (
{
name = jdotless;
}
);
layerId = "BADE114B-EA49-45B4-AE36-72A7CEB6E1BE";
paths = (
{
closed = 1;
nodes = (
"332 303 LINE",
"332 395 LINE",
"27 395 LINE",
"27 303 LINE"
);
}
);
width = 350;
}
);
unicode = 025F;
},
{
color = 4;
glyphname = jdotlessstrokehook;
lastChange = "2024-02-04 01:43:52 +0000";
layers = (
{
anchors = (
{
name = top;
position = "{187, 650}";
}
);
layerId = "BADE114B-EA49-45B4-AE36-72A7CEB6E1BE";
paths = (
{
closed = 1;
nodes = (
"133 890 OFFCURVE",
"66 807 OFFCURVE",
"66 626 CURVE SMOOTH",
"66 361 LINE",
"300 361 LINE",
"300 601 LINE SMOOTH",
"300 664 OFFCURVE",
"314 689 OFFCURVE",
"352 689 CURVE SMOOTH",
"366 689 OFFCURVE",
"378 684 OFFCURVE",
"388 676 CURVE",
"409 840 LINE",
"376 873 OFFCURVE",
"332 890 OFFCURVE",
"279 890 CURVE SMOOTH"
);
},
{
closed = 1;
nodes = (
"331 303 LINE",
"331 395 LINE",
"27 395 LINE",
"27 303 LINE"
);
},
{
closed = 1;
nodes = (
"220 -270 OFFCURVE",
"300 -178 OFFCURVE",
"300 24 CURVE SMOOTH",
"300 361 LINE",
"66 361 LINE",
"66 46 LINE SMOOTH",
"66 -39 OFFCURVE",
"41 -69 OFFCURVE",
"-32 -69 CURVE SMOOTH",
"-62 -69 OFFCURVE",
"-103 -60 OFFCURVE",
"-142 -44 CURVE",
"-125 -231 LINE",
"-87 -256 OFFCURVE",
"-23 -270 OFFCURVE",
"35 -270 CURVE SMOOTH"
);
}
);
width = 427;
}
);
unicode = 0284;
},
{
color = 4;
glyphname = k;
lastChange = "2024-02-03 14:16:48 +0000";
layers = (
{
anchors = (
{
name = bottom;
position = "{357, 0}";
},
{
name = top;
position = "{357, 650}";
}
);
layerId = "BADE114B-EA49-45B4-AE36-72A7CEB6E1BE";
paths = (
{
closed = 1;
nodes = (
"330 243 LINE",
"462 379 LINE",
"641 622 LINE",
"641 622 OFFCURVE",
"606 645 OFFCURVE",
"525 649 CURVE SMOOTH",
"440 653 OFFCURVE",
"398 642 OFFCURVE",
"398 642 CURVE",
"284 475 LINE",
"284 204 LINE"
);
},
{
closed = 1;
nodes = (
"169 515 LINE",
"50 515 LINE",
"51 329 OFFCURVE",
"54 17 OFFCURVE",
"55 17 CURVE",
"55 17 OFFCURVE",
"80 0 OFFCURVE",
"169 0 CURVE"
);
},
{
closed = 1;
nodes = (
"224 0 OFFCURVE",
"253 6 OFFCURVE",
"284 18 CURVE",
"284 871 LINE",
"258 884 OFFCURVE",
"220 890 OFFCURVE",
"169 890 CURVE",
"169 0 LINE"
);
},
{
closed = 1;
nodes = (
"636 6 OFFCURVE",
"664 23 OFFCURVE",
"664 23 CURVE",
"456 428 LINE",
"316 272 LINE",
"421 8 LINE",
"421 8 OFFCURVE",
"462 -5 OFFCURVE",
"547 0 CURVE SMOOTH"
);
},
{
closed = 1;
nodes = (
"169 515 LINE",
"169 890 LINE",
"80 890 OFFCURVE",
"55 873 OFFCURVE",
"55 873 CURVE",
"55 873 OFFCURVE",
"51 750 OFFCURVE",
"50 515 CURVE"
);
}
);
width = 684;
}
);
leftKerningGroup = l;
leftMetricsKey = I;
note = k;
rightKerningGroup = k;
unicode = 006B;
},
{
color = 4;
glyphname = kgreenlandic;
lastChange = "2024-02-04 01:44:13 +0000";
layers = (
{
anchors = (
{
name = bottom;
position = "{375, 0}";
},
{
name = top;
position = "{375, 650}";
}
);
layerId = "BADE114B-EA49-45B4-AE36-72A7CEB6E1BE";
paths = (
{
closed = 1;
nodes = (
"495 377 LINE",
"653 622 LINE {stroke = {w = \"1\";};}",
"653 622 OFFCURVE",
"618 645 OFFCURVE {stroke = {w = \"1\";};}",
"537 649 CURVE SMOOTH {stroke = {w = \"1\";};}",
"452 653 OFFCURVE {stroke = {w = \"1\";};}",
"410 631 OFFCURVE {stroke = {w = \"1\";};}",
"410 631 CURVE",
"284 420 LINE",
"284 139 LINE {stroke = {w = \"1\";};}"
);
},
{
closed = 1;
nodes = (
"169 325 LINE",
"50 325 LINE",
"50 139 OFFCURVE",
"55 17 OFFCURVE",
"55 17 CURVE",
"55 17 OFFCURVE",
"80 0 OFFCURVE",
"169 0 CURVE"
);
},
{
closed = 1;
nodes = (
"224 0 OFFCURVE",
"253 6 OFFCURVE",
"284 18 CURVE",
"284 41 LINE",
"284 631 LINE",
"258 644 OFFCURVE",
"220 650 OFFCURVE",
"169 650 CURVE",
"169 0 LINE"
);
},
{
closed = 1;
nodes = (
"169 325 LINE",
"169 650 LINE",
"80 650 OFFCURVE",
"55 633 OFFCURVE",
"55 633 CURVE",
"54 633 OFFCURVE",
"50 511 OFFCURVE",
"50 325 CURVE"
);
},
{
closed = 1;
nodes = (
"596 -2 OFFCURVE {stroke = {w = \"3.78\";};}",
"674 42 OFFCURVE {stroke = {w = \"3.78\";};}",
"695 102 CURVE SMOOTH {stroke = {w = \"3.78\";};}",
"710 143 OFFCURVE {stroke = {w = \"3.78\";};}",
"690 151 OFFCURVE {stroke = {w = \"3.78\";};}",
"679 144 CURVE SMOOTH {stroke = {w = \"3.78\";};}",
"592 87 OFFCURVE {stroke = {w = \"3.78\";};}",
"533 169 OFFCURVE {stroke = {w = \"3.78\";};}",
"487 412 CURVE {stroke = {w = \"3.78\";};}",
"336 244 LINE {stroke = {w = \"3.78\";};}",
"374 76 OFFCURVE {stroke = {w = \"3.78\";};}",
"436 -2 OFFCURVE {stroke = {w = \"3.78\";};}",
"524 -2 CURVE SMOOTH {stroke = {w = \"3.78\";};}"
);
}
);
width = 750;
}
);
leftKerningGroup = idotless;
rightKerningGroup = k;
unicode = 0138;
},
{
color = 4;
glyphname = l;
lastChange = "2024-02-08 01:26:11 +0000";
layers = (
{
anchors = (
{
name = bottom;
position = "{180, 0}";
},
{
name = center;
position = "{180, 325}";
},
{
name = circumflexBelow;
position = "{193, 0}";
},
{
name = top;
position = "{180, 890}";
},
{
name = topright;
position = "{354, 890}";
}
);
layerId = "BADE114B-EA49-45B4-AE36-72A7CEB6E1BE";
paths = (
{
closed = 1;
nodes = (
"259 0 OFFCURVE",
"308 16 OFFCURVE",
"342 42 CURVE",
"322 206 LINE",
"315 203 OFFCURVE",
"308 201 OFFCURVE",
"302 201 CURVE SMOOTH",
"284 201 OFFCURVE",
"281 214 OFFCURVE",
"281 238 CURVE SMOOTH",
"281 275 OFFCURVE",
"281 292 OFFCURVE",
"281 373 CURVE SMOOTH",
"281 537 OFFCURVE",
"274 710 OFFCURVE",
"304 873 CURVE",
"304 873 OFFCURVE",
"265 890 OFFCURVE",
"186 890 CURVE SMOOTH",
"96 890 OFFCURVE",
"65 873 OFFCURVE",
"65 873 CURVE",
"52 718 OFFCURVE",
"48 572 OFFCURVE",
"48 426 CURVE SMOOTH",
"48 390 OFFCURVE",
"48 356 OFFCURVE",
"48 229 CURVE SMOOTH",
"48 63 OFFCURVE",
"84 0 OFFCURVE",
"196 0 CURVE SMOOTH"
);
}
);
width = 354;
}
);
leftKerningGroup = I;
note = l;
rightKerningGroup = I;
unicode = 006C;
},
{
color = 4;
glyphname = lbelt;
lastChange = "2024-02-07 01:24:25 +0000";
layers = (
{
background = {
paths = (
{
closed = 1;
nodes = (
"455 0 OFFCURVE",
"504 16 OFFCURVE",
"538 42 CURVE",
"518 206 LINE",
"511 203 OFFCURVE",
"504 201 OFFCURVE",
"498 201 CURVE SMOOTH",
"480 201 OFFCURVE",
"477 214 OFFCURVE",
"477 238 CURVE SMOOTH",
"477 275 OFFCURVE",
"477 292 OFFCURVE",
"477 373 CURVE SMOOTH",
"477 534 OFFCURVE",
"481 699 OFFCURVE",
"500 873 CURVE",
"500 873 OFFCURVE",
"461 890 OFFCURVE",
"382 890 CURVE SMOOTH",
"292 890 OFFCURVE",
"261 873 OFFCURVE",
"261 873 CURVE",
"257 828 OFFCURVE",
"253 777 OFFCURVE",
"253 731 CURVE SMOOTH",
"253 691 OFFCURVE",
"255 675 OFFCURVE",
"266 645 CURVE",
"304 477 LINE",
"308 342 LINE",
"244 305 LINE",
"244 229 LINE",
"244 63 OFFCURVE",
"280 0 OFFCURVE",
"392 0 CURVE SMOOTH"
);
},
{
closed = 1;
nodes = (
"234 402 OFFCURVE",
"217 432 OFFCURVE",
"217 478 CURVE SMOOTH",
"217 511 OFFCURVE",
"226 540 OFFCURVE",
"249 540 CURVE SMOOTH",
"271 540 OFFCURVE",
"287 515 OFFCURVE",
"294 424 CURVE"
);
},
{
closed = 1;
nodes = (
"330 250 OFFCURVE",
"452 285 OFFCURVE",
"527 364 CURVE",
"527 568 LINE",
"478 506 OFFCURVE",
"407 458 OFFCURVE",
"335 438 CURVE",
"266 645 LINE",
"258 679 OFFCURVE",
"221 697 OFFCURVE",
"170 696 CURVE SMOOTH",
"95 694 OFFCURVE",
"32 632 OFFCURVE",
"32 466 CURVE SMOOTH",
"32 297 OFFCURVE",
"115 250 OFFCURVE",
"245 250 CURVE SMOOTH"
);
}
);
};
layerId = "BADE114B-EA49-45B4-AE36-72A7CEB6E1BE";
paths = (
{
closed = 1;
nodes = (
"455 0 OFFCURVE",
"504 16 OFFCURVE",
"538 42 CURVE",
"518 206 LINE",
"511 203 OFFCURVE",
"504 201 OFFCURVE",
"498 201 CURVE SMOOTH",
"480 201 OFFCURVE",
"477 214 OFFCURVE",
"477 238 CURVE SMOOTH",
"477 373 LINE SMOOTH",
"477 534 OFFCURVE",
"481 699 OFFCURVE",
"500 873 CURVE",
"500 873 OFFCURVE",
"461 890 OFFCURVE",
"382 890 CURVE SMOOTH",
"292 890 OFFCURVE",
"261 873 OFFCURVE",
"261 873 CURVE",
"257 828 OFFCURVE",
"253 777 OFFCURVE",
"253 731 CURVE SMOOTH",
"253 691 OFFCURVE",
"255 675 OFFCURVE",
"266 645 CURVE",
"304 477 LINE",
"308 342 LINE",
"244 305 LINE",
"244 229 LINE SMOOTH",
"244 63 OFFCURVE",
"280 0 OFFCURVE",
"392 0 CURVE SMOOTH"
);
},
{
closed = 1;
nodes = (
"234 402 OFFCURVE",
"217 432 OFFCURVE",
"217 478 CURVE SMOOTH",
"217 511 OFFCURVE",
"226 540 OFFCURVE",
"249 540 CURVE SMOOTH",
"271 540 OFFCURVE",
"287 515 OFFCURVE",
"294 424 CURVE"
);
},
{
closed = 1;
nodes = (
"324 250 OFFCURVE",
"436 280 OFFCURVE",
"511 348 CURVE SMOOTH",
"523 359 OFFCURVE",
"527 370 OFFCURVE",
"527 382 CURVE SMOOTH",
"527 524 LINE SMOOTH",
"527 546 OFFCURVE",
"513 551 OFFCURVE",
"497 535 CURVE SMOOTH",
"451 489 OFFCURVE",
"394 454 OFFCURVE",
"335 438 CURVE",
"266 645 LINE",
"258 679 OFFCURVE",
"221 697 OFFCURVE",
"170 696 CURVE SMOOTH",
"95 694 OFFCURVE",
"32 632 OFFCURVE",
"32 466 CURVE SMOOTH",
"32 297 OFFCURVE",
"115 250 OFFCURVE",
"245 250 CURVE SMOOTH"
);
}
);
width = 550;
}
);
rightKerningGroup = I;
unicode = 026C;
},
{
color = 4;
glyphname = lezh;
lastChange = "2024-02-04 01:45:01 +0000";
layers = (
{
anchors = (
{
name = bottom;
position = "{151, 0}";
},
{
name = center;
position = "{151, 325}";
},
{
name = top;
position = "{151, 890}";
},
{
name = topright;
position = "{279, 873}";
}
);
layerId = "BADE114B-EA49-45B4-AE36-72A7CEB6E1BE";
paths = (
{
closed = 1;
nodes = (
"169 515 LINE",
"50 515 LINE",
"52 329 OFFCURVE",
"55 17 OFFCURVE",
"55 17 CURVE",
"55 17 OFFCURVE",
"80 0 OFFCURVE",
"169 0 CURVE"
);
},
{
closed = 1;
nodes = (
"169 515 LINE",
"169 890 LINE",
"80 890 OFFCURVE",
"55 873 OFFCURVE",
"55 873 CURVE",
"55 873 OFFCURVE",
"51 750 OFFCURVE",
"50 515 CURVE"
);
},
{
closed = 1;
nodes = (
"224 0 OFFCURVE",
"253 11 OFFCURVE",
"284 32 CURVE",
"284 871 LINE",
"258 884 OFFCURVE",
"220 890 OFFCURVE",
"169 890 CURVE",
"169 0 LINE"
);
},
{
closed = 1;
nodes = (
"701 396 LINE",
"496 464 LINE",
"390 312 LINE",
"390 169 LINE",
"590 249 LINE"
);
},
{
closed = 1;
nodes = (
"731 431 OFFCURVE",
"735 451 OFFCURVE",
"735 495 CURVE SMOOTH",
"735 527 OFFCURVE",
"731 607 OFFCURVE",
"726 644 CURVE",
"626 649 OFFCURVE",
"477 650 OFFCURVE",
"477 650 CURVE",
"496 464 LINE",
"701 396 LINE"
);
},
{
closed = 1;
nodes = (
"467 -38 LINE",
"416 -37 OFFCURVE",
"379 -12 OFFCURVE",
"354 32 CURVE",
"294 9 OFFCURVE",
"238 -24 OFFCURVE",
"184 -69 CURVE",
"242 -172 OFFCURVE",
"327 -240 OFFCURVE",
"470 -240 CURVE"
);
},
{
closed = 1;
nodes = (
"496 464 LINE",
"477 650 LINE",
"386 649 OFFCURVE",
"290 650 OFFCURVE",
"197 645 CURVE",
"197 464 LINE"
);
},
{
closed = 1;
nodes = (
"632 -239 OFFCURVE",
"769 -152 OFFCURVE",
"769 29 CURVE SMOOTH",
"769 183 OFFCURVE",
"671 290 OFFCURVE",
"513 290 CURVE",
"390 169 LINE",
"504 169 OFFCURVE",
"548 112 OFFCURVE",
"548 41 CURVE SMOOTH",
"548 0 OFFCURVE",
"521 -39 OFFCURVE",
"467 -38 CURVE",
"470 -240 LINE"
);
}
);
width = 819;
}
);
leftKerningGroup = I;
rightKerningGroup = g;
unicode = 026E;
},
{
color = 4;
glyphname = lhookretroflex;
lastChange = "2024-02-04 01:50:34 +0000";
layers = (
{
anchors = (
{
name = bottom;
position = "{202, -242}";
},
{
name = center;
position = "{202, 333}";
},
{
name = top;
position = "{183, 648}";
},
{
name = topright;
position = "{363, 648}";
}
);
layerId = "BADE114B-EA49-45B4-AE36-72A7CEB6E1BE";
paths = (
{
closed = 1;
nodes = (
"275 -242 OFFCURVE",
"332 -226 OFFCURVE",
"358 -200 CURVE",
"338 -66 LINE",
"326 -69 LINE SMOOTH",
"301 -75 OFFCURVE",
"297 -63 OFFCURVE",
"297 -34 CURVE SMOOTH",
"297 728 OFFCURVE",
"307 871 OFFCURVE",
"307 871 CURVE",
"307 871 OFFCURVE",
"271 888 OFFCURVE",
"185 888 CURVE SMOOTH",
"93 888 OFFCURVE",
"64 871 OFFCURVE",
"64 871 CURVE",
"64 870 OFFCURVE",
"50 558 OFFCURVE",
"50 -42 CURVE SMOOTH",
"50 -179 OFFCURVE",
"86 -242 OFFCURVE",
"205 -242 CURVE SMOOTH"
);
}
);
width = 408;
}
);
leftKerningGroup = I;
rightKerningGroup = mark_below;
unicode = 026D;
},
{
color = 4;
glyphname = lmiddletilde;
lastChange = "2024-02-03 13:28:42 +0000";
layers = (
{
anchors = (
{
name = _top;
position = "{304, 283}";
}
);
components = (
{
name = l;
transform = "{1, 0, 0, 1, 131, 0}";
}
);
layerId = "BADE114B-EA49-45B4-AE36-72A7CEB6E1BE";
paths = (
{
closed = 1;
nodes = (
"200 593 LINE",
"200 593 OFFCURVE",
"183 625 OFFCURVE",
"147 625 CURVE SMOOTH",
"88 625 OFFCURVE",
"50 546 OFFCURVE",
"50 395 CURVE",
"105 372 LINE SMOOTH",
"115 368 OFFCURVE",
"122 372 OFFCURVE",
"123 384 CURVE SMOOTH",
"128 432 OFFCURVE",
"135 450 OFFCURVE",
"154 450 CURVE SMOOTH",
"173 450 OFFCURVE",
"183 430 OFFCURVE",
"183 393 CURVE"
);
},
{
closed = 1;
nodes = (
"397 363 LINE",
"397 363 OFFCURVE",
"415 331 OFFCURVE",
"450 331 CURVE SMOOTH",
"509 331 OFFCURVE",
"547 410 OFFCURVE",
"548 561 CURVE",
"493 584 LINE SMOOTH",
"483 588 OFFCURVE",
"476 584 OFFCURVE",
"475 572 CURVE SMOOTH",
"470 524 OFFCURVE",
"463 506 OFFCURVE",
"444 506 CURVE SMOOTH",
"425 506 OFFCURVE",
"415 526 OFFCURVE",
"415 563 CURVE"
);
}
);
width = 598;
}
);
unicode = 026B;
},
{
color = 4;
glyphname = lslash;
lastChange = "2024-02-04 01:51:12 +0000";
layers = (
{
components = (
{
name = l;
}
);
layerId = "BADE114B-EA49-45B4-AE36-72A7CEB6E1BE";
paths = (
{
closed = 1;
nodes = (
"161 350 LINE",
"191 368 LINE",
"336 411 LINE",
"336 585 LINE",
"191 542 LINE",
"161 524 LINE",
"14 489 LINE",
"14 315 LINE"
);
}
);
width = 360;
}
);
leftKerningGroup = I;
rightKerningGroup = I;
unicode = 0142;
},
{
color = 4;
glyphname = m;
lastChange = "2024-02-07 04:33:00 +0000";
layers = (
{
anchors = (
{
name = bottom;
position = "{535, 0}";
},
{
name = top;
position = "{537, 650}";
}
);
background = {
paths = (
{
closed = 1;
nodes = (
"948 0 OFFCURVE",
"988 6 OFFCURVE",
"1011 17 CURVE",
"1016 114 OFFCURVE",
"1019 225 OFFCURVE",
"1019 325 CURVE",
"1019 541 OFFCURVE",
"968 650 OFFCURVE",
"801 650 CURVE",
"728 650 OFFCURVE",
"676 641 OFFCURVE",
"603 561 CURVE",
"655 353 LINE",
"655 411 OFFCURVE",
"663 453 OFFCURVE",
"719 453 CURVE",
"774 453 OFFCURVE",
"786 398 OFFCURVE",
"786 353 CURVE",
"786 17 LINE",
"794 7 OFFCURVE",
"840 0 OFFCURVE",
"891 0 CURVE"
);
},
{
closed = 1;
nodes = (
"592 0 OFFCURVE",
"632 6 OFFCURVE",
"655 17 CURVE",
"655 114 OFFCURVE",
"655 225 OFFCURVE",
"655 325 CURVE",
"655 541 OFFCURVE",
"603 650 OFFCURVE",
"445 650 CURVE",
"367 650 OFFCURVE",
"312 619 OFFCURVE",
"289 586 CURVE",
"289 353 LINE",
"289 403 OFFCURVE",
"310 453 OFFCURVE",
"363 453 CURVE",
"418 453 OFFCURVE",
"430 398 OFFCURVE",
"430 353 CURVE",
"430 17 LINE",
"437 7 OFFCURVE",
"484 0 OFFCURVE",
"535 0 CURVE"
);
}
);
};
layerId = "BADE114B-EA49-45B4-AE36-72A7CEB6E1BE";
paths = (
{
closed = 1;
nodes = (
"174 325 LINE",
"55 325 LINE",
"55 139 OFFCURVE",
"60 17 OFFCURVE",
"60 17 CURVE",
"60 17 OFFCURVE",
"85 0 OFFCURVE",
"174 0 CURVE"
);
},
{
closed = 1;
nodes = (
"229 0 OFFCURVE",
"258 5 OFFCURVE",
"289 14 CURVE",
"289 39 LINE",
"289 360 LINE",
"174 325 LINE",
"174 0 LINE"
);
},
{
closed = 1;
nodes = (
"593 0 OFFCURVE",
"632 6 OFFCURVE",
"655 17 CURVE",
"655 378 LINE",
"655 569 OFFCURVE",
"604 660 OFFCURVE",
"444 660 CURVE SMOOTH",
"377 660 OFFCURVE",
"313 640 OFFCURVE",
"273 606 CURVE",
"289 360 LINE",
"289 410 OFFCURVE",
"310 460 OFFCURVE",
"363 460 CURVE",
"419 460 OFFCURVE",
"430 405 OFFCURVE",
"430 360 CURVE",
"430 17 LINE",
"438 7 OFFCURVE",
"482 0 OFFCURVE",
"537 0 CURVE"
);
},
{
closed = 1;
nodes = (
"938 0 OFFCURVE",
"975 6 OFFCURVE",
"1011 17 CURVE",
"1016 127 OFFCURVE",
"1019 235 OFFCURVE",
"1019 367 CURVE SMOOTH",
"1019 574 OFFCURVE",
"938 660 OFFCURVE",
"805 660 CURVE SMOOTH",
"727 660 OFFCURVE",
"654 636 OFFCURVE",
"606 596 CURVE",
"655 360 LINE",
"655 410 OFFCURVE",
"675 460 OFFCURVE",
"724 460 CURVE",
"776 460 OFFCURVE",
"786 405 OFFCURVE",
"786 360 CURVE",
"786 17 LINE",
"794 7 OFFCURVE",
"837 0 OFFCURVE",
"884 0 CURVE"
);
},
{
closed = 1;
nodes = (
"273 606 LINE",
"269 637 LINE",
"240 646 OFFCURVE",
"211 650 OFFCURVE",
"166 650 CURVE SMOOTH",
"98 650 OFFCURVE",
"60 633 OFFCURVE",
"60 633 CURVE SMOOTH",
"56 529 OFFCURVE",
"55 511 OFFCURVE",
"55 325 CURVE",
"174 325 LINE",
"289 360 LINE"
);
}
);
width = 1064;
}
);
leftKerningGroup = idotless;
leftMetricsKey = n;
note = m;
rightKerningGroup = n;
rightMetricsKey = n;
unicode = 006D;
},
{
color = 4;
glyphname = mhook;
lastChange = "2024-02-04 01:57:28 +0000";
layers = (
{
layerId = "BADE114B-EA49-45B4-AE36-72A7CEB6E1BE";
paths = (
{
closed = 1;
nodes = (
"169 325 LINE",
"50 325 LINE",
"50 139 OFFCURVE",
"55 17 OFFCURVE",
"55 17 CURVE",
"55 17 OFFCURVE",
"80 0 OFFCURVE",
"169 0 CURVE"
);
},
{
closed = 1;
nodes = (
"224 0 OFFCURVE",
"253 5 OFFCURVE",
"284 14 CURVE",
"284 39 LINE",
"284 360 LINE",
"169 325 LINE",
"169 0 LINE"
);
},
{
closed = 1;
nodes = (
"169 325 LINE",
"169 650 LINE",
"80 650 OFFCURVE",
"55 633 OFFCURVE",
"55 633 CURVE",
"54 633 OFFCURVE",
"50 511 OFFCURVE",
"50 325 CURVE"
);
},
{
closed = 1;
nodes = (
"964 -180 OFFCURVE",
"1014 -110 OFFCURVE",
"1014 20 CURVE SMOOTH",
"1014 367 LINE",
"781 360 LINE",
"781 54 LINE SMOOTH",
"781 29 OFFCURVE",
"771 19 OFFCURVE",
"751 19 CURVE SMOOTH",
"737 19 OFFCURVE",
"731 14 OFFCURVE",
"731 -2 CURVE SMOOTH",
"731 -164 LINE SMOOTH",
"731 -173 OFFCURVE",
"737 -180 OFFCURVE",
"747 -180 CURVE SMOOTH",
"815 -180 LINE SMOOTH"
);
},
{
closed = 1;
nodes = (
"588 0 OFFCURVE",
"627 6 OFFCURVE",
"650 17 CURVE",
"650 378 LINE",
"650 569 OFFCURVE",
"599 660 OFFCURVE",
"439 660 CURVE SMOOTH",
"372 660 OFFCURVE",
"308 640 OFFCURVE",
"268 606 CURVE",
"284 360 LINE",
"284 410 OFFCURVE",
"305 460 OFFCURVE",
"358 460 CURVE",
"414 460 OFFCURVE",
"425 405 OFFCURVE",
"425 360 CURVE",
"425 17 LINE",
"433 7 OFFCURVE",
"477 0 OFFCURVE",
"532 0 CURVE"
);
},
{
closed = 1;
nodes = (
"1014 367 LINE",
"1014 574 OFFCURVE",
"933 660 OFFCURVE",
"800 660 CURVE SMOOTH",
"722 660 OFFCURVE",
"649 636 OFFCURVE",
"601 596 CURVE",
"650 360 LINE",
"650 410 OFFCURVE",
"670 460 OFFCURVE",
"719 460 CURVE",
"771 460 OFFCURVE",
"781 405 OFFCURVE",
"781 360 CURVE"
);
},
{
closed = 1;
nodes = (
"268 606 LINE",
"264 637 LINE",
"235 646 OFFCURVE",
"206 650 OFFCURVE",
"161 650 CURVE SMOOTH",
"93 650 OFFCURVE",
"55 633 OFFCURVE",
"55 633 CURVE SMOOTH",
"51 529 OFFCURVE",
"50 511 OFFCURVE",
"50 325 CURVE",
"169 325 LINE",
"284 360 LINE"
);
}
);
width = 1064;
}
);
leftKerningGroup = idotless;
rightKerningGroup = q;
unicode = 0271;
},
{
color = 4;
glyphname = mlonglegturned;
lastChange = "2024-02-04 01:57:34 +0000";
layers = (
{
anchors = (
{
name = bottom;
position = "{532, 650}";
},
{
name = top;
position = "{532, 0}";
}
);
layerId = "BADE114B-EA49-45B4-AE36-72A7CEB6E1BE";
paths = (
{
closed = 1;
nodes = (
"895 325 LINE",
"1014 325 LINE",
"1014 511 OFFCURVE",
"1009 633 OFFCURVE",
"1009 633 CURVE",
"1009 633 OFFCURVE",
"984 650 OFFCURVE",
"895 650 CURVE"
);
},
{
closed = 1;
nodes = (
"984 -241 OFFCURVE",
"1009 -224 OFFCURVE",
"1009 -224 CURVE",
"1009 -224 OFFCURVE",
"1014 137 OFFCURVE",
"1014 325 CURVE",
"895 325 LINE",
"895 -241 LINE"
);
},
{
closed = 1;
nodes = (
"895 650 LINE",
"844 650 OFFCURVE",
"806 644 OFFCURVE",
"780 631 CURVE",
"780 -223 LINE",
"811 -235 OFFCURVE",
"840 -241 OFFCURVE",
"895 -241 CURVE"
);
},
{
closed = 1;
nodes = (
"476 657 OFFCURVE",
"437 651 OFFCURVE",
"414 640 CURVE",
"414 279 LINE",
"414 88 OFFCURVE",
"465 -3 OFFCURVE",
"625 -3 CURVE SMOOTH",
"692 -3 OFFCURVE",
"756 17 OFFCURVE",
"796 51 CURVE",
"780 297 LINE",
"780 247 OFFCURVE",
"759 197 OFFCURVE",
"706 197 CURVE",
"650 197 OFFCURVE",
"639 252 OFFCURVE",
"639 297 CURVE",
"639 640 LINE",
"631 650 OFFCURVE",
"587 657 OFFCURVE",
"532 657 CURVE"
);
},
{
closed = 1;
nodes = (
"131 657 OFFCURVE",
"94 651 OFFCURVE",
"58 640 CURVE",
"53 530 OFFCURVE",
"50 422 OFFCURVE",
"50 290 CURVE SMOOTH",
"50 83 OFFCURVE",
"131 -3 OFFCURVE",
"264 -3 CURVE SMOOTH",
"342 -3 OFFCURVE",
"415 21 OFFCURVE",
"463 61 CURVE",
"414 297 LINE",
"414 247 OFFCURVE",
"394 197 OFFCURVE",
"345 197 CURVE",
"293 197 OFFCURVE",
"283 252 OFFCURVE",
"283 297 CURVE",
"283 640 LINE",
"275 650 OFFCURVE",
"232 657 OFFCURVE",
"185 657 CURVE"
);
}
);
width = 1064;
}
);
leftKerningGroup = idotless;
rightKerningGroup = q;
unicode = 0270;
},
{
color = 4;
glyphname = n;
lastChange = "2024-02-09 10:42:23 +0000";
layers = (
{
anchors = (
{
name = bottom;
position = "{360, 0}";
},
{
name = top;
position = "{360, 650}";
}
);
layerId = "BADE114B-EA49-45B4-AE36-72A7CEB6E1BE";
paths = (
{
closed = 1;
nodes = (
"601 0 OFFCURVE",
"642 6 OFFCURVE",
"666 17 CURVE",
"671 127 OFFCURVE",
"674 235 OFFCURVE",
"674 378 CURVE SMOOTH",
"674 569 OFFCURVE",
"604 660 OFFCURVE",
"455 660 CURVE SMOOTH",
"384 660 OFFCURVE",
"316 640 OFFCURVE",
"273 606 CURVE",
"289 360 LINE",
"289 410 OFFCURVE",
"311 460 OFFCURVE",
"365 460 CURVE",
"422 460 OFFCURVE",
"434 405 OFFCURVE",
"434 360 CURVE",
"434 17 LINE",
"442 7 OFFCURVE",
"490 0 OFFCURVE",
"542 0 CURVE"
);
},
{
closed = 1;
nodes = (
"227 0 OFFCURVE",
"259 5 OFFCURVE",
"289 14 CURVE",
"289 360 LINE",
"174 325 LINE",
"174 0 LINE"
);
},
{
closed = 1;
nodes = (
"174 325 LINE",
"55 325 LINE",
"55 139 OFFCURVE",
"60 17 OFFCURVE",
"60 17 CURVE",
"60 17 OFFCURVE",
"85 0 OFFCURVE",
"174 0 CURVE"
);
},
{
closed = 1;
nodes = (
"273 606 LINE",
"269 637 LINE",
"240 646 OFFCURVE",
"211 650 OFFCURVE",
"166 650 CURVE SMOOTH",
"98 650 OFFCURVE",
"60 633 OFFCURVE",
"60 633 CURVE SMOOTH",
"56 529 OFFCURVE",
"55 511 OFFCURVE",
"55 325 CURVE",
"174 325 LINE",
"289 360 LINE"
);
}
);
width = 719;
}
);
leftKerningGroup = idotless;
leftMetricsKey = n;
note = n;
rightKerningGroup = n;
rightMetricsKey = n;
unicode = 006E;
},
{
color = 4;
glyphname = eng;
lastChange = "2024-02-04 02:10:50 +0000";
layers = (
{
layerId = "BADE114B-EA49-45B4-AE36-72A7CEB6E1BE";
paths = (
{
closed = 1;
nodes = (
"576 -240 OFFCURVE",
"669 -143 OFFCURVE",
"669 135 CURVE",
"669 378 LINE",
"429 360 LINE",
"429 102 LINE",
"430 -45 OFFCURVE",
"345 -60 OFFCURVE",
"226 -24 CURVE",
"201 -66 OFFCURVE",
"188 -154 OFFCURVE",
"192 -208 CURVE",
"248 -228 OFFCURVE",
"297 -240 OFFCURVE",
"383 -240 CURVE"
);
},
{
closed = 1;
nodes = (
"169 325 LINE",
"50 325 LINE",
"50 139 OFFCURVE",
"55 17 OFFCURVE",
"55 17 CURVE",
"55 17 OFFCURVE",
"80 0 OFFCURVE",
"169 0 CURVE"
);
},
{
closed = 1;
nodes = (
"222 0 OFFCURVE",
"254 5 OFFCURVE",
"284 14 CURVE",
"284 360 LINE",
"169 325 LINE",
"169 0 LINE"
);
},
{
closed = 1;
nodes = (
"669 378 LINE",
"669 569 OFFCURVE",
"599 660 OFFCURVE",
"450 660 CURVE SMOOTH",
"379 660 OFFCURVE",
"311 640 OFFCURVE",
"268 606 CURVE",
"284 360 LINE",
"284 410 OFFCURVE",
"306 460 OFFCURVE",
"360 460 CURVE",
"417 460 OFFCURVE",
"429 405 OFFCURVE",
"429 360 CURVE"
);
},
{
closed = 1;
nodes = (
"268 606 LINE",
"264 637 LINE",
"235 646 OFFCURVE",
"206 650 OFFCURVE",
"161 650 CURVE SMOOTH",
"93 650 OFFCURVE",
"55 633 OFFCURVE",
"55 633 CURVE SMOOTH",
"51 529 OFFCURVE",
"50 511 OFFCURVE",
"50 325 CURVE",
"169 325 LINE",
"284 360 LINE"
);
}
);
width = 719;
}
);
leftKerningGroup = idotless;
rightKerningGroup = g;
unicode = 014B;
},
{
color = 4;
glyphname = nhookleft;
lastChange = "2024-02-04 02:10:31 +0000";
layers = (
{
layerId = "BADE114B-EA49-45B4-AE36-72A7CEB6E1BE";
paths = (
{
closed = 1;
nodes = (
"284 -180 OFFCURVE",
"334 -110 OFFCURVE",
"334 20 CURVE SMOOTH",
"334 360 LINE",
"100 325 LINE",
"100 54 LINE SMOOTH",
"100 29 OFFCURVE",
"90 19 OFFCURVE",
"70 19 CURVE SMOOTH",
"56 19 OFFCURVE",
"50 14 OFFCURVE",
"50 -2 CURVE SMOOTH",
"50 -164 LINE SMOOTH",
"50 -173 OFFCURVE",
"56 -180 OFFCURVE",
"66 -180 CURVE SMOOTH",
"135 -180 LINE SMOOTH"
);
},
{
closed = 1;
nodes = (
"646 0 OFFCURVE",
"687 6 OFFCURVE",
"711 17 CURVE",
"716 127 OFFCURVE",
"719 235 OFFCURVE",
"719 378 CURVE SMOOTH",
"719 569 OFFCURVE",
"649 660 OFFCURVE",
"500 660 CURVE SMOOTH",
"429 660 OFFCURVE",
"361 640 OFFCURVE",
"318 606 CURVE",
"334 360 LINE",
"334 410 OFFCURVE",
"356 460 OFFCURVE",
"410 460 CURVE",
"467 460 OFFCURVE",
"479 405 OFFCURVE",
"479 360 CURVE",
"479 17 LINE",
"487 7 OFFCURVE",
"535 0 OFFCURVE",
"587 0 CURVE"
);
},
{
closed = 1;
nodes = (
"318 606 LINE",
"314 637 LINE",
"285 646 OFFCURVE",
"256 650 OFFCURVE",
"211 650 CURVE SMOOTH",
"143 650 OFFCURVE",
"105 633 OFFCURVE",
"105 633 CURVE SMOOTH",
"101 529 OFFCURVE",
"100 511 OFFCURVE",
"100 325 CURVE",
"334 360 LINE"
);
}
);
width = 769;
}
);
leftKerningGroup = idotless;
rightKerningGroup = n;
unicode = 0272;
},
{
color = 4;
glyphname = nhookretroflex;
lastChange = "2024-02-04 02:11:10 +0000";
layers = (
{
layerId = "BADE114B-EA49-45B4-AE36-72A7CEB6E1BE";
paths = (
{
closed = 1;
nodes = (
"169 325 LINE",
"50 325 LINE",
"50 139 OFFCURVE",
"55 17 OFFCURVE",
"55 17 CURVE",
"55 17 OFFCURVE",
"80 0 OFFCURVE",
"169 0 CURVE"
);
},
{
closed = 1;
nodes = (
"703 -180 LINE SMOOTH",
"713 -180 OFFCURVE",
"719 -173 OFFCURVE",
"719 -164 CURVE SMOOTH",
"719 -2 LINE SMOOTH",
"719 14 OFFCURVE",
"713 19 OFFCURVE",
"699 19 CURVE SMOOTH",
"679 19 OFFCURVE",
"669 29 OFFCURVE",
"669 54 CURVE SMOOTH",
"669 378 LINE",
"429 360 LINE",
"429 20 LINE SMOOTH",
"429 -110 OFFCURVE",
"479 -180 OFFCURVE",
"628 -180 CURVE SMOOTH"
);
},
{
closed = 1;
nodes = (
"222 0 OFFCURVE",
"254 5 OFFCURVE",
"284 14 CURVE",
"284 360 LINE",
"169 325 LINE",
"169 0 LINE"
);
},
{
closed = 1;
nodes = (
"669 378 LINE",
"669 569 OFFCURVE",
"599 660 OFFCURVE",
"450 660 CURVE SMOOTH",
"379 660 OFFCURVE",
"311 640 OFFCURVE",
"268 606 CURVE",
"284 360 LINE",
"284 410 OFFCURVE",
"306 460 OFFCURVE",
"360 460 CURVE",
"417 460 OFFCURVE",
"429 405 OFFCURVE",
"429 360 CURVE"
);
},
{
closed = 1;
nodes = (
"268 606 LINE",
"264 637 LINE",
"235 646 OFFCURVE",
"206 650 OFFCURVE",
"161 650 CURVE SMOOTH",
"93 650 OFFCURVE",
"55 633 OFFCURVE",
"55 633 CURVE SMOOTH",
"51 529 OFFCURVE",
"50 511 OFFCURVE",
"50 325 CURVE",
"169 325 LINE",
"284 360 LINE"
);
}
);
width = 769;
}
);
leftKerningGroup = idotless;
rightKerningGroup = mark_below;
unicode = 0273;
},
{
color = 4;
glyphname = o;
lastChange = "2024-02-09 10:38:51 +0000";
layers = (
{
anchors = (
{
name = bottom;
position = "{351, -10}";
},
{
name = center;
position = "{396, 325}";
},
{
name = e;
position = "{562, 324}";
},
{
name = horn;
position = "{542, 587}";
},
{
name = ogonek;
position = "{396, -10}";
},
{
name = top;
position = "{351, 650}";
}
);
layerId = "BADE114B-EA49-45B4-AE36-72A7CEB6E1BE";
paths = (
{
closed = 1;
nodes = (
"42 121 OFFCURVE",
"135 -10 OFFCURVE",
"351 -10 CURVE SMOOTH",
"567 -10 OFFCURVE",
"660 121 OFFCURVE",
"660 325 CURVE SMOOTH",
"660 529 OFFCURVE",
"567 660 OFFCURVE",
"351 660 CURVE SMOOTH",
"135 660 OFFCURVE",
"42 529 OFFCURVE",
"42 325 CURVE SMOOTH"
);
},
{
closed = 1;
nodes = (
"276 407 OFFCURVE",
"285 502 OFFCURVE",
"351 502 CURVE SMOOTH",
"417 502 OFFCURVE",
"426 407 OFFCURVE",
"426 325 CURVE SMOOTH",
"426 243 OFFCURVE",
"417 148 OFFCURVE",
"351 148 CURVE SMOOTH",
"285 148 OFFCURVE",
"276 243 OFFCURVE",
"276 325 CURVE SMOOTH"
);
}
);
width = 702;
}
);
leftKerningGroup = o;
note = o;
rightKerningGroup = o;
unicode = 006F;
},
{
color = 4;
glyphname = obarred;
lastChange = "2024-02-04 02:16:17 +0000";
layers = (
{
components = (
{
name = o;
}
);
layerId = "BADE114B-EA49-45B4-AE36-72A7CEB6E1BE";
paths = (
{
closed = 1;
nodes = (
"539 275 LINE",
"539 375 LINE",
"149 375 LINE",
"149 275 LINE"
);
}
);
width = 718;
}
);
leftKerningGroup = o;
rightKerningGroup = o;
unicode = 0275;
},
{
color = 4;
glyphname = ohorn;
lastChange = "2024-02-07 04:54:39 +0000";
layers = (
{
anchors = (
{
name = _horn;
position = "{469, 583}";
}
);
components = (
{
alignment = -1;
name = o;
}
);
layerId = "BADE114B-EA49-45B4-AE36-72A7CEB6E1BE";
paths = (
{
closed = 1;
nodes = (
"469 460 LINE",
"575 460 LINE SMOOTH",
"691 460 OFFCURVE",
"738 546 OFFCURVE",
"736 653 CURVE",
"736 705 LINE SMOOTH",
"736 714 OFFCURVE",
"730 720 OFFCURVE",
"721 720 CURVE SMOOTH",
"560 720 LINE SMOOTH",
"551 720 OFFCURVE",
"545 714 OFFCURVE",
"545 705 CURVE SMOOTH",
"545 675 LINE SMOOTH",
"545 613 OFFCURVE",
"520 583 OFFCURVE",
"469 583 CURVE"
);
}
);
width = 772;
}
);
leftKerningGroup = o;
rightKerningGroup = horn;
unicode = 01A1;
},
{
color = 4;
glyphname = oslash;
lastChange = "2024-02-04 03:59:31 +0000";
layers = (
{
anchors = (
{
name = top;
position = "{375, 650}";
}
);
components = (
{
name = o;
transform = "{1, 0, 0, 1, 21, 0}";
}
);
layerId = "BADE114B-EA49-45B4-AE36-72A7CEB6E1BE";
paths = (
{
closed = 1;
nodes = (
"700 560 LINE",
"668 598 LINE",
"50 90 LINE",
"82 52 LINE"
);
}
);
width = 750;
}
);
leftKerningGroup = o;
rightKerningGroup = o;
unicode = 00F8;
},
{
color = 3;
glyphname = "phi-latin";
lastChange = "2024-02-04 02:36:34 +0000";
layers = (
{
layerId = "BADE114B-EA49-45B4-AE36-72A7CEB6E1BE";
paths = (
{
closed = 1;
nodes = (
"567 660 LINE",
"568 774 OFFCURVE",
"560 878 OFFCURVE",
"559 878 CURVE SMOOTH",
"559 878 OFFCURVE",
"529 890 OFFCURVE",
"453 890 CURVE SMOOTH",
"377 890 OFFCURVE",
"347 878 OFFCURVE",
"347 878 CURVE SMOOTH",
"346 878 OFFCURVE",
"339 774 OFFCURVE",
"339 660 CURVE"
);
},
{
closed = 1;
nodes = (
"42 95 OFFCURVE",
"138 -10 OFFCURVE",
"347 -10 CURVE",
"347 148 LINE",
"295 157 OFFCURVE",
"266 217 OFFCURVE",
"266 325 CURVE SMOOTH",
"266 433 OFFCURVE",
"295 493 OFFCURVE",
"347 502 CURVE",
"347 660 LINE",
"138 660 OFFCURVE",
"42 555 OFFCURVE",
"42 325 CURVE SMOOTH"
);
},
{
closed = 1;
nodes = (
"768 -10 OFFCURVE",
"864 95 OFFCURVE",
"864 325 CURVE SMOOTH",
"864 555 OFFCURVE",
"768 660 OFFCURVE",
"559 660 CURVE",
"559 502 LINE",
"611 493 OFFCURVE",
"640 433 OFFCURVE",
"640 325 CURVE SMOOTH",
"640 217 OFFCURVE",
"611 157 OFFCURVE",
"559 148 CURVE",
"559 -10 LINE"
);
},
{
closed = 1;
nodes = (
"347 -10 LINE",
"559 -10 LINE",
"559 660 LINE",
"347 660 LINE"
);
},
{
closed = 1;
nodes = (
"339 -124 OFFCURVE",
"346 -228 OFFCURVE",
"347 -228 CURVE SMOOTH",
"347 -228 OFFCURVE",
"377 -240 OFFCURVE",
"453 -240 CURVE SMOOTH",
"529 -240 OFFCURVE",
"559 -228 OFFCURVE",
"559 -228 CURVE SMOOTH",
"560 -228 OFFCURVE",
"568 -124 OFFCURVE",
"567 -10 CURVE",
"339 -10 LINE"
);
}
);
width = 906;
}
);
leftKerningGroup = o;
rightKerningGroup = o;
unicode = 0278;
},
{
color = 4;
glyphname = thorn;
lastChange = "2024-02-04 02:17:23 +0000";
layers = (
{
anchors = (
{
name = bottom;
position = "{345, 0}";
},
{
name = top;
position = "{345, 650}";
}
);
layerId = "BADE114B-EA49-45B4-AE36-72A7CEB6E1BE";
paths = (
{
closed = 1;
nodes = (
"588 -10 OFFCURVE",
"671 101 OFFCURVE",
"671 325 CURVE SMOOTH",
"671 548 OFFCURVE",
"588 658 OFFCURVE",
"422 660 CURVE SMOOTH",
"370 660 OFFCURVE",
"299 645 OFFCURVE",
"284 609 CURVE",
"284 401 LINE",
"284 431 OFFCURVE",
"307 484 OFFCURVE",
"360 484 CURVE SMOOTH",
"406 484 OFFCURVE",
"439 436 OFFCURVE",
"439 325 CURVE SMOOTH",
"439 214 OFFCURVE",
"406 166 OFFCURVE",
"360 166 CURVE SMOOTH",
"316 166 OFFCURVE",
"284 195 OFFCURVE",
"284 220 CURVE",
"284 9 LINE",
"310 -2 OFFCURVE",
"356 -10 OFFCURVE",
"422 -10 CURVE SMOOTH"
);
},
{
closed = 1;
nodes = (
"169 326 LINE",
"50 326 LINE",
"50 138 OFFCURVE",
"55 -223 OFFCURVE",
"55 -223 CURVE",
"55 -223 OFFCURVE",
"80 -240 OFFCURVE",
"169 -240 CURVE"
);
},
{
closed = 1;
nodes = (
"224 -240 OFFCURVE",
"253 -234 OFFCURVE",
"284 -222 CURVE",
"284 871 LINE",
"258 884 OFFCURVE",
"220 890 OFFCURVE",
"169 890 CURVE",
"169 -240 LINE"
);
},
{
closed = 1;
nodes = (
"169 326 LINE",
"169 890 LINE",
"80 890 OFFCURVE",
"55 873 OFFCURVE",
"55 873 CURVE",
"54 873 OFFCURVE",
"50 512 OFFCURVE",
"50 326 CURVE"
);
}
);
width = 721;
}
);
leftKerningGroup = I;
rightKerningGroup = o;
unicode = 00FE;
},
{
color = 4;
glyphname = r;
lastChange = "2024-02-09 10:43:48 +0000";
layers = (
{
anchors = (
{
name = bottom;
position = "{177, 0}";
},
{
name = top;
position = "{279, 650}";
}
);
layerId = "BADE114B-EA49-45B4-AE36-72A7CEB6E1BE";
paths = (
{
closed = 1;
nodes = (
"497 630 LINE",
"467 649 OFFCURVE",
"429 660 OFFCURVE",
"394 660 CURVE SMOOTH",
"341 660 OFFCURVE",
"306 643 OFFCURVE",
"276 606 CURVE",
"292 330 LINE",
"295 418 OFFCURVE",
"327 458 OFFCURVE",
"403 458 CURVE SMOOTH",
"433 458 OFFCURVE",
"457 443 OFFCURVE",
"457 443 CURVE"
);
},
{
closed = 1;
nodes = (
"230 0 OFFCURVE",
"262 5 OFFCURVE",
"292 14 CURVE",
"292 330 LINE",
"177 325 LINE",
"177 0 LINE"
);
},
{
closed = 1;
nodes = (
"177 325 LINE",
"58 325 LINE",
"58 139 OFFCURVE",
"63 17 OFFCURVE",
"63 17 CURVE",
"63 17 OFFCURVE",
"88 0 OFFCURVE",
"177 0 CURVE"
);
},
{
closed = 1;
nodes = (
"177 325 LINE",
"174 650 LINE",
"89 650 OFFCURVE",
"63 633 OFFCURVE",
"63 633 CURVE",
"62 633 OFFCURVE",
"58 511 OFFCURVE",
"58 325 CURVE"
);
},
{
closed = 1;
nodes = (
"276 605 LINE",
"272 637 LINE",
"243 646 OFFCURVE",
"214 650 OFFCURVE",
"174 650 CURVE",
"177 325 LINE",
"292 330 LINE"
);
}
);
width = 507;
}
);
leftKerningGroup = idotless;
leftMetricsKey = n;
rightKerningGroup = r;
unicode = 0072;
},
{
color = 4;
glyphname = ramshorn;
lastChange = "2024-02-04 02:45:33 +0000";
layers = (
{
layerId = "BADE114B-EA49-45B4-AE36-72A7CEB6E1BE";
paths = (
{
closed = 1;
nodes = (
"352 168 LINE",
"311 168 OFFCURVE",
"287 189 OFFCURVE",
"287 225 CURVE",
"287 259 OFFCURVE",
"303 289 OFFCURVE",
"352 334 CURVE",
"171 419 LINE",
"102 357 OFFCURVE",
"54 288 OFFCURVE",
"54 209 CURVE SMOOTH",
"54 72 OFFCURVE",
"156 0 OFFCURVE",
"352 0 CURVE"
);
},
{
closed = 1;
nodes = (
"548 0 OFFCURVE",
"650 72 OFFCURVE",
"650 209 CURVE SMOOTH",
"650 288 OFFCURVE",
"602 357 OFFCURVE",
"533 419 CURVE",
"352 334 LINE",
"401 289 OFFCURVE",
"417 259 OFFCURVE",
"417 225 CURVE",
"417 189 OFFCURVE",
"393 168 OFFCURVE",
"352 168 CURVE",
"352 0 LINE"
);
},
{
closed = 1;
nodes = (
"580 499 LINE",
"662 636 LINE",
"626 645 OFFCURVE",
"582 650 OFFCURVE",
"531 650 CURVE SMOOTH",
"497 650 OFFCURVE",
"448 646 OFFCURVE",
"421 638 CURVE",
"371 527 LINE",
"358 489 LINE",
"352 489 LINE",
"352 334 LINE",
"533 419 LINE"
);
},
{
closed = 1;
nodes = (
"352 334 LINE",
"352 489 LINE",
"346 489 LINE",
"333 527 LINE",
"283 638 LINE",
"256 646 OFFCURVE",
"207 650 OFFCURVE",
"173 650 CURVE SMOOTH",
"122 650 OFFCURVE",
"78 645 OFFCURVE",
"42 636 CURVE",
"124 499 LINE",
"171 419 LINE"
);
}
);
width = 704;
}
);
unicode = 0264;
},
{
color = 4;
glyphname = rfishhook;
lastChange = "2024-02-04 02:52:11 +0000";
layers = (
{
layerId = "BADE114B-EA49-45B4-AE36-72A7CEB6E1BE";
paths = (
{
closed = 1;
nodes = (
"221 0 OFFCURVE",
"253 4 OFFCURVE",
"284 11 CURVE",
"284 246 LINE",
"167 246 LINE",
"167 0 LINE"
);
},
{
closed = 1;
nodes = (
"100 661 OFFCURVE",
"50 581 OFFCURVE",
"50 431 CURVE SMOOTH",
"50 246 LINE",
"284 246 LINE",
"284 425 LINE SMOOTH",
"284 470 OFFCURVE",
"302 482 OFFCURVE",
"338 482 CURVE SMOOTH",
"398 482 LINE SMOOTH",
"415 482 OFFCURVE",
"424 489 OFFCURVE",
"424 511 CURVE SMOOTH",
"424 628 LINE SMOOTH",
"424 651 OFFCURVE",
"415 661 OFFCURVE",
"391 661 CURVE SMOOTH",
"259 661 LINE SMOOTH"
);
},
{
closed = 1;
nodes = (
"167 246 LINE",
"50 246 LINE",
"50 11 LINE",
"81 4 OFFCURVE",
"113 0 OFFCURVE",
"167 0 CURVE"
);
}
);
width = 474;
}
);
leftKerningGroup = idotless;
rightKerningGroup = r;
unicode = 027E;
},
{
color = 4;
glyphname = rhook;
lastChange = "2024-02-04 02:52:23 +0000";
layers = (
{
layerId = "BADE114B-EA49-45B4-AE36-72A7CEB6E1BE";
paths = (
{
closed = 1;
nodes = (
"472 503 OFFCURVE",
"481 564 OFFCURVE",
"482 630 CURVE",
"453 649 OFFCURVE",
"416 660 OFFCURVE",
"382 660 CURVE SMOOTH",
"328 660 OFFCURVE",
"292 641 OFFCURVE",
"261 601 CURVE",
"281 360 LINE",
"281 426 OFFCURVE",
"332 458 OFFCURVE",
"385 458 CURVE SMOOTH",
"421 458 OFFCURVE",
"449 443 OFFCURVE",
"449 443 CURVE"
);
},
{
closed = 1;
nodes = (
"169 325 LINE",
"166 650 LINE",
"81 650 OFFCURVE",
"55 633 OFFCURVE",
"55 633 CURVE",
"54 633 OFFCURVE",
"50 511 OFFCURVE",
"50 325 CURVE"
);
},
{
closed = 1;
nodes = (
"281 593 LINE",
"270 602 LINE",
"265 633 LINE",
"265 633 OFFCURVE",
"237 650 OFFCURVE",
"166 650 CURVE",
"169 325 LINE",
"281 325 LINE"
);
},
{
closed = 1;
nodes = (
"345 -240 LINE SMOOTH",
"355 -240 OFFCURVE",
"361 -233 OFFCURVE",
"361 -224 CURVE SMOOTH",
"361 -88 LINE SMOOTH",
"361 -66 OFFCURVE",
"355 -61 OFFCURVE",
"326 -61 CURVE SMOOTH",
"291 -61 OFFCURVE",
"281 -51 OFFCURVE",
"281 -14 CURVE SMOOTH",
"281 325 LINE",
"50 325 LINE",
"50 -10 LINE SMOOTH",
"50 -160 OFFCURVE",
"100 -240 OFFCURVE",
"259 -240 CURVE SMOOTH"
);
}
);
width = 532;
}
);
leftKerningGroup = idotless;
rightKerningGroup = mark_below;
unicode = 027D;
},
{
color = 4;
glyphname = rhookturned;
lastChange = "2024-02-03 13:28:42 +0000";
layers = (
{
anchors = (
{
name = bottom;
position = "{363, 650}";
},
{
name = top;
position = "{248, 0}";
}
);
layerId = "BADE114B-EA49-45B4-AE36-72A7CEB6E1BE";
paths = (
{
closed = 1;
nodes = (
"310 650 OFFCURVE",
"278 645 OFFCURVE",
"248 636 CURVE",
"248 290 LINE",
"365 295 LINE",
"365 650 LINE"
);
},
{
closed = 1;
nodes = (
"365 295 LINE",
"482 325 LINE",
"482 636 LINE",
"452 645 OFFCURVE",
"420 650 OFFCURVE",
"365 650 CURVE"
);
},
{
closed = 1;
nodes = (
"546 -240 LINE SMOOTH",
"556 -240 OFFCURVE",
"562 -233 OFFCURVE",
"562 -224 CURVE SMOOTH",
"562 -88 LINE SMOOTH",
"562 -66 OFFCURVE",
"556 -61 OFFCURVE",
"527 -61 CURVE SMOOTH",
"492 -61 OFFCURVE",
"482 -51 OFFCURVE",
"482 -14 CURVE SMOOTH",
"482 325 LINE",
"248 290 LINE",
"251 -10 LINE SMOOTH",
"252 -160 OFFCURVE",
"301 -240 OFFCURVE",
"460 -240 CURVE SMOOTH"
);
},
{
closed = 1;
nodes = (
"60 147 OFFCURVE",
"51 86 OFFCURVE",
"50 20 CURVE",
"79 1 OFFCURVE",
"116 -10 OFFCURVE",
"150 -10 CURVE SMOOTH",
"204 -10 OFFCURVE",
"240 9 OFFCURVE",
"271 49 CURVE",
"248 290 LINE",
"245 224 OFFCURVE",
"199 192 OFFCURVE",
"147 192 CURVE SMOOTH",
"111 192 OFFCURVE",
"83 207 OFFCURVE",
"83 207 CURVE"
);
}
);
width = 612;
}
);
unicode = 027B;
},
{
color = 4;
glyphname = rlonglegturned;
lastChange = "2024-02-04 02:52:35 +0000";
layers = (
{
anchors = (
{
name = bottom;
position = "{363, 650}";
},
{
name = top;
position = "{248, 0}";
}
);
layerId = "BADE114B-EA49-45B4-AE36-72A7CEB6E1BE";
paths = (
{
closed = 1;
nodes = (
"277 890 OFFCURVE",
"248 873 OFFCURVE",
"248 873 CURVE",
"248 873 OFFCURVE",
"248 511 OFFCURVE",
"248 325 CURVE",
"363 325 LINE",
"363 890 LINE"
);
},
{
closed = 1;
nodes = (
"363 325 LINE",
"482 325 LINE",
"482 872 LINE",
"450 884 OFFCURVE",
"420 890 OFFCURVE",
"363 890 CURVE"
);
},
{
closed = 1;
nodes = (
"60 147 OFFCURVE",
"51 86 OFFCURVE",
"50 20 CURVE",
"79 1 OFFCURVE",
"116 -10 OFFCURVE",
"150 -10 CURVE SMOOTH",
"204 -10 OFFCURVE",
"240 9 OFFCURVE",
"271 49 CURVE",
"248 290 LINE",
"248 224 OFFCURVE",
"200 192 OFFCURVE",
"147 192 CURVE SMOOTH",
"111 192 OFFCURVE",
"83 207 OFFCURVE",
"83 207 CURVE"
);
},
{
closed = 1;
nodes = (
"363 325 LINE",
"366 0 LINE",
"451 -1 OFFCURVE",
"477 16 OFFCURVE",
"477 16 CURVE",
"478 16 OFFCURVE",
"482 139 OFFCURVE",
"482 325 CURVE"
);
},
{
closed = 1;
nodes = (
"248 57 LINE",
"262 48 LINE",
"267 17 LINE",
"267 17 OFFCURVE",
"295 0 OFFCURVE",
"366 0 CURVE",
"363 325 LINE",
"248 325 LINE"
);
}
);
width = 532;
}
);
rightKerningGroup = I;
unicode = 027A;
},
{
color = 4;
glyphname = s;
lastChange = "2024-02-09 10:44:28 +0000";
layers = (
{
anchors = (
{
name = bottom;
position = "{296, 0}";
},
{
name = top;
position = "{296, 650}";
}
);
layerId = "BADE114B-EA49-45B4-AE36-72A7CEB6E1BE";
paths = (
{
closed = 1;
nodes = (
"451 -10 OFFCURVE",
"545 65 OFFCURVE",
"545 191 CURVE SMOOTH",
"545 417 OFFCURVE",
"258 377 OFFCURVE",
"258 452 CURVE SMOOTH",
"258 474 OFFCURVE",
"277 486 OFFCURVE",
"313 487 CURVE SMOOTH",
"362 487 OFFCURVE",
"418 473 OFFCURVE",
"465 450 CURVE",
"513 604 LINE",
"446 645 OFFCURVE",
"378 665 OFFCURVE",
"273 665 CURVE SMOOTH",
"140 665 OFFCURVE",
"51 581 OFFCURVE",
"51 467 CURVE SMOOTH",
"51 235 OFFCURVE",
"338 277 OFFCURVE",
"338 198 CURVE SMOOTH",
"338 177 OFFCURVE",
"319 166 OFFCURVE",
"285 166 CURVE SMOOTH",
"232 166 OFFCURVE",
"165 184 OFFCURVE",
"117 211 CURVE",
"34 68 LINE",
"103 17 OFFCURVE",
"191 -10 OFFCURVE",
"291 -10 CURVE SMOOTH"
);
}
);
width = 575;
}
);
leftKerningGroup = s;
note = s;
rightKerningGroup = s;
unicode = 0073;
},
{
color = 4;
glyphname = germandbls;
lastChange = "2024-02-04 02:54:21 +0000";
layers = (
{
anchors = (
{
name = bottom;
position = "{360, 0}";
},
{
name = top;
position = "{360, 650}";
}
);
layerId = "BADE114B-EA49-45B4-AE36-72A7CEB6E1BE";
paths = (
{
closed = 1;
nodes = (
"50 395 OFFCURVE",
"59 18 OFFCURVE",
"59 18 CURVE SMOOTH",
"59 18 OFFCURVE",
"95 0 OFFCURVE",
"180 0 CURVE SMOOTH",
"257 0 OFFCURVE",
"288 18 OFFCURVE",
"288 18 CURVE",
"288 657 LINE SMOOTH",
"288 706 OFFCURVE",
"312 734 OFFCURVE",
"360 734 CURVE SMOOTH",
"407 734 OFFCURVE",
"434 702 OFFCURVE",
"434 649 CURVE SMOOTH",
"434 597 OFFCURVE",
"410 563 OFFCURVE",
"374 563 CURVE",
"374 391 LINE",
"424 391 OFFCURVE",
"470 348 OFFCURVE",
"470 267 CURVE SMOOTH",
"470 177 OFFCURVE",
"436 137 OFFCURVE",
"354 136 CURVE",
"354 10 LINE",
"354 10 OFFCURVE",
"385 -10 OFFCURVE",
"449 -10 CURVE SMOOTH",
"622 -10 OFFCURVE",
"710 90 OFFCURVE",
"710 248 CURVE SMOOTH",
"710 371 OFFCURVE",
"662 449 OFFCURVE",
"574 490 CURVE",
"635 521 OFFCURVE",
"667 591 OFFCURVE",
"666 662 CURVE SMOOTH",
"664 818 OFFCURVE",
"559 900 OFFCURVE",
"357 900 CURVE SMOOTH",
"137 900 OFFCURVE",
"50 822 OFFCURVE",
"50 597 CURVE SMOOTH"
);
}
);
width = 760;
}
);
leftKerningGroup = I;
rightKerningGroup = B;
unicode = 00DF;
},
{
color = 0;
glyphname = shook;
lastChange = "2024-02-04 02:54:31 +0000";
layers = (
{
components = (
{
name = s;
transform = "{1, 0, 0, 1, 16, 0}";
}
);
layerId = "BADE114B-EA49-45B4-AE36-72A7CEB6E1BE";
paths = (
{
closed = 1;
nodes = (
"266 -200 LINE SMOOTH",
"290 -200 OFFCURVE",
"299 -190 OFFCURVE",
"299 -167 CURVE SMOOTH",
"299 -90 LINE SMOOTH",
"299 -68 OFFCURVE",
"290 -61 OFFCURVE",
"273 -61 CURVE SMOOTH",
"255 -61 LINE SMOOTH",
"234 -61 OFFCURVE",
"219 -47 OFFCURVE",
"219 -20 CURVE SMOOTH",
"219 40 LINE",
"52 68 LINE",
"50 -78 LINE SMOOTH",
"50 -167 OFFCURVE",
"87 -200 OFFCURVE",
"180 -200 CURVE SMOOTH"
);
}
);
width = 627;
}
);
leftKerningGroup = s;
rightKerningGroup = s;
unicode = 0282;
},
{
color = 4;
glyphname = longs;
lastChange = "2024-02-04 02:54:37 +0000";
layers = (
{
anchors = (
{
name = bottom;
position = "{180, 0}";
},
{
name = top;
position = "{180, 650}";
}
);
layerId = "BADE114B-EA49-45B4-AE36-72A7CEB6E1BE";
paths = (
{
closed = 1;
nodes = (
"50 395 OFFCURVE",
"59 18 OFFCURVE",
"59 18 CURVE SMOOTH",
"59 18 OFFCURVE",
"95 0 OFFCURVE",
"180 0 CURVE SMOOTH",
"257 0 OFFCURVE",
"288 18 OFFCURVE",
"288 18 CURVE",
"288 676 LINE SMOOTH",
"288 721 OFFCURVE",
"306 733 OFFCURVE",
"342 733 CURVE SMOOTH",
"362 733 LINE SMOOTH",
"379 733 OFFCURVE",
"388 740 OFFCURVE",
"388 762 CURVE SMOOTH",
"388 879 LINE SMOOTH",
"388 902 OFFCURVE",
"379 912 OFFCURVE",
"355 912 CURVE SMOOTH",
"263 912 LINE SMOOTH",
"104 912 OFFCURVE",
"50 835 OFFCURVE",
"50 682 CURVE SMOOTH",
"50 597 LINE SMOOTH"
);
}
);
width = 438;
}
);
leftKerningGroup = I;
note = longs;
unicode = 017F;
},
{
color = 4;
glyphname = t;
lastChange = "2024-02-09 10:44:54 +0000";
layers = (
{
anchors = (
{
name = bottom;
position = "{217, 0}";
},
{
name = center;
position = "{216, 325}";
},
{
name = circumflexBelow;
position = "{246, 0}";
},
{
name = macronbelow;
position = "{246, 0}";
},
{
name = top;
position = "{205, 840}";
}
);
layerId = "BADE114B-EA49-45B4-AE36-72A7CEB6E1BE";
paths = (
{
closed = 1;
nodes = (
"320 -10 OFFCURVE",
"370 7 OFFCURVE",
"403 41 CURVE",
"394 187 LINE",
"381 182 OFFCURVE",
"367 179 OFFCURVE",
"353 179 CURVE SMOOTH",
"327 179 OFFCURVE",
"317 197 OFFCURVE",
"317 242 CURVE SMOOTH",
"317 821 LINE",
"288 834 OFFCURVE",
"261 840 OFFCURVE",
"205 840 CURVE SMOOTH",
"122 840 OFFCURVE",
"92 823 OFFCURVE",
"92 823 CURVE",
"92 209 LINE SMOOTH",
"92 53 OFFCURVE",
"139 -10 OFFCURVE",
"256 -10 CURVE SMOOTH"
);
},
{
closed = 1;
nodes = (
"380 464 LINE",
"380 464 OFFCURVE",
"384 479 OFFCURVE",
"384 542 CURVE SMOOTH",
"384 604 OFFCURVE",
"380 620 OFFCURVE",
"380 620 CURVE",
"199 620 LINE",
"153 640 LINE",
"28 640 LINE",
"28 640 OFFCURVE",
"24 622 OFFCURVE",
"24 552 CURVE SMOOTH",
"24 482 OFFCURVE",
"28 464 OFFCURVE",
"28 464 CURVE"
);
}
);
width = 431;
}
);
leftKerningGroup = t;
note = t;
rightKerningGroup = t;
unicode = 0074;
},
{
color = 4;
glyphname = tbar;
lastChange = "2024-02-04 02:54:47 +0000";
layers = (
{
layerId = "BADE114B-EA49-45B4-AE36-72A7CEB6E1BE";
paths = (
{
closed = 1;
nodes = (
"362 -10 OFFCURVE",
"397 -6 OFFCURVE",
"427 0 CURVE",
"431 63 OFFCURVE",
"427 132 OFFCURVE",
"421 183 CURVE",
"356 171 OFFCURVE",
"344 185 OFFCURVE",
"344 242 CURVE",
"344 538 LINE",
"110 538 LINE",
"110 253 LINE",
"110 63 OFFCURVE",
"154 -10 OFFCURVE",
"319 -10 CURVE"
);
},
{
closed = 1;
nodes = (
"421 365 LINE",
"421 467 LINE",
"50 467 LINE",
"50 365 LINE"
);
},
{
closed = 1;
nodes = (
"421 528 LINE",
"421 630 LINE",
"50 630 LINE",
"50 528 LINE"
);
},
{
closed = 1;
nodes = (
"229 565 LINE",
"229 840 LINE",
"140 840 OFFCURVE",
"115 823 OFFCURVE",
"115 823 CURVE",
"115 823 OFFCURVE",
"110 662 OFFCURVE",
"110 565 CURVE"
);
},
{
closed = 1;
nodes = (
"344 630 LINE",
"344 821 LINE",
"318 834 OFFCURVE",
"280 840 OFFCURVE",
"229 840 CURVE",
"229 630 LINE"
);
}
);
width = 479;
}
);
leftKerningGroup = t;
rightKerningGroup = t;
unicode = 0167;
},
{
color = 4;
glyphname = tretroflexhook;
lastChange = "2024-02-04 02:57:19 +0000";
layers = (
{
layerId = "BADE114B-EA49-45B4-AE36-72A7CEB6E1BE";
paths = (
{
closed = 1;
nodes = (
"229 515 LINE",
"229 840 LINE",
"140 840 OFFCURVE",
"115 823 OFFCURVE",
"115 823 CURVE",
"115 823 OFFCURVE",
"110 662 OFFCURVE",
"110 515 CURVE"
);
},
{
closed = 1;
nodes = (
"344 630 LINE",
"344 821 LINE",
"318 834 OFFCURVE",
"280 840 OFFCURVE",
"229 840 CURVE",
"229 630 LINE"
);
},
{
closed = 1;
nodes = (
"362 -240 OFFCURVE",
"397 -234 OFFCURVE",
"426 -225 CURVE",
"431 -167 OFFCURVE",
"426 -98 OFFCURVE",
"420 -47 CURVE",
"356 -59 OFFCURVE",
"343 -45 OFFCURVE",
"343 12 CURVE",
"343 486 LINE",
"110 486 LINE",
"110 -47 LINE",
"111 -206 OFFCURVE",
"180 -240 OFFCURVE",
"296 -240 CURVE"
);
},
{
closed = 1;
nodes = (
"421 476 LINE",
"421 640 LINE",
"50 640 LINE",
"50 476 LINE"
);
}
);
width = 478;
}
);
leftKerningGroup = t;
rightKerningGroup = mark_below;
unicode = 0288;
},
{
color = 4;
glyphname = ubar;
lastChange = "2024-02-04 02:57:36 +0000";
layers = (
{
components = (
{
name = u;
transform = "{1, 0, 0, 1, 60, 0}";
}
);
layerId = "BADE114B-EA49-45B4-AE36-72A7CEB6E1BE";
paths = (
{
closed = 1;
nodes = (
"779 358 LINE",
"779 450 LINE",
"50 450 LINE",
"50 358 LINE"
);
}
);
width = 829;
}
);
leftKerningGroup = u;
rightKerningGroup = idotless;
unicode = 0289;
},
{
color = 4;
glyphname = uhorn;
lastChange = "2024-02-07 04:55:43 +0000";
layers = (
{
anchors = (
{
name = bottom;
position = "{360, 0}";
},
{
name = ogonek;
position = "{550, 0}";
},
{
name = top;
position = "{360, 650}";
},
{
name = topright;
position = "{694, 650}";
}
);
layerId = "BADE114B-EA49-45B4-AE36-72A7CEB6E1BE";
paths = (
{
closed = 1;
nodes = (
"428 288 LINE",
"668 277 LINE",
"668 312 LINE SMOOTH",
"668 376 OFFCURVE",
"652 436 OFFCURVE",
"617 476 CURVE",
"717 476 OFFCURVE",
"769 544 OFFCURVE",
"769 673 CURVE",
"769 705 LINE SMOOTH",
"769 714 OFFCURVE",
"762 720 OFFCURVE",
"753 720 CURVE SMOOTH",
"593 720 LINE SMOOTH",
"584 720 OFFCURVE",
"578 715 OFFCURVE",
"578 705 CURVE SMOOTH",
"578 622 OFFCURVE",
"553 579 OFFCURVE",
"470 579 CURVE SMOOTH",
"428 579 LINE"
);
},
{
closed = 1;
nodes = (
"290 288 LINE",
"290 633 LINE",
"282 643 OFFCURVE",
"234 650 OFFCURVE",
"182 650 CURVE SMOOTH",
"123 650 OFFCURVE",
"82 644 OFFCURVE",
"58 633 CURVE",
"53 536 OFFCURVE",
"50 415 OFFCURVE",
"50 323 CURVE"
);
},
{
closed = 1;
nodes = (
"359 181 LINE",
"307 181 OFFCURVE",
"290 228 OFFCURVE",
"290 288 CURVE",
"50 323 LINE",
"50 68 OFFCURVE",
"156 -10 OFFCURVE",
"359 -10 CURVE"
);
},
{
closed = 1;
nodes = (
"562 -10 OFFCURVE",
"668 68 OFFCURVE",
"668 277 CURVE",
"428 288 LINE",
"428 228 OFFCURVE",
"411 181 OFFCURVE",
"359 181 CURVE",
"359 -10 LINE"
);
}
);
width = 803;
}
);
leftKerningGroup = u;
rightKerningGroup = horn;
unicode = 01B0;
},
{
color = 3;
glyphname = "upsilon-latin";
lastChange = "2024-02-10 01:27:47 +0000";
layers = (
{
background = {
paths = (
{
closed = 1;
nodes = (
"139 461 LINE",
"81 409 OFFCURVE",
"47 331 OFFCURVE",
"47 227 CURVE SMOOTH",
"47 92 OFFCURVE",
"136 -10 OFFCURVE",
"353 -10 CURVE",
"353 163 LINE",
"299 163 OFFCURVE",
"273 207 OFFCURVE",
"273 286 CURVE SMOOTH",
"273 361 OFFCURVE",
"302 411 OFFCURVE",
"320 430 CURVE"
);
},
{
closed = 1;
nodes = (
"57 525 OFFCURVE",
"61 471 OFFCURVE",
"66 460 CURVE",
"139 461 LINE",
"320 430 LINE",
"320 559 LINE",
"57 559 LINE"
);
},
{
closed = 1;
nodes = (
"320 559 LINE",
"320 640 LINE",
"66 640 LINE",
"61 629 OFFCURVE",
"57 593 OFFCURVE",
"57 559 CURVE"
);
},
{
closed = 1;
nodes = (
"404 411 OFFCURVE",
"433 361 OFFCURVE",
"433 286 CURVE SMOOTH",
"433 207 OFFCURVE",
"407 163 OFFCURVE",
"353 163 CURVE",
"353 -10 LINE",
"570 -10 OFFCURVE",
"659 92 OFFCURVE",
"659 227 CURVE SMOOTH",
"659 331 OFFCURVE",
"625 409 OFFCURVE",
"567 461 CURVE",
"386 430 LINE"
);
},
{
closed = 1;
nodes = (
"386 559 LINE",
"386 430 LINE",
"567 461 LINE",
"640 460 LINE",
"645 471 OFFCURVE",
"649 525 OFFCURVE",
"649 559 CURVE"
);
},
{
closed = 1;
nodes = (
"649 593 OFFCURVE",
"645 629 OFFCURVE",
"640 640 CURVE",
"386 640 LINE",
"386 559 LINE",
"649 559 LINE"
);
}
);
};
layerId = "BADE114B-EA49-45B4-AE36-72A7CEB6E1BE";
paths = (
{
closed = 1;
nodes = (
"44 101 OFFCURVE",
"137 -10 OFFCURVE",
"353 -10 CURVE",
"353 148 LINE",
"297 148 OFFCURVE",
"278 203 OFFCURVE",
"278 308 CURVE SMOOTH",
"278 373 OFFCURVE",
"295 453 OFFCURVE",
"321 491 CURVE",
"321 547 LINE",
"148 543 OFFCURVE",
"44 433 OFFCURVE",
"44 271 CURVE SMOOTH"
);
},
{
closed = 1;
nodes = (
"52 492 OFFCURVE",
"56 474 OFFCURVE",
"56 474 CURVE",
"211 474 LINE",
"321 491 LINE",
"321 650 LINE",
"56 650 LINE SMOOTH",
"56 650 OFFCURVE",
"52 632 OFFCURVE",
"52 562 CURVE SMOOTH"
);
},
{
closed = 1;
nodes = (
"654 632 OFFCURVE",
"650 650 OFFCURVE",
"650 650 CURVE SMOOTH",
"385 650 LINE",
"385 491 LINE",
"495 474 LINE",
"650 474 LINE",
"650 474 OFFCURVE",
"654 492 OFFCURVE",
"654 562 CURVE SMOOTH"
);
},
{
closed = 1;
nodes = (
"662 433 OFFCURVE",
"558 543 OFFCURVE",
"385 547 CURVE",
"385 491 LINE",
"411 453 OFFCURVE",
"428 373 OFFCURVE",
"428 308 CURVE SMOOTH",
"428 203 OFFCURVE",
"409 148 OFFCURVE",
"353 148 CURVE",
"353 -10 LINE",
"569 -10 OFFCURVE",
"662 101 OFFCURVE",
"662 271 CURVE SMOOTH"
);
}
);
width = 706;
}
);
leftMetricsKey = o;
rightMetricsKey = o;
unicode = 028A;
},
{
color = 4;
glyphname = v;
lastChange = "2024-02-07 01:48:54 +0000";
layers = (
{
anchors = (
{
name = bottom;
position = "{358, 0}";
},
{
name = top;
position = "{358, 650}";
}
);
layerId = "BADE114B-EA49-45B4-AE36-72A7CEB6E1BE";
paths = (
{
closed = 1;
nodes = (
"370 174 LINE",
"364 174 LINE",
"353 250 LINE",
"267 638 LINE",
"240 646 OFFCURVE",
"191 650 OFFCURVE",
"157 650 CURVE SMOOTH",
"106 650 OFFCURVE",
"64 645 OFFCURVE",
"28 636 CURVE",
"211 23 LINE",
"269 6 OFFCURVE",
"312 0 OFFCURVE",
"370 0 CURVE"
);
},
{
closed = 1;
nodes = (
"428 0 OFFCURVE",
"471 6 OFFCURVE",
"529 23 CURVE",
"712 636 LINE",
"676 645 OFFCURVE",
"634 650 OFFCURVE",
"583 650 CURVE SMOOTH",
"549 650 OFFCURVE",
"500 646 OFFCURVE",
"473 638 CURVE",
"387 250 LINE",
"376 174 LINE",
"370 174 LINE",
"370 0 LINE"
);
}
);
width = 740;
}
);
leftKerningGroup = v;
note = v;
rightKerningGroup = v;
unicode = 0076;
},
{
color = 4;
glyphname = vrighthook;
lastChange = "2024-02-09 03:08:14 +0000";
layers = (
{
layerId = "BADE114B-EA49-45B4-AE36-72A7CEB6E1BE";
paths = (
{
closed = 1;
nodes = (
"370 174 LINE",
"364 174 LINE",
"353 244 LINE",
"261 638 LINE",
"234 646 OFFCURVE",
"185 650 OFFCURVE",
"151 650 CURVE SMOOTH",
"100 650 OFFCURVE",
"64 645 OFFCURVE",
"28 636 CURVE",
"202 23 LINE",
"264 6 OFFCURVE",
"309 0 OFFCURVE",
"370 0 CURVE"
);
},
{
closed = 1;
nodes = (
"432 0 OFFCURVE",
"493 8 OFFCURVE",
"538 23 CURVE",
"387 244 LINE",
"376 174 LINE",
"370 174 LINE",
"370 0 LINE"
);
},
{
closed = 1;
nodes = (
"626 360 LINE SMOOTH",
"661 494 OFFCURVE",
"696 523 OFFCURVE",
"788 496 CURVE",
"826 662 LINE",
"786 683 OFFCURVE",
"739 697 OFFCURVE",
"667 697 CURVE SMOOTH",
"567 697 OFFCURVE",
"492 636 OFFCURVE",
"459 513 CURVE SMOOTH",
"387 244 LINE",
"538 23 LINE"
);
}
);
width = 836;
}
);
leftKerningGroup = v;
unicode = 2C71;
},
{
color = 4;
glyphname = w;
lastChange = "2024-02-09 10:45:19 +0000";
layers = (
{
anchors = (
{
name = bottom;
position = "{448, 0}";
},
{
name = top;
position = "{448, 650}";
}
);
layerId = "BADE114B-EA49-45B4-AE36-72A7CEB6E1BE";
paths = (
{
closed = 1;
nodes = (
"329 0 OFFCURVE",
"362 5 OFFCURVE",
"399 17 CURVE",
"448 175 LINE",
"448 488 LINE",
"415 488 OFFCURVE",
"385 482 OFFCURVE",
"363 474 CURVE",
"304 174 LINE",
"292 174 LINE",
"271 638 LINE",
"244 646 OFFCURVE",
"195 650 OFFCURVE",
"161 650 CURVE SMOOTH",
"100 650 OFFCURVE",
"64 645 OFFCURVE",
"28 636 CURVE",
"146 22 LINE",
"174 12 OFFCURVE",
"215 0 OFFCURVE",
"271 0 CURVE"
);
},
{
closed = 1;
nodes = (
"681 0 OFFCURVE",
"722 12 OFFCURVE",
"750 22 CURVE",
"868 636 LINE",
"832 645 OFFCURVE",
"796 650 OFFCURVE",
"735 650 CURVE SMOOTH",
"701 650 OFFCURVE",
"652 646 OFFCURVE",
"625 638 CURVE",
"604 174 LINE",
"592 174 LINE",
"533 474 LINE",
"511 482 OFFCURVE",
"481 488 OFFCURVE",
"448 488 CURVE",
"448 175 LINE",
"497 17 LINE",
"534 5 OFFCURVE",
"567 0 OFFCURVE",
"625 0 CURVE"
);
}
);
width = 896;
}
);
leftKerningGroup = w;
note = w;
rightKerningGroup = w;
unicode = 0077;
},
{
color = 4;
glyphname = x;
lastChange = "2024-02-07 01:05:33 +0000";
layers = (
{
anchors = (
{
name = bottom;
position = "{352, 0}";
},
{
name = top;
position = "{360, 650}";
}
);
layerId = "BADE114B-EA49-45B4-AE36-72A7CEB6E1BE";
paths = (
{
closed = 1;
nodes = (
"538 325 LINE",
"567 375 LINE",
"662 636 LINE",
"626 645 OFFCURVE",
"586 650 OFFCURVE",
"535 650 CURVE SMOOTH",
"501 650 OFFCURVE",
"452 646 OFFCURVE",
"425 638 CURVE",
"379 477 LINE",
"358 400 LINE",
"346 400 LINE",
"325 477 LINE",
"279 638 LINE",
"252 646 OFFCURVE",
"203 650 OFFCURVE",
"169 650 CURVE SMOOTH",
"118 650 OFFCURVE",
"78 645 OFFCURVE",
"42 636 CURVE",
"137 375 LINE",
"166 325 LINE"
);
},
{
closed = 1;
nodes = (
"137 275 LINE",
"42 14 LINE",
"78 5 OFFCURVE",
"118 0 OFFCURVE",
"169 0 CURVE SMOOTH",
"203 0 OFFCURVE",
"252 4 OFFCURVE",
"279 12 CURVE",
"325 173 LINE",
"346 250 LINE",
"358 250 LINE",
"379 173 LINE",
"425 12 LINE",
"452 4 OFFCURVE",
"501 0 OFFCURVE",
"535 0 CURVE SMOOTH",
"586 0 OFFCURVE",
"626 5 OFFCURVE",
"662 14 CURVE",
"567 275 LINE",
"538 325 LINE",
"166 325 LINE"
);
}
);
width = 704;
}
);
leftKerningGroup = x;
note = x;
rightKerningGroup = x;
unicode = 0078;
},
{
color = 4;
glyphname = y;
lastChange = "2024-02-07 01:49:04 +0000";
layers = (
{
anchors = (
{
name = bottom;
position = "{368, 0}";
},
{
name = top;
position = "{368, 650}";
}
);
layerId = "BADE114B-EA49-45B4-AE36-72A7CEB6E1BE";
paths = (
{
closed = 1;
nodes = (
"370 174 LINE",
"364 174 LINE",
"353 244 LINE",
"261 638 LINE",
"234 646 OFFCURVE",
"185 650 OFFCURVE",
"151 650 CURVE SMOOTH",
"100 650 OFFCURVE",
"64 645 OFFCURVE",
"28 636 CURVE",
"202 23 LINE",
"264 6 OFFCURVE",
"309 0 OFFCURVE",
"370 0 CURVE"
);
},
{
closed = 1;
nodes = (
"431 0 OFFCURVE",
"476 6 OFFCURVE",
"538 23 CURVE",
"712 636 LINE",
"676 645 OFFCURVE",
"640 650 OFFCURVE",
"589 650 CURVE SMOOTH",
"555 650 OFFCURVE",
"506 646 OFFCURVE",
"479 638 CURVE",
"387 244 LINE",
"376 174 LINE",
"370 174 LINE",
"370 0 LINE"
);
},
{
closed = 1;
nodes = (
"406 -270 OFFCURVE",
"465 -214 OFFCURVE",
"534 10 CURVE SMOOTH",
"538 23 LINE",
"362 137 LINE",
"331 14 LINE SMOOTH",
"317 -43 OFFCURVE",
"285 -66 OFFCURVE",
"220 -66 CURVE SMOOTH",
"156 -66 OFFCURVE",
"104 -62 OFFCURVE",
"40 -51 CURVE",
"67 -263 LINE",
"117 -268 OFFCURVE",
"171 -270 OFFCURVE",
"237 -270 CURVE SMOOTH"
);
}
);
width = 740;
}
);
leftKerningGroup = v;
leftMetricsKey = v;
note = y;
rightKerningGroup = y;
unicode = 0079;
},
{
color = 4;
glyphname = ydotbelow;
lastChange = "2024-02-04 02:59:23 +0000";
layers = (
{
anchors = (
{
name = bottom;
position = "{388, 0}";
},
{
name = top;
position = "{388, 650}";
}
);
components = (
{
alignment = -1;
name = dotbelowcomb;
transform = "{1, 0, 0, 1, 536, 68}";
}
);
layerId = "BADE114B-EA49-45B4-AE36-72A7CEB6E1BE";
paths = (
{
closed = 1;
nodes = (
"421 0 OFFCURVE",
"471 6 OFFCURVE",
"535 23 CURVE",
"773 636 LINE",
"739 645 OFFCURVE",
"703 650 OFFCURVE",
"652 650 CURVE SMOOTH",
"618 650 OFFCURVE",
"564 646 OFFCURVE",
"537 638 CURVE",
"401 234 LINE",
"384 164 LINE",
"378 164 LINE",
"360 0 LINE"
);
},
{
closed = 1;
nodes = (
"378 164 LINE",
"372 164 LINE",
"361 234 LINE",
"269 638 LINE",
"242 646 OFFCURVE",
"193 650 OFFCURVE",
"159 650 CURVE SMOOTH",
"108 650 OFFCURVE",
"72 645 OFFCURVE",
"36 636 CURVE",
"210 23 LINE",
"272 6 OFFCURVE",
"317 0 OFFCURVE",
"378 0 CURVE"
);
},
{
closed = 1;
nodes = (
"356 -270 OFFCURVE",
"447 -205 OFFCURVE",
"509 -43 CURVE SMOOTH",
"535 23 LINE",
"366 137 LINE",
"323 14 LINE SMOOTH",
"303 -43 OFFCURVE",
"269 -66 OFFCURVE",
"208 -66 CURVE SMOOTH",
"144 -66 OFFCURVE",
"92 -62 OFFCURVE",
"28 -51 CURVE",
"59 -263 LINE",
"94 -268 OFFCURVE",
"141 -270 OFFCURVE",
"193 -270 CURVE SMOOTH"
);
}
);
width = 854;
}
);
leftKerningGroup = v;
unicode = 1EF5;
},
{
color = 4;
glyphname = yhook;
lastChange = "2024-02-09 03:08:24 +0000";
layers = (
{
anchors = (
{
name = bottom;
position = "{372, 0}";
},
{
name = top;
position = "{372, 650}";
}
);
background = {
paths = (
{
closed = 1;
nodes = (
"370 164 LINE",
"636 395 LINE",
"647 437 LINE SMOOTH",
"659 483 OFFCURVE",
"681 506 OFFCURVE",
"721 506 CURVE SMOOTH",
"747 506 OFFCURVE",
"769 503 OFFCURVE",
"790 495 CURVE",
"828 674 LINE",
"788 690 OFFCURVE",
"738 700 OFFCURVE",
"694 700 CURVE SMOOTH",
"569 700 OFFCURVE",
"509 653 OFFCURVE",
"468 518 CURVE SMOOTH",
"434 407 LINE"
);
}
);
};
layerId = "BADE114B-EA49-45B4-AE36-72A7CEB6E1BE";
paths = (
{
closed = 1;
nodes = (
"370 164 LINE",
"364 164 LINE",
"353 234 LINE",
"261 638 LINE",
"234 646 OFFCURVE",
"185 650 OFFCURVE",
"151 650 CURVE SMOOTH",
"100 650 OFFCURVE",
"64 645 OFFCURVE",
"28 636 CURVE",
"202 23 LINE",
"264 6 OFFCURVE",
"309 0 OFFCURVE",
"370 0 CURVE"
);
},
{
closed = 1;
nodes = (
"387 244 LINE",
"370 164 LINE",
"331 14 LINE SMOOTH",
"316 -44 OFFCURVE",
"285 -66 OFFCURVE",
"220 -66 CURVE SMOOTH",
"156 -66 OFFCURVE",
"104 -62 OFFCURVE",
"40 -51 CURVE",
"67 -263 LINE",
"117 -268 OFFCURVE",
"171 -270 OFFCURVE",
"237 -270 CURVE SMOOTH",
"406 -270 OFFCURVE",
"465 -214 OFFCURVE",
"534 10 CURVE SMOOTH",
"538 23 LINE"
);
},
{
closed = 1;
nodes = (
"626 360 LINE SMOOTH",
"661 494 OFFCURVE",
"696 523 OFFCURVE",
"788 496 CURVE",
"826 662 LINE",
"786 683 OFFCURVE",
"739 697 OFFCURVE",
"667 697 CURVE SMOOTH",
"567 697 OFFCURVE",
"492 636 OFFCURVE",
"459 513 CURVE SMOOTH",
"387 244 LINE",
"538 23 LINE"
);
}
);
width = 836;
}
);
leftKerningGroup = v;
unicode = 01B4;
},
{
color = 4;
glyphname = z;
lastChange = "2024-02-07 00:43:54 +0000";
layers = (
{
anchors = (
{
name = bottom;
position = "{311, 0}";
},
{
name = center;
position = "{311, 325}";
},
{
name = top;
position = "{311, 650}";
}
);
layerId = "BADE114B-EA49-45B4-AE36-72A7CEB6E1BE";
paths = (
{
closed = 1;
nodes = (
"536 396 LINE",
"305 456 LINE",
"312 161 LINE"
);
},
{
closed = 1;
nodes = (
"312 161 LINE",
"80 220 LINE",
"51 185 OFFCURVE",
"45 165 OFFCURVE",
"45 122 CURVE SMOOTH",
"45 88 OFFCURVE",
"50 41 OFFCURVE",
"54 11 CURVE",
"155 2 OFFCURVE",
"309 0 OFFCURVE",
"309 0 CURVE"
);
},
{
closed = 1;
nodes = (
"305 456 LINE",
"80 220 LINE",
"312 161 LINE"
);
},
{
closed = 1;
nodes = (
"566 431 OFFCURVE",
"570 451 OFFCURVE",
"570 495 CURVE SMOOTH",
"570 527 OFFCURVE",
"566 607 OFFCURVE",
"561 637 CURVE",
"461 648 OFFCURVE",
"309 650 OFFCURVE",
"309 650 CURVE",
"305 456 LINE",
"536 396 LINE"
);
},
{
closed = 1;
nodes = (
"305 456 LINE",
"309 650 LINE",
"227 650 OFFCURVE",
"156 647 OFFCURVE",
"59 638 CURVE",
"55 621 OFFCURVE",
"52 536 OFFCURVE",
"52 456 CURVE"
);
},
{
closed = 1;
nodes = (
"312 161 LINE",
"309 0 LINE",
"393 0 OFFCURVE",
"466 2 OFFCURVE",
"566 10 CURVE",
"570 24 OFFCURVE",
"573 94 OFFCURVE",
"573 161 CURVE"
);
}
);
width = 618;
}
);
leftKerningGroup = z;
note = z;
rightKerningGroup = z;
unicode = 007A;
},
{
color = 4;
glyphname = zcurl;
lastChange = "2024-02-04 03:00:12 +0000";
layers = (
{
layerId = "BADE114B-EA49-45B4-AE36-72A7CEB6E1BE";
paths = (
{
closed = 1;
nodes = (
"541 396 LINE",
"309 456 LINE",
"317 159 LINE"
);
},
{
closed = 1;
nodes = (
"317 159 LINE",
"85 220 LINE",
"56 185 OFFCURVE",
"50 165 OFFCURVE",
"50 122 CURVE SMOOTH",
"50 88 OFFCURVE",
"55 41 OFFCURVE",
"59 11 CURVE",
"160 2 OFFCURVE",
"311 1 OFFCURVE",
"311 1 CURVE"
);
},
{
closed = 1;
nodes = (
"309 456 LINE",
"85 220 LINE",
"317 159 LINE"
);
},
{
closed = 1;
nodes = (
"310 456 LINE",
"314 649 LINE",
"231 650 OFFCURVE",
"161 647 OFFCURVE",
"65 639 CURVE",
"61 621 OFFCURVE",
"57 537 OFFCURVE",
"57 456 CURVE"
);
},
{
closed = 1;
nodes = (
"571 431 OFFCURVE",
"575 451 OFFCURVE",
"575 495 CURVE SMOOTH",
"575 527 OFFCURVE",
"571 607 OFFCURVE",
"566 637 CURVE",
"466 648 OFFCURVE",
"314 649 OFFCURVE",
"314 649 CURVE",
"309 456 LINE",
"541 396 LINE"
);
},
{
closed = 1;
nodes = (
"428 262 OFFCURVE",
"388 199 OFFCURVE",
"365 114 CURVE",
"474 115 LINE",
"483 147 OFFCURVE",
"496 162 OFFCURVE",
"519 162 CURVE",
"524 262 LINE"
);
},
{
closed = 1;
nodes = (
"365 114 LINE",
"306 -74 LINE",
"306 -74 OFFCURVE",
"317 -84 OFFCURVE",
"361 -83 CURVE SMOOTH",
"405 -83 OFFCURVE",
"418 -73 OFFCURVE",
"418 -73 CURVE",
"474 115 LINE"
);
},
{
closed = 1;
nodes = (
"664 216 OFFCURVE",
"610 261 OFFCURVE",
"524 262 CURVE",
"519 162 LINE",
"543 162 OFFCURVE",
"556 147 OFFCURVE",
"556 125 CURVE SMOOTH",
"556 105 OFFCURVE",
"539 90 OFFCURVE",
"512 90 CURVE SMOOTH",
"474 90 OFFCURVE",
"384 117 OFFCURVE",
"317 159 CURVE",
"311 1 LINE",
"519 0 LINE",
"609 0 OFFCURVE",
"664 51 OFFCURVE",
"664 131 CURVE SMOOTH"
);
}
);
width = 714;
}
);
leftKerningGroup = z;
unicode = 0291;
},
{
color = 4;
glyphname = zretroflexhook;
lastChange = "2024-02-07 01:25:59 +0000";
layers = (
{
anchors = (
{
name = bottom;
position = "{316, 0}";
},
{
name = center;
position = "{316, 325}";
},
{
name = top;
position = "{316, 650}";
}
);
layerId = "BADE114B-EA49-45B4-AE36-72A7CEB6E1BE";
paths = (
{
closed = 1;
nodes = (
"541 396 LINE",
"309 456 LINE",
"317 158 LINE"
);
},
{
closed = 1;
nodes = (
"317 158 LINE",
"85 219 LINE",
"56 184 OFFCURVE",
"50 164 OFFCURVE",
"50 121 CURVE SMOOTH",
"50 87 OFFCURVE",
"55 40 OFFCURVE",
"59 10 CURVE",
"160 1 OFFCURVE",
"311 0 OFFCURVE",
"311 0 CURVE"
);
},
{
closed = 1;
nodes = (
"309 456 LINE",
"85 219 LINE",
"317 158 LINE"
);
},
{
closed = 1;
nodes = (
"309 456 LINE",
"314 649 LINE",
"231 650 OFFCURVE",
"161 647 OFFCURVE",
"65 639 CURVE",
"61 621 OFFCURVE",
"57 537 OFFCURVE",
"57 456 CURVE"
);
},
{
closed = 1;
nodes = (
"309 456 LINE",
"314 649 LINE",
"232 650 OFFCURVE",
"161 647 OFFCURVE",
"64 638 CURVE",
"60 621 OFFCURVE",
"57 536 OFFCURVE",
"57 456 CURVE"
);
},
{
closed = 1;
nodes = (
"571 431 OFFCURVE",
"575 451 OFFCURVE",
"575 495 CURVE SMOOTH",
"575 527 OFFCURVE",
"571 607 OFFCURVE",
"566 637 CURVE",
"466 648 OFFCURVE",
"314 649 OFFCURVE",
"314 649 CURVE",
"309 456 LINE",
"541 396 LINE"
);
},
{
closed = 1;
nodes = (
"311 0 LINE",
"554 0 LINE",
"554 146 LINE SMOOTH",
"554 154 OFFCURVE",
"547 161 OFFCURVE",
"539 161 CURVE SMOOTH",
"317 161 LINE"
);
},
{
closed = 1;
nodes = (
"601 -200 LINE SMOOTH",
"625 -200 OFFCURVE",
"634 -190 OFFCURVE",
"634 -167 CURVE SMOOTH",
"634 -90 LINE SMOOTH",
"634 -68 OFFCURVE",
"625 -61 OFFCURVE",
"608 -61 CURVE SMOOTH",
"590 -61 LINE SMOOTH",
"569 -61 OFFCURVE",
"554 -47 OFFCURVE",
"554 -20 CURVE SMOOTH",
"554 40 LINE",
"385 40 LINE",
"385 -78 LINE SMOOTH",
"385 -167 OFFCURVE",
"422 -200 OFFCURVE",
"515 -200 CURVE SMOOTH"
);
}
);
width = 684;
}
);
leftKerningGroup = z;
rightKerningGroup = mark_below;
unicode = 0290;
},
{
color = 4;
glyphname = f.alt;
lastChange = "2024-02-08 13:33:01 +0000";
layers = (
{
layerId = "BADE114B-EA49-45B4-AE36-72A7CEB6E1BE";
paths = (
{
closed = 1;
nodes = (
"388 464 LINE",
"388 464 OFFCURVE",
"392 479 OFFCURVE",
"392 542 CURVE SMOOTH",
"392 604 OFFCURVE",
"388 620 OFFCURVE",
"388 620 CURVE",
"207 620 LINE",
"161 640 LINE",
"36 640 LINE",
"36 640 OFFCURVE",
"32 622 OFFCURVE",
"32 552 CURVE SMOOTH",
"32 482 OFFCURVE",
"36 464 OFFCURVE",
"36 464 CURVE"
);
},
{
closed = 1;
nodes = (
"151 940 OFFCURVE",
"84 868 OFFCURVE",
"84 769 CURVE SMOOTH",
"84 725 OFFCURVE",
"95 674 OFFCURVE",
"111 640 CURVE",
"100 464 LINE",
"100 162 LINE",
"325 162 LINE",
"325 464 LINE",
"336 620 LINE",
"297 620 OFFCURVE",
"283 638 OFFCURVE",
"283 667 CURVE",
"283 691 OFFCURVE",
"297 713 OFFCURVE",
"329 713 CURVE SMOOTH",
"352 713 OFFCURVE",
"367 705 OFFCURVE",
"367 705 CURVE",
"409 906 LINE",
"409 906 OFFCURVE",
"339 940 OFFCURVE",
"263 940 CURVE SMOOTH"
);
},
{
closed = 1;
nodes = (
"37 -276 OFFCURVE",
"75 -280 OFFCURVE",
"121 -280 CURVE SMOOTH",
"239 -280 OFFCURVE",
"325 -207 OFFCURVE",
"325 -37 CURVE SMOOTH",
"325 162 LINE",
"100 162 LINE",
"100 35 LINE SMOOTH",
"100 -73 OFFCURVE",
"58 -91 OFFCURVE",
"-23 -70 CURVE",
"9 -268 LINE"
);
}
);
width = 427;
}
);
leftKerningGroup = f;
rightKerningGroup = f;
rightMetricsKey = f;
},
{
color = 1;
export = 0;
glyphname = khook;
lastChange = "2024-02-03 13:28:43 +0000";
layers = (
{
anchors = (
{
name = bottom;
position = "{354, 0}";
},
{
name = top;
position = "{354, 650}";
}
);
layerId = "BADE114B-EA49-45B4-AE36-72A7CEB6E1BE";
paths = (
{
closed = 1;
nodes = (
"327 243 LINE",
"459 379 LINE",
"638 622 LINE",
"638 622 OFFCURVE",
"603 645 OFFCURVE",
"522 649 CURVE SMOOTH",
"437 653 OFFCURVE",
"395 642 OFFCURVE",
"395 642 CURVE",
"281 475 LINE",
"281 204 LINE"
);
},
{
closed = 1;
nodes = (
"633 6 OFFCURVE",
"661 23 OFFCURVE",
"661 23 CURVE",
"453 428 LINE",
"313 272 LINE",
"418 8 LINE",
"418 8 OFFCURVE",
"459 -5 OFFCURVE",
"544 0 CURVE SMOOTH"
);
},
{
closed = 1;
nodes = (
"167 515 LINE",
"50 515 LINE",
"50 329 OFFCURVE",
"50 17 OFFCURVE",
"50 17 CURVE",
"50 17 OFFCURVE",
"78 0 OFFCURVE",
"167 0 CURVE"
);
},
{
closed = 1;
nodes = (
"222 0 OFFCURVE",
"250 6 OFFCURVE",
"281 18 CURVE",
"281 515 LINE",
"167 515 LINE",
"167 0 LINE"
);
},
{
closed = 1;
nodes = (
"100 930 OFFCURVE",
"50 850 OFFCURVE",
"50 700 CURVE SMOOTH",
"50 515 LINE",
"281 515 LINE",
"281 704 LINE SMOOTH",
"281 741 OFFCURVE",
"291 751 OFFCURVE",
"326 751 CURVE SMOOTH",
"355 751 OFFCURVE",
"361 756 OFFCURVE",
"361 778 CURVE SMOOTH",
"361 914 LINE SMOOTH",
"361 923 OFFCURVE",
"355 930 OFFCURVE",
"345 930 CURVE SMOOTH",
"259 930 LINE SMOOTH"
);
}
);
width = 711;
}
);
unicode = 0199;
},
{
color = 1;
export = 0;
glyphname = phook;
lastChange = "2024-02-03 13:28:43 +0000";
layers = (
{
anchors = (
{
name = bottom;
position = "{359, 0}";
},
{
name = top;
position = "{359, 650}";
}
);
layerId = "BADE114B-EA49-45B4-AE36-72A7CEB6E1BE";
paths = (
{
closed = 1;
nodes = (
"586 -10 OFFCURVE",
"669 101 OFFCURVE",
"669 325 CURVE SMOOTH",
"669 548 OFFCURVE",
"586 658 OFFCURVE",
"420 660 CURVE SMOOTH",
"368 660 OFFCURVE",
"297 645 OFFCURVE",
"282 609 CURVE",
"282 401 LINE",
"282 431 OFFCURVE",
"305 484 OFFCURVE",
"358 484 CURVE SMOOTH",
"404 484 OFFCURVE",
"437 436 OFFCURVE",
"437 325 CURVE SMOOTH",
"437 214 OFFCURVE",
"404 166 OFFCURVE",
"358 166 CURVE SMOOTH",
"314 166 OFFCURVE",
"282 195 OFFCURVE",
"282 220 CURVE",
"282 9 LINE",
"308 -2 OFFCURVE",
"354 -10 OFFCURVE",
"420 -10 CURVE SMOOTH"
);
},
{
closed = 1;
nodes = (
"168 515 LINE",
"50 515 LINE",
"50 89 OFFCURVE",
"50 -223 OFFCURVE",
"50 -223 CURVE",
"50 -223 OFFCURVE",
"78 -240 OFFCURVE",
"168 -240 CURVE"
);
},
{
closed = 1;
nodes = (
"223 -240 OFFCURVE",
"251 -234 OFFCURVE",
"282 -222 CURVE",
"282 515 LINE",
"168 515 LINE",
"168 -240 LINE"
);
},
{
closed = 1;
nodes = (
"101 930 OFFCURVE",
"51 850 OFFCURVE",
"51 700 CURVE SMOOTH",
"51 515 LINE",
"282 515 LINE",
"282 704 LINE SMOOTH",
"282 741 OFFCURVE",
"292 751 OFFCURVE",
"327 751 CURVE SMOOTH",
"356 751 OFFCURVE",
"362 756 OFFCURVE",
"362 778 CURVE SMOOTH",
"362 914 LINE SMOOTH",
"362 923 OFFCURVE",
"356 930 OFFCURVE",
"346 930 CURVE SMOOTH",
"260 930 LINE SMOOTH"
);
}
);
width = 719;
}
);
unicode = 01A5;
},
{
color = 1;
export = 0;
glyphname = qhooktail;
lastChange = "2024-02-03 13:28:43 +0000";
layers = (
{
layerId = "BADE114B-EA49-45B4-AE36-72A7CEB6E1BE";
paths = (
{
closed = 1;
nodes = (
"365 -10 OFFCURVE",
"411 -2 OFFCURVE",
"437 9 CURVE",
"437 220 LINE",
"437 195 OFFCURVE",
"405 166 OFFCURVE",
"361 166 CURVE SMOOTH",
"315 166 OFFCURVE",
"282 214 OFFCURVE",
"282 325 CURVE SMOOTH",
"282 436 OFFCURVE",
"315 484 OFFCURVE",
"361 484 CURVE SMOOTH",
"414 484 OFFCURVE",
"437 431 OFFCURVE",
"437 401 CURVE",
"437 609 LINE",
"422 645 OFFCURVE",
"351 660 OFFCURVE",
"299 660 CURVE SMOOTH",
"133 658 OFFCURVE",
"50 548 OFFCURVE",
"50 325 CURVE SMOOTH",
"50 101 OFFCURVE",
"133 -10 OFFCURVE",
"299 -10 CURVE SMOOTH"
);
},
{
closed = 1;
nodes = (
"552 651 LINE",
"501 651 OFFCURVE",
"463 645 OFFCURVE",
"437 632 CURVE",
"437 355 LINE",
"552 355 LINE"
);
},
{
closed = 1;
nodes = (
"666 512 OFFCURVE",
"666 634 OFFCURVE",
"666 634 CURVE",
"666 634 OFFCURVE",
"641 651 OFFCURVE",
"552 651 CURVE",
"552 355 LINE",
"666 355 LINE"
);
},
{
closed = 1;
nodes = (
"732 -240 LINE SMOOTH",
"742 -240 OFFCURVE",
"748 -233 OFFCURVE",
"748 -224 CURVE SMOOTH",
"748 -88 LINE SMOOTH",
"748 -66 OFFCURVE",
"742 -61 OFFCURVE",
"713 -61 CURVE SMOOTH",
"678 -61 OFFCURVE",
"668 -51 OFFCURVE",
"668 -14 CURVE SMOOTH",
"666 355 LINE",
"437 355 LINE",
"437 -10 LINE SMOOTH",
"437 -160 OFFCURVE",
"487 -240 OFFCURVE",
"646 -240 CURVE SMOOTH"
);
}
);
width = 798;
}
);
unicode = 024B;
},
{
color = 1;
export = 0;
glyphname = thook;
lastChange = "2024-02-03 13:28:43 +0000";
layers = (
{
anchors = (
{
name = bottom;
position = "{268, 0}";
},
{
name = center;
position = "{240, 325}";
},
{
name = top;
position = "{229, 840}";
},
{
name = topright;
position = "{454, 650}";
}
);
layerId = "BADE114B-EA49-45B4-AE36-72A7CEB6E1BE";
paths = (
{
closed = 1;
nodes = (
"362 -10 OFFCURVE",
"397 -4 OFFCURVE",
"426 5 CURVE",
"431 63 OFFCURVE",
"426 132 OFFCURVE",
"420 183 CURVE",
"356 171 OFFCURVE",
"343 185 OFFCURVE",
"343 242 CURVE",
"343 501 LINE",
"110 501 LINE",
"110 183 LINE",
"111 24 OFFCURVE",
"180 -10 OFFCURVE",
"296 -10 CURVE"
);
},
{
closed = 1;
nodes = (
"160 930 OFFCURVE",
"110 850 OFFCURVE",
"110 700 CURVE SMOOTH",
"110 501 LINE",
"343 501 LINE",
"343 704 LINE SMOOTH",
"343 741 OFFCURVE",
"353 751 OFFCURVE",
"388 751 CURVE SMOOTH",
"417 751 OFFCURVE",
"423 756 OFFCURVE",
"423 778 CURVE SMOOTH",
"423 914 LINE SMOOTH",
"423 923 OFFCURVE",
"417 930 OFFCURVE",
"407 930 CURVE SMOOTH",
"319 930 LINE SMOOTH"
);
},
{
closed = 1;
nodes = (
"421 476 LINE",
"421 640 LINE",
"50 640 LINE",
"50 476 LINE"
);
}
);
width = 478;
}
);
unicode = 01AD;
},
{
color = 4;
export = 0;
glyphname = jdotless.alt;
lastChange = "2024-02-08 13:31:08 +0000";
layers = (
{
anchors = (
{
name = top;
position = "{170, 650}";
}
);
background = {
paths = (
{
closed = 1;
nodes = (
"234 -270 OFFCURVE",
"289 -195 OFFCURVE",
"289 -32 CURVE SMOOTH",
"289 189 LINE",
"55 189 LINE",
"55 8 LINE SMOOTH",
"55 -57 OFFCURVE",
"44 -79 OFFCURVE",
"11 -79 CURVE SMOOTH",
"-4 -79 OFFCURVE",
"-18 -75 OFFCURVE",
"-38 -64 CURVE",
"-28 -231 LINE",
"10 -259 OFFCURVE",
"50 -270 OFFCURVE",
"113 -270 CURVE SMOOTH"
);
},
{
closed = 1;
nodes = (
"170 189 LINE",
"170 650 LINE",
"119 650 OFFCURVE",
"81 644 OFFCURVE",
"55 631 CURVE",
"55 189 LINE"
);
},
{
closed = 1;
nodes = (
"289 521 OFFCURVE",
"285 633 OFFCURVE",
"284 633 CURVE",
"284 633 OFFCURVE",
"259 650 OFFCURVE",
"170 650 CURVE",
"170 189 LINE",
"289 189 LINE"
);
}
);
};
layerId = "BADE114B-EA49-45B4-AE36-72A7CEB6E1BE";
paths = (
{
closed = 1;
nodes = (
"170 189 LINE",
"170 650 LINE",
"119 650 OFFCURVE",
"81 644 OFFCURVE",
"55 631 CURVE",
"55 189 LINE"
);
},
{
closed = 1;
nodes = (
"289 521 OFFCURVE",
"285 633 OFFCURVE",
"284 633 CURVE",
"284 633 OFFCURVE",
"259 650 OFFCURVE",
"170 650 CURVE",
"170 189 LINE",
"289 189 LINE"
);
},
{
closed = 1;
nodes = (
"27 -276 OFFCURVE",
"55 -280 OFFCURVE",
"92 -280 CURVE SMOOTH",
"213 -280 OFFCURVE",
"289 -219 OFFCURVE",
"289 -32 CURVE SMOOTH",
"289 199 LINE",
"55 199 LINE",
"55 -19 LINE SMOOTH",
"55 -73 OFFCURVE",
"27 -91 OFFCURVE",
"-27 -70 CURVE",
"5 -268 LINE"
);
}
);
width = 347;
}
);
leftKerningGroup = i;
rightKerningGroup = j;
rightMetricsKey = j;
},
{
color = 4;
glyphname = f_f;
lastChange = "2024-02-07 05:44:38 +0000";
layers = (
{
components = (
{
name = f;
}
);
layerId = "BADE114B-EA49-45B4-AE36-72A7CEB6E1BE";
paths = (
{
closed = 1;
nodes = (
"465 626 OFFCURVE",
"414 620 OFFCURVE",
"349 620 CURVE",
"349 464 LINE",
"500 464 LINE",
"511 640 LINE"
);
},
{
closed = 1;
nodes = (
"551 940 OFFCURVE",
"484 868 OFFCURVE",
"484 769 CURVE SMOOTH",
"484 725 OFFCURVE",
"495 674 OFFCURVE",
"511 640 CURVE",
"500 464 LINE",
"500 17 LINE",
"500 17 OFFCURVE",
"530 0 OFFCURVE",
"613 0 CURVE SMOOTH",
"669 0 OFFCURVE",
"696 6 OFFCURVE",
"725 19 CURVE",
"725 464 LINE",
"736 620 LINE",
"697 620 OFFCURVE",
"683 638 OFFCURVE",
"683 667 CURVE",
"683 691 OFFCURVE",
"697 713 OFFCURVE",
"729 713 CURVE SMOOTH",
"752 713 OFFCURVE",
"767 705 OFFCURVE",
"767 705 CURVE",
"809 906 LINE",
"809 906 OFFCURVE",
"739 940 OFFCURVE",
"663 940 CURVE SMOOTH"
);
},
{
closed = 1;
nodes = (
"788 464 LINE",
"788 464 OFFCURVE",
"792 479 OFFCURVE",
"792 542 CURVE SMOOTH",
"792 604 OFFCURVE",
"788 620 OFFCURVE",
"788 620 CURVE",
"736 620 LINE",
"725 464 LINE"
);
},
{
closed = 1;
nodes = (
"551 940 OFFCURVE",
"484 868 OFFCURVE",
"484 769 CURVE SMOOTH",
"484 725 OFFCURVE",
"495 674 OFFCURVE",
"511 640 CURVE",
"500 464 LINE",
"500 17 LINE",
"500 17 OFFCURVE",
"530 0 OFFCURVE",
"613 0 CURVE SMOOTH",
"669 0 OFFCURVE",
"696 6 OFFCURVE",
"725 19 CURVE",
"725 464 LINE",
"736 620 LINE",
"697 620 OFFCURVE",
"683 638 OFFCURVE",
"683 667 CURVE",
"683 691 OFFCURVE",
"697 713 OFFCURVE",
"729 713 CURVE SMOOTH",
"752 713 OFFCURVE",
"767 705 OFFCURVE",
"767 705 CURVE",
"809 906 LINE",
"809 906 OFFCURVE",
"739 940 OFFCURVE",
"663 940 CURVE SMOOTH"
);
}
);
width = 827;
}
);
leftKerningGroup = f;
leftMetricsKey = f;
rightKerningGroup = f;
rightMetricsKey = f;
},
{
color = 4;
glyphname = f_f_i;
lastChange = "2024-02-07 05:44:12 +0000";
layers = (
{
components = (
{
name = dotaccentcomb;
transform = "{1, 0, 0, 1, 824, -190}";
},
{
name = f_f;
}
);
layerId = "BADE114B-EA49-45B4-AE36-72A7CEB6E1BE";
paths = (
{
closed = 1;
nodes = (
"918 653 OFFCURVE",
"888 620 OFFCURVE",
"777 620 CURVE SMOOTH",
"736 620 LINE",
"725 464 LINE",
"777 464 LINE SMOOTH",
"812 464 OFFCURVE",
"854 467 OFFCURVE",
"892 479 CURVE",
"892 17 LINE",
"892 17 OFFCURVE",
"924 0 OFFCURVE",
"1001 0 CURVE SMOOTH",
"1057 0 OFFCURVE",
"1084 6 OFFCURVE",
"1113 19 CURVE",
"1118 126 OFFCURVE",
"1121 230 OFFCURVE",
"1121 329 CURVE SMOOTH",
"1121 428 OFFCURVE",
"1118 521 OFFCURVE",
"1113 605 CURVE SMOOTH",
"1111 642 OFFCURVE",
"1088 653 OFFCURVE",
"1018 653 CURVE SMOOTH"
);
}
);
width = 1175;
}
);
leftKerningGroup = f;
leftMetricsKey = f;
rightKerningGroup = i;
rightMetricsKey = i;
},
{
color = 4;
glyphname = fi;
lastChange = "2024-02-07 05:44:45 +0000";
layers = (
{
components = (
{
name = f;
},
{
name = dotaccentcomb;
transform = "{1, 0, 0, 1, 437, -190}";
}
);
layerId = "BADE114B-EA49-45B4-AE36-72A7CEB6E1BE";
paths = (
{
closed = 1;
nodes = (
"531 653 OFFCURVE",
"501 620 OFFCURVE",
"390 620 CURVE SMOOTH",
"349 620 LINE",
"338 464 LINE",
"390 464 LINE SMOOTH",
"425 464 OFFCURVE",
"467 467 OFFCURVE",
"505 479 CURVE",
"505 17 LINE",
"505 17 OFFCURVE",
"537 0 OFFCURVE",
"614 0 CURVE SMOOTH",
"670 0 OFFCURVE",
"697 6 OFFCURVE",
"726 19 CURVE",
"731 126 OFFCURVE",
"734 230 OFFCURVE",
"734 329 CURVE SMOOTH",
"734 428 OFFCURVE",
"731 521 OFFCURVE",
"726 605 CURVE SMOOTH",
"724 642 OFFCURVE",
"701 653 OFFCURVE",
"631 653 CURVE SMOOTH"
);
}
);
width = 788;
}
);
leftKerningGroup = f;
leftMetricsKey = f;
rightKerningGroup = i;
rightMetricsKey = i;
unicode = FB01;
},
{
color = 4;
glyphname = a_s.dlig;
lastChange = "2024-02-08 01:11:44 +0000";
layers = (
{
components = (
{
name = a;
}
);
layerId = "BADE114B-EA49-45B4-AE36-72A7CEB6E1BE";
paths = (
{
closed = 1;
nodes = (
"1173 -10 OFFCURVE",
"1277 86 OFFCURVE",
"1277 259 CURVE SMOOTH",
"1277 414 OFFCURVE",
"1202 541 OFFCURVE",
"1079 633 CURVE SMOOTH",
"1060 644 OFFCURVE",
"1007 650 OFFCURVE",
"938 650 CURVE SMOOTH",
"872 650 OFFCURVE",
"827 645 OFFCURVE",
"778 633 CURVE",
"764 460 OFFCURVE",
"691 300 OFFCURVE",
"614 205 CURVE",
"506 0 LINE",
"575 0 OFFCURVE",
"626 10 OFFCURVE",
"679 33 CURVE",
"828 156 OFFCURVE",
"919 304 OFFCURVE",
"965 484 CURVE",
"981 484 LINE",
"1027 413 OFFCURVE",
"1043 353 OFFCURVE",
"1043 271 CURVE SMOOTH",
"1043 214 OFFCURVE",
"1021 167 OFFCURVE",
"982 166 CURVE SMOOTH",
"954 165 OFFCURVE",
"932 172 OFFCURVE",
"904 193 CURVE",
"818 43 LINE",
"859 11 OFFCURVE",
"930 -10 OFFCURVE",
"997 -10 CURVE SMOOTH"
);
}
);
width = 1319;
}
);
leftKerningGroup = a;
leftMetricsKey = a;
rightKerningGroup = o;
rightMetricsKey = o;
},
{
color = 4;
glyphname = e_s.dlig;
lastChange = "2024-02-08 01:15:16 +0000";
layers = (
{
anchors = (
{
name = bottom;
position = "{976, 0}";
},
{
name = top;
position = "{976, 650}";
}
);
layerId = "BADE114B-EA49-45B4-AE36-72A7CEB6E1BE";
paths = (
{
closed = 1;
nodes = (
"420 154 LINE",
"310 154 OFFCURVE",
"268 190 OFFCURVE",
"267 310 CURVE",
"267 442 OFFCURVE",
"290 511 OFFCURVE",
"360 511 CURVE SMOOTH",
"398 511 OFFCURVE",
"426 481 OFFCURVE",
"426 434 CURVE SMOOTH",
"426 367 OFFCURVE",
"371 332 OFFCURVE",
"267 332 CURVE",
"252 273 LINE",
"276 221 LINE",
"298 212 OFFCURVE",
"336 206 OFFCURVE",
"375 206 CURVE SMOOTH",
"532 206 OFFCURVE",
"625 283 OFFCURVE",
"625 412 CURVE SMOOTH",
"625 575 OFFCURVE",
"535 660 OFFCURVE",
"363 660 CURVE SMOOTH",
"154 660 OFFCURVE",
"52 555 OFFCURVE",
"52 326 CURVE SMOOTH",
"52 64 OFFCURVE",
"170 -11 OFFCURVE",
"418 -11 CURVE"
);
},
{
closed = 1;
nodes = (
"1168 -10 OFFCURVE",
"1272 86 OFFCURVE",
"1272 259 CURVE SMOOTH",
"1272 414 OFFCURVE",
"1197 541 OFFCURVE",
"1074 633 CURVE SMOOTH",
"1055 644 OFFCURVE",
"1002 650 OFFCURVE",
"933 650 CURVE SMOOTH",
"867 650 OFFCURVE",
"822 645 OFFCURVE",
"773 633 CURVE",
"746 339 OFFCURVE",
"625 157 OFFCURVE",
"420 154 CURVE",
"418 -11 LINE",
"717 -11 OFFCURVE",
"876 156 OFFCURVE",
"960 484 CURVE",
"976 484 LINE",
"1022 413 OFFCURVE",
"1038 353 OFFCURVE",
"1038 271 CURVE SMOOTH",
"1038 214 OFFCURVE",
"1016 167 OFFCURVE",
"977 166 CURVE SMOOTH",
"949 165 OFFCURVE",
"927 172 OFFCURVE",
"899 193 CURVE",
"813 43 LINE",
"854 11 OFFCURVE",
"925 -10 OFFCURVE",
"992 -10 CURVE SMOOTH"
);
}
);
width = 1314;
}
);
leftKerningGroup = o;
leftMetricsKey = e;
rightKerningGroup = o;
rightMetricsKey = o;
},
{
color = 4;
glyphname = i_l.dlig;
lastChange = "2024-02-10 01:18:55 +0000";
layers = (
{
anchors = (
{
name = bottom;
position = "{187, 0}";
},
{
name = center;
position = "{187, 325}";
},
{
name = circumflexBelow;
position = "{200, 0}";
},
{
name = ogonek;
position = "{566, 0}";
}
);
components = (
{
name = dotaccentcomb;
transform = "{1, 0, 0, 1, -8, -190}";
}
);
layerId = "BADE114B-EA49-45B4-AE36-72A7CEB6E1BE";
paths = (
{
closed = 1;
nodes = (
"347 0 OFFCURVE",
"412 42 OFFCURVE",
"456 119 CURVE",
"456 292 LINE",
"422 237 OFFCURVE",
"375 201 OFFCURVE",
"337 201 CURVE SMOOTH",
"298 201 OFFCURVE",
"288 216 OFFCURVE",
"288 275 CURVE SMOOTH",
"288 275 OFFCURVE",
"288 292 OFFCURVE",
"288 325 CURVE",
"55 325 LINE",
"55 390 OFFCURVE",
"55 356 OFFCURVE",
"55 201 CURVE SMOOTH",
"55 57 OFFCURVE",
"113 0 OFFCURVE",
"257 0 CURVE SMOOTH"
);
},
{
closed = 1;
nodes = (
"171 325 LINE",
"171 650 LINE",
"84 650 OFFCURVE",
"60 633 OFFCURVE",
"60 633 CURVE",
"59 633 OFFCURVE",
"55 511 OFFCURVE",
"55 325 CURVE"
);
},
{
closed = 1;
nodes = (
"288 325 LINE",
"288 511 OFFCURVE",
"288 632 OFFCURVE",
"288 633 CURVE",
"288 633 OFFCURVE",
"258 650 OFFCURVE",
"171 650 CURVE",
"171 325 LINE"
);
},
{
closed = 1;
nodes = (
"631 0 OFFCURVE",
"680 16 OFFCURVE",
"714 42 CURVE",
"694 206 LINE",
"687 203 OFFCURVE",
"680 201 OFFCURVE",
"674 201 CURVE SMOOTH",
"656 201 OFFCURVE",
"653 214 OFFCURVE",
"653 238 CURVE SMOOTH",
"653 275 OFFCURVE",
"653 292 OFFCURVE",
"653 373 CURVE SMOOTH",
"653 537 OFFCURVE",
"646 710 OFFCURVE",
"676 873 CURVE",
"676 873 OFFCURVE",
"637 890 OFFCURVE",
"558 890 CURVE SMOOTH",
"468 890 OFFCURVE",
"437 873 OFFCURVE",
"437 873 CURVE",
"424 718 OFFCURVE",
"420 572 OFFCURVE",
"420 426 CURVE SMOOTH",
"420 390 OFFCURVE",
"420 356 OFFCURVE",
"420 229 CURVE SMOOTH",
"420 63 OFFCURVE",
"456 0 OFFCURVE",
"568 0 CURVE SMOOTH"
);
}
);
width = 726;
}
);
leftKerningGroup = i;
leftMetricsKey = i;
rightKerningGroup = I;
rightMetricsKey = l;
},
{
color = 4;
glyphname = i_s.dlig;
lastChange = "2024-02-08 01:11:33 +0000";
layers = (
{
components = (
{
name = i;
}
);
layerId = "BADE114B-EA49-45B4-AE36-72A7CEB6E1BE";
paths = (
{
closed = 1;
nodes = (
"833 -10 OFFCURVE",
"937 86 OFFCURVE",
"937 259 CURVE SMOOTH",
"937 414 OFFCURVE",
"862 541 OFFCURVE",
"739 633 CURVE SMOOTH",
"720 644 OFFCURVE",
"667 650 OFFCURVE",
"598 650 CURVE SMOOTH",
"532 650 OFFCURVE",
"487 645 OFFCURVE",
"438 633 CURVE",
"424 460 OFFCURVE",
"351 300 OFFCURVE",
"274 205 CURVE",
"166 0 LINE",
"235 0 OFFCURVE",
"286 10 OFFCURVE",
"339 33 CURVE",
"488 156 OFFCURVE",
"579 304 OFFCURVE",
"625 484 CURVE",
"641 484 LINE",
"687 413 OFFCURVE",
"703 353 OFFCURVE",
"703 271 CURVE SMOOTH",
"703 214 OFFCURVE",
"681 167 OFFCURVE",
"642 166 CURVE SMOOTH",
"614 165 OFFCURVE",
"592 172 OFFCURVE",
"564 193 CURVE",
"478 43 LINE",
"519 11 OFFCURVE",
"590 -10 OFFCURVE",
"657 -10 CURVE SMOOTH"
);
}
);
width = 979;
}
);
leftKerningGroup = i;
leftMetricsKey = i;
rightKerningGroup = o;
rightMetricsKey = o;
},
{
color = 4;
glyphname = l_e.dlig;
lastChange = "2024-02-10 16:31:02 +0000";
layers = (
{
anchors = (
{
name = bottom;
position = "{198, -25}";
},
{
name = center;
position = "{198, 325}";
},
{
name = circumflexBelow;
position = "{198, -27}";
},
{
name = top;
position = "{179, 890}";
},
{
name = topright;
position = "{359, 890}";
}
);
layerId = "BADE114B-EA49-45B4-AE36-72A7CEB6E1BE";
paths = (
{
closed = 1;
nodes = (
"436 64 OFFCURVE",
"561 -10 OFFCURVE",
"747 -10 CURVE SMOOTH",
"869 -10 OFFCURVE",
"958 18 OFFCURVE",
"1028 80 CURVE",
"991 221 LINE",
"934 179 OFFCURVE",
"861 154 OFFCURVE",
"794 154 CURVE SMOOTH",
"700 154 OFFCURVE",
"651 188 OFFCURVE",
"651 256 CURVE SMOOTH",
"651 320 LINE SMOOTH",
"651 442 OFFCURVE",
"674 511 OFFCURVE",
"744 511 CURVE SMOOTH",
"782 511 OFFCURVE",
"810 481 OFFCURVE",
"810 434 CURVE SMOOTH",
"810 353 OFFCURVE",
"737 320 OFFCURVE",
"553 320 CURVE",
"583 236 LINE",
"622 218 OFFCURVE",
"690 206 OFFCURVE",
"759 206 CURVE SMOOTH",
"909 206 OFFCURVE",
"1009 288 OFFCURVE",
"1009 412 CURVE SMOOTH",
"1009 575 OFFCURVE",
"919 660 OFFCURVE",
"747 660 CURVE SMOOTH",
"538 660 OFFCURVE",
"436 555 OFFCURVE",
"436 326 CURVE SMOOTH"
);
},
{
closed = 1;
nodes = (
"360 0 OFFCURVE",
"439 38 OFFCURVE",
"493 110 CURVE",
"444 269 LINE",
"427 231 OFFCURVE",
"403 211 OFFCURVE",
"350 211 CURVE SMOOTH",
"309 211 OFFCURVE",
"281 230 OFFCURVE",
"281 295 CURVE SMOOTH",
"281 373 LINE",
"281 537 OFFCURVE",
"274 710 OFFCURVE",
"304 873 CURVE",
"304 873 OFFCURVE",
"265 890 OFFCURVE",
"186 890 CURVE SMOOTH",
"96 890 OFFCURVE",
"65 873 OFFCURVE",
"65 873 CURVE",
"52 718 OFFCURVE",
"48 572 OFFCURVE",
"48 426 CURVE SMOOTH",
"48 390 OFFCURVE",
"48 356 OFFCURVE",
"48 256 CURVE SMOOTH",
"48 80 OFFCURVE",
"106 0 OFFCURVE",
"281 0 CURVE SMOOTH"
);
}
);
width = 1070;
}
);
leftKerningGroup = I;
leftMetricsKey = l;
rightKerningGroup = o;
rightMetricsKey = e;
},
{
color = 4;
glyphname = l_i.dlig;
lastChange = "2024-02-10 01:18:34 +0000";
layers = (
{
anchors = (
{
name = bottom;
position = "{182, 0}";
},
{
name = center;
position = "{182, 325}";
},
{
name = circumflexBelow;
position = "{195, 0}";
},
{
name = top;
position = "{182, 890}";
},
{
name = topright;
position = "{356, 890}";
}
);
components = (
{
name = i;
transform = "{1, 0, 0, 1, 390, 0}";
}
);
layerId = "BADE114B-EA49-45B4-AE36-72A7CEB6E1BE";
paths = (
{
closed = 1;
nodes = (
"342 0 OFFCURVE",
"407 42 OFFCURVE",
"451 119 CURVE",
"451 292 LINE",
"417 237 OFFCURVE",
"370 201 OFFCURVE",
"332 201 CURVE SMOOTH",
"293 201 OFFCURVE",
"283 216 OFFCURVE",
"283 275 CURVE SMOOTH",
"283 275 OFFCURVE",
"283 292 OFFCURVE",
"283 373 CURVE SMOOTH",
"283 537 OFFCURVE",
"276 710 OFFCURVE",
"306 873 CURVE",
"306 873 OFFCURVE",
"267 890 OFFCURVE",
"188 890 CURVE SMOOTH",
"98 890 OFFCURVE",
"67 873 OFFCURVE",
"67 873 CURVE",
"54 718 OFFCURVE",
"50 572 OFFCURVE",
"50 426 CURVE SMOOTH",
"50 390 OFFCURVE",
"50 356 OFFCURVE",
"50 201 CURVE SMOOTH",
"50 57 OFFCURVE",
"108 0 OFFCURVE",
"252 0 CURVE SMOOTH"
);
}
);
width = 733;
}
);
leftKerningGroup = I;
leftMetricsKey = I;
rightKerningGroup = i;
rightMetricsKey = i;
},
{
color = 4;
glyphname = q_u.dlig;
lastChange = "2024-02-07 22:44:31 +0000";
layers = (
{
components = (
{
name = o;
},
{
name = u;
transform = "{1, 0, 0, 1, 702, 0}";
}
);
layerId = "BADE114B-EA49-45B4-AE36-72A7CEB6E1BE";
paths = (
{
closed = 1;
nodes = (
"871 -270 OFFCURVE",
"970 -266 OFFCURVE",
"1031 -260 CURVE",
"1058 -46 LINE",
"957 -58 OFFCURVE",
"856 -66 OFFCURVE",
"744 -66 CURVE SMOOTH",
"623 -66 OFFCURVE",
"557 -21 OFFCURVE",
"533 78 CURVE",
"343 23 LINE",
"347 10 LINE SMOOTH",
"411 -198 OFFCURVE",
"519 -270 OFFCURVE",
"763 -270 CURVE SMOOTH"
);
}
);
width = 1421;
}
);
leftKerningGroup = o;
leftMetricsKey = o;
rightKerningGroup = idotless;
rightMetricsKey = u;
},
{
color = 4;
glyphname = t_e.dlig;
lastChange = "2024-02-10 16:35:06 +0000";
layers = (
{
anchors = (
{
name = _e;
position = "{566, 324}";
},
{
name = bottom;
position = "{254, 0}";
},
{
name = center;
position = "{224, 325}";
},
{
name = circumflexBelow;
position = "{254, 0}";
},
{
name = macronbelow;
position = "{254, 0}";
},
{
name = ogonek;
position = "{784, 0}";
},
{
name = top;
position = "{213, 840}";
},
{
name = topright;
position = "{438, 650}";
}
);
layerId = "BADE114B-EA49-45B4-AE36-72A7CEB6E1BE";
paths = (
{
closed = 1;
nodes = (
"480 64 OFFCURVE",
"605 -10 OFFCURVE",
"791 -10 CURVE SMOOTH",
"913 -10 OFFCURVE",
"1002 18 OFFCURVE",
"1072 80 CURVE",
"1035 221 LINE",
"978 179 OFFCURVE",
"905 154 OFFCURVE",
"838 154 CURVE SMOOTH",
"744 154 OFFCURVE",
"695 188 OFFCURVE",
"695 256 CURVE SMOOTH",
"695 320 LINE SMOOTH",
"695 442 OFFCURVE",
"718 511 OFFCURVE",
"788 511 CURVE SMOOTH",
"826 511 OFFCURVE",
"854 481 OFFCURVE",
"854 434 CURVE SMOOTH",
"854 353 OFFCURVE",
"781 320 OFFCURVE",
"597 320 CURVE",
"627 236 LINE",
"666 218 OFFCURVE",
"734 206 OFFCURVE",
"803 206 CURVE SMOOTH",
"953 206 OFFCURVE",
"1053 288 OFFCURVE",
"1053 412 CURVE SMOOTH",
"1053 575 OFFCURVE",
"963 660 OFFCURVE",
"791 660 CURVE SMOOTH",
"582 660 OFFCURVE",
"480 555 OFFCURVE",
"480 326 CURVE SMOOTH"
);
},
{
closed = 1;
nodes = (
"404 0 OFFCURVE",
"483 38 OFFCURVE",
"537 110 CURVE",
"488 269 LINE",
"471 231 OFFCURVE",
"447 211 OFFCURVE",
"394 211 CURVE SMOOTH",
"353 211 OFFCURVE",
"325 230 OFFCURVE",
"325 295 CURVE SMOOTH",
"325 325 LINE",
"92 325 LINE",
"92 325 OFFCURVE",
"92 325 OFFCURVE",
"92 256 CURVE SMOOTH",
"92 80 OFFCURVE",
"150 0 OFFCURVE",
"325 0 CURVE SMOOTH"
);
},
{
closed = 1;
nodes = (
"325 325 LINE",
"325 821 LINE",
"296 834 OFFCURVE",
"261 840 OFFCURVE",
"205 840 CURVE SMOOTH",
"122 840 OFFCURVE",
"92 823 OFFCURVE",
"92 823 CURVE",
"92 325 LINE"
);
},
{
closed = 1;
nodes = (
"380 464 LINE",
"380 464 OFFCURVE",
"384 479 OFFCURVE",
"384 542 CURVE SMOOTH",
"384 604 OFFCURVE",
"380 620 OFFCURVE",
"380 620 CURVE",
"199 620 LINE",
"153 640 LINE",
"28 640 LINE",
"28 640 OFFCURVE",
"24 622 OFFCURVE",
"24 552 CURVE SMOOTH",
"24 482 OFFCURVE",
"28 464 OFFCURVE",
"28 464 CURVE"
);
}
);
width = 1114;
}
);
leftKerningGroup = t;
leftMetricsKey = t;
rightKerningGroup = o;
rightMetricsKey = e;
},
